college-sans.glyphspackage
{
glyphname = exclam;
layers = (
{
layerId = m002;
shapes = (
{
ref = period;
},
{
closed = 1;
nodes = (
(85,200,l),
(145,200,l),
(165,700,l),
(65,700,l)
);
}
);
width = 230;
}
);
unicode = 33;
}
{
glyphname = numbersign;
layers = (
{
layerId = m002;
shapes = (
{
closed = 1;
nodes = (
(380,505,l),
(650,500,l),
(650,580,l),
(380,575,l),
(100,580,l),
(100,500,l)
);
},
{
closed = 1;
nodes = (
(590,790,l),
(530,800,l),
(300,-40,l),
(360,-50,l)
);
},
{
closed = 1;
nodes = (
(20,170,l),
(290,175,l),
(570,170,l),
(570,250,l),
(290,245,l),
(20,250,l)
);
},
{
closed = 1;
nodes = (
(80,-40,l),
(140,-50,l),
(370,790,l),
(310,800,l)
);
}
);
width = 670;
}
);
unicode = 35;
}
{
glyphname = dollar;
layers = (
{
layerId = m002;
shapes = (
{
closed = 1;
nodes = (
(340,-95,l),
(340,795,l),
(270,795,l),
(270,-95,l)
);
},
{
ref = S;
}
);
width = 581;
}
);
unicode = 36;
}
{
glyphname = percent;
layers = (
{
layerId = m002;
shapes = (
{
closed = 1;
nodes = (
(651,675,l),
(599,715,l),
(45,25,l),
(97,-15,l)
);
},
{
closed = 1;
nodes = (
(555,-15,o),
(628,52,o),
(628,129,cs),
(628,194,o),
(581,265,o),
(493,265,cs),
(415,265,o),
(344,198,o),
(344,121,cs),
(344,54,o),
(391,-15,o),
(479,-15,cs)
);
},
{
closed = 1;
nodes = (
(560,63,o),
(531,48,o),
(489,48,cs),
(437,48,o),
(412,95,o),
(412,137,cs),
(412,187,o),
(441,203,o),
(483,203,cs),
(535,203,o),
(560,155,o),
(560,112,cs)
);
},
{
closed = 1;
nodes = (
(141,715,o),
(68,648,o),
(68,571,cs),
(68,506,o),
(115,435,o),
(203,435,cs),
(281,435,o),
(352,502,o),
(352,579,cs),
(352,646,o),
(305,715,o),
(217,715,cs)
);
},
{
closed = 1;
nodes = (
(137,637,o),
(165,653,o),
(207,653,cs),
(259,653,o),
(283,605,o),
(283,563,cs),
(283,513,o),
(255,498,o),
(213,498,cs),
(161,498,o),
(137,545,o),
(137,588,cs)
);
}
);
width = 696;
}
);
unicode = 37;
}
{
glyphname = ampersand;
layers = (
{
layerId = m002;
shapes = (
{
closed = 1;
nodes = (
(265,403,l),
(376,480,o),
(404,520,o),
(407,580,cs),
(409,651,o),
(362,716,o),
(273,716,cs),
(200,716,o),
(125,648,o),
(122,581,cs),
(118,500,o),
(182,432,o),
(249,346,cs),
(516,0,l),
(627,0,l),
(251,480,ls),
(214,527,o),
(197,559,o),
(199,595,cs),
(200,627,o),
(224,649,o),
(264,649,cs),
(299,649,o),
(334,608,o),
(332,568,cs),
(330,520,o),
(305,495,o),
(231,444,c)
);
},
{
closed = 1;
nodes = (
(510,141,l),
(643,319,l),
(565,349,l),
(468,182,l)
);
},
{
closed = 1;
nodes = (
(429,135,l),
(308,-13,o),
(127,71,o),
(132,225,cs),
(135,324,o),
(211,369,o),
(241,393,c),
(217,439,l),
(146,386,o),
(46,330,o),
(43,217,cs),
(40,94,o),
(119,-17,o),
(254,-17,cs),
(335,-17,o),
(390,9,o),
(477,109,c)
);
}
);
width = 693;
},
{
layerId = m003;
shapes = (
{
closed = 1;
nodes = (
(273,403,l),
(394,480,o),
(425,520,o),
(439,580,cs),
(451,631,o),
(414,716,o),
(325,716,cs),
(252,716,o),
(167,648,o),
(155,581,cs),
(139,500,o),
(195,432,o),
(249,346,cs),
(467,0,l),
(578,0,l),
(269,480,ls),
(239,527,o),
(226,559,o),
(234,595,cs),
(239,627,o),
(266,649,o),
(306,649,cs),
(341,649,o),
(370,608,o),
(363,568,cs),
(354,520,o),
(325,495,o),
(244,444,c)
);
},
{
closed = 1;
nodes = (
(481,141,l),
(639,319,l),
(565,369,l),
(444,182,l)
);
},
{
closed = 1;
nodes = (
(399,135,l),
(257,-13,o),
(88,71,o),
(115,225,cs),
(131,324,o),
(214,369,o),
(247,393,c),
(230,439,l),
(86,348,o),
(32,273,o),
(32,188,cs),
(32,59,o),
(111,-12,o),
(212,-12,cs),
(272,-12,o),
(373,27,o),
(443,109,c)
);
}
);
width = 693;
},
{
background = {
shapes = (
{
closed = 1;
nodes = (
(265,403,l),
(376,480,o),
(404,520,o),
(407,580,cs),
(409,651,o),
(362,716,o),
(273,716,cs),
(200,716,o),
(125,648,o),
(122,581,cs),
(118,500,o),
(182,432,o),
(249,346,cs),
(516,0,l),
(627,0,l),
(251,480,ls),
(214,527,o),
(197,559,o),
(199,595,cs),
(200,627,o),
(224,649,o),
(264,649,cs),
(299,649,o),
(334,608,o),
(332,568,cs),
(330,520,o),
(305,495,o),
(231,444,c)
);
},
{
closed = 1;
nodes = (
(510,141,l),
(643,319,l),
(565,349,l),
(468,182,l)
);
},
{
closed = 1;
nodes = (
(429,135,l),
(308,-13,o),
(127,71,o),
(132,225,cs),
(135,324,o),
(211,369,o),
(241,393,c),
(217,439,l),
(146,386,o),
(46,330,o),
(43,217,cs),
(40,94,o),
(119,-17,o),
(254,-17,cs),
(335,-17,o),
(390,9,o),
(477,109,c)
);
}
);
};
layerId = m006;
shapes = (
{
closed = 1;
nodes = (
(235,428,l),
(346,505,o),
(369,550,o),
(372,600,cs),
(376,671,o),
(322,716,o),
(263,716,cs),
(190,716,o),
(135,658,o),
(131,581,cs),
(128,510,o),
(230,410,o),
(299,326,cs),
(566,0,l),
(607,0,l),
(206,485,ls),
(175,523,o),
(161,561,o),
(161,594,cs),
(161,647,o),
(197,686,o),
(254,686,cs),
(319,686,o),
(343,628,o),
(342,588,cs),
(340,530,o),
(295,500,o),
(221,443,c)
);
},
{
closed = 1;
nodes = (
(481,131,l),
(638,314,l),
(615,332,l),
(465,150,l)
);
},
{
closed = 1;
nodes = (
(465,150,l),
(274,-91,o),
(71,47,o),
(75,215,cs),
(78,324,o),
(181,388,o),
(229,424,c),
(216,441,l),
(137,381,o),
(46,324,o),
(43,197,cs),
(39,67,o),
(142,-15,o),
(240,-15,cs),
(321,-15,o),
(396,38,o),
(481,131,c)
);
}
);
width = 693;
},
{
background = {
shapes = (
{
closed = 1;
nodes = (
(265,403,l),
(376,480,o),
(404,520,o),
(407,580,cs),
(409,651,o),
(362,716,o),
(273,716,cs),
(200,716,o),
(125,648,o),
(122,581,cs),
(118,500,o),
(182,432,o),
(249,346,cs),
(516,0,l),
(627,0,l),
(251,480,ls),
(214,527,o),
(197,559,o),
(199,595,cs),
(200,627,o),
(224,649,o),
(264,649,cs),
(299,649,o),
(334,608,o),
(332,568,cs),
(330,520,o),
(305,495,o),
(231,444,c)
);
},
{
closed = 1;
nodes = (
(510,141,l),
(643,319,l),
(565,349,l),
(468,182,l)
);
},
{
closed = 1;
nodes = (
(429,135,l),
(308,-13,o),
(127,71,o),
(132,225,cs),
(135,324,o),
(211,369,o),
(241,393,c),
(217,439,l),
(146,386,o),
(46,330,o),
(43,217,cs),
(40,94,o),
(119,-17,o),
(254,-17,cs),
(335,-17,o),
(390,9,o),
(477,109,c)
);
}
);
};
layerId = m007;
shapes = (
{
closed = 1;
nodes = (
(266,428,l),
(393,505,o),
(413,550,o),
(419,590,cs),
(429,661,o),
(373,716,o),
(314,716,cs),
(241,716,o),
(182,668,o),
(173,581,cs),
(166,510,o),
(260,410,o),
(323,326,cs),
(567,0,l),
(608,0,l),
(241,485,ls),
(212,523,o),
(201,561,o),
(203,594,cs),
(207,647,o),
(246,686,o),
(303,686,cs),
(368,686,o),
(388,628,o),
(384,588,cs),
(378,530,o),
(331,500,o),
(253,443,c)
);
},
{
closed = 1;
nodes = (
(491,131,l),
(661,314,l),
(639,332,l),
(477,150,l)
);
},
{
closed = 1;
nodes = (
(477,150,l),
(269,-91,o),
(75,47,o),
(91,215,cs),
(101,324,o),
(210,388,o),
(260,424,c),
(248,441,l),
(165,385,o),
(70,334,o),
(57,197,cs),
(45,67,o),
(142,-15,o),
(240,-15,cs),
(321,-15,o),
(399,38,o),
(491,131,c)
);
}
);
width = 693;
},
{
layerId = m008;
shapes = (
{
closed = 1;
nodes = (
(265,403,l),
(376,480,o),
(404,520,o),
(407,580,cs),
(409,651,o),
(352,716,o),
(263,716,cs),
(180,716,o),
(105,648,o),
(102,581,cs),
(98,500,o),
(152,432,o),
(219,346,cs),
(486,0,l),
(617,0,l),
(241,480,ls),
(204,527,o),
(197,559,o),
(198,585,cs),
(200,624,o),
(226,640,o),
(253,640,cs),
(293,640,o),
(312,610,o),
(312,572,cs),
(312,526,o),
(273,469,o),
(221,444,c)
);
},
{
closed = 1;
nodes = (
(500,121,l),
(643,319,l),
(535,359,l),
(458,182,l)
);
},
{
closed = 1;
nodes = (
(429,145,l),
(288,7,o),
(138,111,o),
(144,245,cs),
(147,324,o),
(211,369,o),
(241,393,c),
(217,439,l),
(146,386,o),
(46,330,o),
(43,217,cs),
(40,94,o),
(119,-17,o),
(254,-17,cs),
(335,-17,o),
(390,9,o),
(477,109,c)
);
}
);
width = 693;
},
{
layerId = m009;
shapes = (
{
closed = 1;
nodes = (
(287,403,l),
(408,480,o),
(442,520,o),
(453,580,cs),
(465,651,o),
(417,716,o),
(328,716,cs),
(245,716,o),
(161,648,o),
(149,581,cs),
(133,500,o),
(178,432,o),
(232,346,cs),
(451,0,l),
(582,0,l),
(273,480,ls),
(243,527,o),
(240,559,o),
(245,585,cs),
(253,624,o),
(281,640,o),
(308,640,cs),
(348,640,o),
(363,610,o),
(357,572,cs),
(351,526,o),
(304,469,o),
(248,444,c)
);
},
{
closed = 1;
nodes = (
(482,121,l),
(653,319,l),
(550,359,l),
(448,182,l)
);
},
{
closed = 1;
nodes = (
(414,145,l),
(254,7,o),
(118,111,o),
(143,245,cs),
(157,324,o),
(228,369,o),
(261,393,c),
(244,439,l),
(165,386,o),
(57,330,o),
(38,217,cs),
(18,94,o),
(81,-17,o),
(216,-17,cs),
(297,-17,o),
(356,9,o),
(457,109,c)
);
}
);
width = 693;
}
);
unicode = 38;
}
{
glyphname = quotesingle;
layers = (
{
layerId = m002;
shapes = (
{
closed = 1;
nodes = (
(60,500,l),
(110,500,l),
(140,726,l),
(130,740,l),
(60,740,l)
);
}
);
width = 210;
},
{
layerId = m003;
shapes = (
{
closed = 1;
nodes = (
(109,500,l),
(159,500,l),
(189,726,l),
(179,740,l),
(109,740,l)
);
}
);
width = 164;
},
{
layerId = m006;
shapes = (
{
closed = 1;
nodes = (
(60,500,l),
(90,500,l),
(100,735,l),
(95,740,l),
(60,740,l)
);
}
);
width = 165;
},
{
layerId = m007;
shapes = (
{
closed = 1;
nodes = (
(81,500,l),
(105,500,l),
(154,735,l),
(150,740,l),
(115,740,l)
);
}
);
width = 165;
},
{
layerId = m008;
shapes = (
{
closed = 1;
nodes = (
(50,500,l),
(120,500,l),
(150,726,l),
(140,740,l),
(50,740,l)
);
}
);
width = 210;
},
{
layerId = m009;
shapes = (
{
closed = 1;
nodes = (
(85,500,l),
(155,500,l),
(217,726,l),
(209,740,l),
(119,740,l)
);
}
);
width = 210;
}
);
unicode = 39;
}
{
glyphname = parenleft;
layers = (
{
layerId = m002;
shapes = (
{
closed = 1;
nodes = (
(-20,540,o),
(-20,120,o),
(260,-165,c),
(300,-130,l),
(80,133,o),
(80,527,o),
(300,790,c),
(260,825,l)
);
}
);
width = 300;
}
);
unicode = 40;
}
{
glyphname = plus;
layers = (
{
layerId = m002;
shapes = (
{
closed = 1;
nodes = (
(220,450,l),
(230,250,l),
(220,50,l),
(300,50,l),
(290,250,l),
(300,450,l)
);
},
{
closed = 1;
nodes = (
(460,290,l),
(260,280,l),
(60,290,l),
(60,210,l),
(260,220,l),
(460,210,l)
);
}
);
width = 520;
}
);
unicode = 43;
}
{
glyphname = comma;
layers = (
{
background = {
shapes = (
{
closed = 1;
nodes = (
(146,-7,o),
(170,18,o),
(170,49,cs),
(170,79,o),
(146,103,o),
(116,103,cs),
(85,103,o),
(60,79,o),
(60,49,cs),
(60,18,o),
(85,-7,o),
(116,-7,cs)
);
},
{
closed = 1;
nodes = (
(146,-117,o),
(170,-92,o),
(170,-61,cs),
(170,-31,o),
(146,-7,o),
(116,-7,cs),
(85,-7,o),
(60,-31,o),
(60,-61,cs),
(60,-92,o),
(85,-117,o),
(116,-117,cs)
);
}
);
};
layerId = m002;
shapes = (
{
closed = 1;
nodes = (
(65,0,l),
(40,-141,l),
(110,-141,l),
(150,0,l),
(170,85,l),
(160,99,l),
(70,99,l)
);
}
);
width = 230;
}
);
unicode = 44;
}
{
glyphname = hyphen;
layers = (
{
layerId = m002;
shapes = (
{
closed = 1;
nodes = (
(360,290,l),
(200,285,l),
(40,290,l),
(40,210,l),
(200,215,l),
(360,210,l)
);
}
);
width = 400;
}
);
unicode = 45;
}
{
glyphname = period;
layers = (
{
layerId = m002;
shapes = (
{
closed = 1;
nodes = (
(146,-7,o),
(170,18,o),
(170,49,cs),
(170,79,o),
(146,103,o),
(116,103,cs),
(85,103,o),
(60,79,o),
(60,49,cs),
(60,18,o),
(85,-7,o),
(116,-7,cs)
);
}
);
width = 230;
}
);
unicode = 46;
}
{
glyphname = slash;
layers = (
{
layerId = m002;
shapes = (
{
closed = 1;
nodes = (
(20,-40,l),
(90,-50,l),
(320,790,l),
(250,800,l)
);
}
);
width = 340;
},
{
layerId = m003;
shapes = (
{
closed = 1;
nodes = (
(-35,-40,l),
(34,-50,l),
(382,790,l),
(313,800,l)
);
}
);
width = 340;
},
{
layerId = m004;
shapes = (
{
closed = 1;
nodes = (
(20,-40,l),
(120,-60,l),
(350,780,l),
(250,800,l)
);
}
);
width = 370;
},
{
layerId = m005;
shapes = (
{
closed = 1;
nodes = (
(-35,-40,l),
(62,-60,l),
(410,780,l),
(313,800,l)
);
}
);
width = 370;
},
{
layerId = m006;
shapes = (
{
closed = 1;
nodes = (
(20,-40,l),
(50,-45,l),
(280,795,l),
(250,800,l)
);
}
);
width = 300;
},
{
layerId = m007;
shapes = (
{
closed = 1;
nodes = (
(-35,-40,l),
(-6,-45,l),
(343,795,l),
(313,800,l)
);
}
);
width = 300;
}
);
unicode = 47;
}
{
glyphname = zero;
layers = (
{
background = {
shapes = (
{
closed = 1;
nodes = (
(184,515,o),
(70,397,o),
(70,244,cs),
(70,108,o),
(143,-15,o),
(284,-15,cs),
(410,-15,o),
(524,103,o),
(524,256,cs),
(524,392,o),
(451,515,o),
(310,515,cs)
);
},
{
closed = 1;
nodes = (
(153,402,o),
(207,443,o),
(293,443,cs),
(392,443,o),
(441,340,o),
(441,224,cs),
(441,98,o),
(387,57,o),
(301,57,cs),
(202,57,o),
(153,160,o),
(153,276,cs)
);
}
);
};
layerId = m002;
shapes = (
{
closed = 1;
nodes = (
(184,715,o),
(50,592,o),
(50,342,cs),
(50,114,o),
(143,-15,o),
(284,-15,cs),
(410,-15,o),
(544,108,o),
(544,358,cs),
(544,586,o),
(451,715,o),
(310,715,cs)
);
},
{
closed = 1;
nodes = (
(133,591,o),
(207,643,o),
(293,643,cs),
(392,643,o),
(461,527,o),
(461,311,cs),
(461,109,o),
(387,57,o),
(301,57,cs),
(202,57,o),
(133,173,o),
(133,389,cs)
);
}
);
width = 594;
},
{
background = {
shapes = (
{
closed = 1;
nodes = (
(184,515,o),
(70,397,o),
(70,244,cs),
(70,108,o),
(143,-15,o),
(284,-15,cs),
(410,-15,o),
(524,103,o),
(524,256,cs),
(524,392,o),
(451,515,o),
(310,515,cs)
);
},
{
closed = 1;
nodes = (
(153,402,o),
(207,443,o),
(293,443,cs),
(392,443,o),
(441,340,o),
(441,224,cs),
(441,98,o),
(387,57,o),
(301,57,cs),
(202,57,o),
(153,160,o),
(153,276,cs)
);
}
);
};
layerId = m003;
shapes = (
{
closed = 1;
nodes = (
(249,715,o),
(98,592,o),
(63,342,cs),
(31,114,o),
(106,-15,o),
(247,-15,cs),
(373,-15,o),
(524,108,o),
(559,358,cs),
(591,586,o),
(516,715,o),
(375,715,cs)
);
},
{
closed = 1;
nodes = (
(181,591,o),
(262,643,o),
(348,643,cs),
(447,643,o),
(500,527,o),
(470,311,cs),
(441,109,o),
(360,57,o),
(274,57,cs),
(175,57,o),
(122,173,o),
(153,389,cs)
);
}
);
width = 594;
},
{
background = {
shapes = (
{
closed = 1;
nodes = (
(184,515,o),
(70,397,o),
(70,244,cs),
(70,108,o),
(143,-15,o),
(284,-15,cs),
(410,-15,o),
(524,103,o),
(524,256,cs),
(524,392,o),
(451,515,o),
(310,515,cs)
);
},
{
closed = 1;
nodes = (
(153,402,o),
(207,443,o),
(293,443,cs),
(392,443,o),
(441,340,o),
(441,224,cs),
(441,98,o),
(387,57,o),
(301,57,cs),
(202,57,o),
(153,160,o),
(153,276,cs)
);
}
);
};
layerId = m004;
shapes = (
{
closed = 1;
nodes = (
(184,715,o),
(50,592,o),
(50,342,cs),
(50,114,o),
(143,-15,o),
(284,-15,cs),
(410,-15,o),
(544,108,o),
(544,358,cs),
(544,586,o),
(451,715,o),
(310,715,cs)
);
},
{
closed = 1;
nodes = (
(173,547,o),
(223,609,o),
(294,609,cs),
(375,609,o),
(421,495,o),
(421,318,cs),
(421,153,o),
(371,91,o),
(300,91,cs),
(219,91,o),
(173,205,o),
(173,382,cs)
);
}
);
width = 594;
},
{
background = {
shapes = (
{
closed = 1;
nodes = (
(184,515,o),
(70,397,o),
(70,244,cs),
(70,108,o),
(143,-15,o),
(284,-15,cs),
(410,-15,o),
(524,103,o),
(524,256,cs),
(524,392,o),
(451,515,o),
(310,515,cs)
);
},
{
closed = 1;
nodes = (
(153,402,o),
(207,443,o),
(293,443,cs),
(392,443,o),
(441,340,o),
(441,224,cs),
(441,98,o),
(387,57,o),
(301,57,cs),
(202,57,o),
(153,160,o),
(153,276,cs)
);
}
);
};
layerId = m005;
shapes = (
{
closed = 1;
nodes = (
(235,715,o),
(84,592,o),
(49,342,cs),
(17,114,o),
(92,-15,o),
(233,-15,cs),
(359,-15,o),
(510,108,o),
(545,358,cs),
(577,586,o),
(502,715,o),
(361,715,cs)
);
},
{
closed = 1;
nodes = (
(201,547,o),
(259,609,o),
(330,609,cs),
(411,609,o),
(441,495,o),
(417,318,cs),
(393,153,o),
(335,91,o),
(264,91,cs),
(183,91,o),
(153,205,o),
(177,382,cs)
);
}
);
width = 594;
},
{
background = {
shapes = (
{
closed = 1;
nodes = (
(184,715,o),
(50,592,o),
(50,342,cs),
(50,114,o),
(143,-15,o),
(284,-15,cs),
(410,-15,o),
(544,108,o),
(544,358,cs),
(544,586,o),
(451,715,o),
(310,715,cs)
);
},
{
closed = 1;
nodes = (
(133,591,o),
(207,643,o),
(293,643,cs),
(392,643,o),
(461,527,o),
(461,311,cs),
(461,109,o),
(387,57,o),
(301,57,cs),
(202,57,o),
(133,173,o),
(133,389,cs)
);
}
);
};
layerId = m006;
shapes = (
{
closed = 1;
nodes = (
(184,715,o),
(50,592,o),
(50,342,cs),
(50,114,o),
(143,-15,o),
(284,-15,cs),
(410,-15,o),
(544,108,o),
(544,358,cs),
(544,586,o),
(451,715,o),
(310,715,cs)
);
},
{
closed = 1;
nodes = (
(83,591,o),
(207,683,o),
(293,683,cs),
(442,683,o),
(511,557,o),
(511,331,cs),
(511,109,o),
(387,17,o),
(301,17,cs),
(152,17,o),
(83,143,o),
(83,369,cs)
);
}
);
width = 594;
},
{
background = {
shapes = (
{
closed = 1;
nodes = (
(184,715,o),
(50,592,o),
(50,342,cs),
(50,114,o),
(143,-15,o),
(284,-15,cs),
(410,-15,o),
(544,108,o),
(544,358,cs),
(544,586,o),
(451,715,o),
(310,715,cs)
);
},
{
closed = 1;
nodes = (
(133,591,o),
(207,643,o),
(293,643,cs),
(392,643,o),
(461,527,o),
(461,311,cs),
(461,109,o),
(387,57,o),
(301,57,cs),
(202,57,o),
(133,173,o),
(133,389,cs)
);
}
);
};
layerId = m007;
shapes = (
{
closed = 1;
nodes = (
(235,715,o),
(84,592,o),
(49,342,cs),
(20,134,o),
(92,-15,o),
(233,-15,cs),
(359,-15,o),
(510,108,o),
(545,358,cs),
(574,566,o),
(502,715,o),
(361,715,cs)
);
},
{
closed = 1;
nodes = (
(117,591,o),
(254,683,o),
(340,683,cs),
(489,683,o),
(537,537,o),
(508,331,cs),
(477,109,o),
(340,17,o),
(254,17,cs),
(105,17,o),
(57,163,o),
(86,369,cs)
);
}
);
width = 594;
}
);
unicode = 48;
}
{
glyphname = one;
layers = (
{
layerId = m002;
shapes = (
{
closed = 1;
nodes = (
(115,500,l),
(105,0,l),
(185,0,l),
(185,700,l),
(170,710,l),
(90,670,l)
);
}
);
width = 295;
}
);
unicode = 49;
}
{
glyphname = two;
layers = (
{
layerId = m002;
shapes = (
{
closed = 1;
nodes = (
(462,0,l),
(472,88,l),
(136,79,l),
(341,262,o),
(454,359,o),
(454,496,cs),
(454,630,o),
(363,714,o),
(254,714,cs),
(179,714,o),
(103,680,o),
(44,597,c),
(79,564,l),
(122,610,o),
(161,634,o),
(222,634,cs),
(290,634,o),
(372,577,o),
(372,473,cs),
(372,342,o),
(231,251,o),
(41,55,c),
(55,0,l)
);
}
);
width = 522;
}
);
unicode = 50;
}
{
glyphname = three;
layers = (
{
layerId = m002;
shapes = (
{
closed = 1;
nodes = (
(351,452,o),
(304,393,o),
(192,396,c),
(190,339,l),
(233,339,ls),
(332,339,o),
(386,260,o),
(386,184,cs),
(386,88,o),
(317,57,o),
(251,57,cs),
(198,57,o),
(147,83,o),
(115,118,c),
(52,65,l),
(90,17,o),
(162,-15,o),
(224,-15,cs),
(350,-15,o),
(469,83,o),
(469,206,cs),
(469,287,o),
(426,359,o),
(348,392,c),
(398,430,o),
(433,486,o),
(433,535,cs),
(433,646,o),
(349,715,o),
(259,715,cs),
(196,715,o),
(124,687,o),
(76,618,c),
(115,581,l),
(150,619,o),
(183,639,o),
(233,639,cs),
(289,639,o),
(351,602,o),
(351,516,cs)
);
}
);
width = 514;
}
);
unicode = 51;
}
{
glyphname = four;
layers = (
{
background = {
shapes = (
{
closed = 0;
nodes = (
(25,245,l),
(35,185,l),
(299,185,l)
);
},
{
closed = 0;
nodes = (
(380,183,l),
(485,180,l),
(485,260,l),
(380,257,l)
);
},
{
closed = 0;
nodes = (
(301,255,l),
(98,255,l)
);
}
);
};
layerId = m002;
shapes = (
{
closed = 1;
nodes = (
(90,241,l),
(305,616,l),
(299,195,l),
(290,0,l),
(385,0,l),
(380,193,l),
(380,700,l),
(305,710,l),
(25,245,l)
);
},
{
closed = 1;
nodes = (
(480,185,l),
(490,265,l),
(90,245,l),
(25,245,l),
(34,185,l)
);
}
);
width = 515;
}
);
unicode = 52;
}
{
glyphname = five;
layers = (
{
background = {
shapes = (
{
closed = 1;
nodes = (
(303,480,o),
(132,436,c),
(130,379,l),
(282,409,o),
(396,348,o),
(396,204,cs),
(396,88,o),
(317,57,o),
(251,57,cs),
(198,57,o),
(147,83,o),
(115,118,c),
(52,65,l),
(90,17,o),
(162,-15,o),
(224,-15,cs),
(350,-15,o),
(479,83,o),
(479,226,cs),
(479,428,o)
);
},
{
closed = 1;
nodes = (
(160,635,l),
(240,640,l),
(430,620,l),
(430,700,l),
(170,700,l)
);
},
{
closed = 1;
nodes = (
(90,410,l),
(150,410,l),
(170,700,l),
(110,700,l)
);
}
);
};
layerId = m002;
shapes = (
{
closed = 1;
nodes = (
(479,376,o),
(373,462,o),
(245,462,cs),
(218,462,o),
(191,459,o),
(163,451,c),
(176,636,l),
(240,640,l),
(440,620,l),
(440,700,l),
(110,700,l),
(91,425,l),
(88,385,l),
(103,372,l),
(144,389,o),
(181,396,o),
(225,396,cs),
(327,396,o),
(396,313,o),
(396,214,cs),
(396,88,o),
(317,57,o),
(251,57,cs),
(198,57,o),
(147,83,o),
(115,118,c),
(52,65,l),
(90,17,o),
(162,-15,o),
(224,-15,cs),
(350,-15,o),
(479,83,o),
(479,236,cs)
);
}
);
width = 529;
}
);
unicode = 53;
}
{
glyphname = six;
layers = (
{
background = {
shapes = (
{
closed = 1;
nodes = (
(132,305,l),
(180,363,o),
(213,373,o),
(267,373,cs),
(383,373,o),
(430,285,o),
(430,193,cs),
(430,92,o),
(387,57,o),
(287,57,cs),
(171,57,o),
(134,145,o),
(134,257,cs),
(134,453,o),
(347,640,o),
(372,665,c),
(336,708,l),
(284,663,o),
(50,446,o),
(50,229,cs),
(50,96,o),
(111,-15,o),
(268,-15,cs),
(408,-15,o),
(514,92,o),
(514,221,cs),
(514,334,o),
(443,445,o),
(286,445,cs),
(219,445,o),
(165,420,o),
(96,328,c)
);
}
);
};
layerId = m002;
shapes = (
{
closed = 1;
nodes = (
(132,305,l),
(180,363,o),
(233,373,o),
(277,373,cs),
(383,373,o),
(430,295,o),
(430,193,cs),
(430,92,o),
(387,57,o),
(287,57,cs),
(171,57,o),
(134,145,o),
(134,257,cs),
(134,453,o),
(347,640,o),
(372,665,c),
(336,708,l),
(284,663,o),
(50,456,o),
(50,239,cs),
(50,106,o),
(111,-15,o),
(268,-15,cs),
(408,-15,o),
(514,92,o),
(514,221,cs),
(514,334,o),
(443,445,o),
(306,445,cs),
(219,445,o),
(145,390,o),
(96,328,c)
);
}
);
width = 564;
}
);
unicode = 54;
}
{
glyphname = seven;
layers = (
{
background = {
shapes = (
{
closed = 1;
nodes = (
(530,0,l),
(530,80,l),
(170,60,l),
(60,65,l),
(60,0,l)
);
},
{
closed = 1;
nodes = (
(6,65,l),
(10,0,l),
(58,0,l),
(533,635,l),
(530,700,l),
(482,700,l)
);
},
{
closed = 1;
nodes = (
(30,700,l),
(30,620,l),
(380,640,l),
(490,635,l),
(490,700,l)
);
}
);
};
layerId = m002;
shapes = (
{
closed = 1;
nodes = (
(97,0,l),
(198,0,l),
(433,645,l),
(420,700,l),
(392,700,l)
);
},
{
closed = 1;
nodes = (
(30,700,l),
(20,610,l),
(280,640,l),
(380,635,l),
(400,700,l)
);
}
);
width = 453;
},
{
background = {
shapes = (
{
closed = 1;
nodes = (
(530,0,l),
(530,80,l),
(170,60,l),
(60,65,l),
(60,0,l)
);
},
{
closed = 1;
nodes = (
(6,65,l),
(10,0,l),
(58,0,l),
(533,635,l),
(530,700,l),
(482,700,l)
);
},
{
closed = 1;
nodes = (
(30,700,l),
(30,620,l),
(380,640,l),
(490,635,l),
(490,700,l)
);
}
);
};
layerId = m003;
shapes = (
{
closed = 1;
nodes = (
(62,0,l),
(163,0,l),
(489,645,l),
(483,700,l),
(455,700,l)
);
},
{
closed = 1;
nodes = (
(93,700,l),
(71,610,l),
(335,640,l),
(434,635,l),
(463,700,l)
);
}
);
width = 453;
},
{
background = {
shapes = (
{
closed = 1;
nodes = (
(530,0,l),
(530,80,l),
(170,60,l),
(60,65,l),
(60,0,l)
);
},
{
closed = 1;
nodes = (
(6,65,l),
(10,0,l),
(58,0,l),
(533,635,l),
(530,700,l),
(482,700,l)
);
},
{
closed = 1;
nodes = (
(30,700,l),
(30,620,l),
(380,640,l),
(490,635,l),
(490,700,l)
);
}
);
};
layerId = m004;
shapes = (
{
closed = 1;
nodes = (
(77,0,l),
(228,0,l),
(433,645,l),
(420,700,l),
(382,700,l)
);
},
{
closed = 1;
nodes = (
(30,700,l),
(20,570,l),
(280,610,l),
(380,605,l),
(400,700,l)
);
}
);
width = 453;
},
{
background = {
shapes = (
{
closed = 1;
nodes = (
(530,0,l),
(530,80,l),
(170,60,l),
(60,65,l),
(60,0,l)
);
},
{
closed = 1;
nodes = (
(6,65,l),
(10,0,l),
(58,0,l),
(533,635,l),
(530,700,l),
(482,700,l)
);
},
{
closed = 1;
nodes = (
(30,700,l),
(30,620,l),
(380,640,l),
(490,635,l),
(490,700,l)
);
}
);
};
layerId = m005;
shapes = (
{
closed = 1;
nodes = (
(28,0,l),
(179,0,l),
(494,645,l),
(469,700,l),
(431,700,l)
);
},
{
closed = 1;
nodes = (
(79,700,l),
(51,570,l),
(367,630,l),
(416,625,l),
(449,700,l)
);
}
);
width = 453;
},
{
background = {
shapes = (
{
closed = 1;
nodes = (
(530,0,l),
(530,80,l),
(170,60,l),
(60,65,l),
(60,0,l)
);
},
{
closed = 1;
nodes = (
(6,65,l),
(10,0,l),
(58,0,l),
(533,635,l),
(530,700,l),
(482,700,l)
);
},
{
closed = 1;
nodes = (
(30,700,l),
(30,620,l),
(380,640,l),
(490,635,l),
(490,700,l)
);
}
);
};
layerId = m006;
shapes = (
{
closed = 1;
nodes = (
(97,0,l),
(198,0,l),
(433,645,l),
(420,700,l),
(392,700,l)
);
},
{
closed = 1;
nodes = (
(30,700,l),
(20,610,l),
(280,640,l),
(380,635,l),
(400,700,l)
);
}
);
width = 453;
}
);
unicode = 55;
}
{
glyphname = eight;
layers = (
{
background = {
shapes = (
{
closed = 1;
nodes = (
(144,436,o),
(30,328,o),
(30,205,cs),
(30,99,o),
(103,-14,o),
(244,-14,cs),
(370,-14,o),
(484,94,o),
(484,217,cs),
(484,323,o),
(411,436,o),
(270,436,cs)
);
},
{
closed = 1;
nodes = (
(113,333,o),
(167,364,o),
(253,364,cs),
(352,364,o),
(401,271,o),
(401,185,cs),
(401,89,o),
(347,58,o),
(261,58,cs),
(162,58,o),
(113,151,o),
(113,237,cs)
);
}
);
};
layerId = m002;
shapes = (
{
closed = 1;
nodes = (
(370,-14,o),
(474,84,o),
(474,196,cs),
(474,303,o),
(397,396,o),
(269,396,cs),
(154,396,o),
(40,308,o),
(40,186,cs),
(40,89,o),
(107,-14,o),
(245,-14,cs)
);
},
{
closed = 1;
nodes = (
(164,58,o),
(122,139,o),
(122,214,cs),
(122,307,o),
(179,334,o),
(254,334,cs),
(340,334,o),
(392,253,o),
(392,178,cs),
(392,95,o),
(345,58,o),
(260,58,cs)
);
},
{
closed = 1;
nodes = (
(180,396,o),
(141,471,o),
(141,540,cs),
(141,617,o),
(185,642,o),
(253,642,cs),
(334,642,o),
(373,567,o),
(373,499,cs),
(373,421,o),
(329,396,o),
(261,396,cs)
);
},
{
closed = 1;
nodes = (
(355,334,o),
(454,418,o),
(454,525,cs),
(454,617,o),
(391,714,o),
(268,714,cs),
(160,714,o),
(60,620,o),
(60,513,cs),
(60,422,o),
(123,334,o),
(246,334,cs)
);
}
);
width = 514;
},
{
background = {
shapes = (
{
closed = 1;
nodes = (
(144,436,o),
(30,328,o),
(30,205,cs),
(30,99,o),
(103,-14,o),
(244,-14,cs),
(370,-14,o),
(484,94,o),
(484,217,cs),
(484,323,o),
(411,436,o),
(270,436,cs)
);
},
{
closed = 1;
nodes = (
(113,333,o),
(167,364,o),
(253,364,cs),
(352,364,o),
(401,271,o),
(401,185,cs),
(401,89,o),
(347,58,o),
(261,58,cs),
(162,58,o),
(113,151,o),
(113,237,cs)
);
}
);
};
layerId = m003;
shapes = (
{
closed = 1;
nodes = (
(333,-14,o),
(451,84,o),
(466,196,cs),
(481,303,o),
(418,396,o),
(290,396,cs),
(175,396,o),
(48,308,o),
(31,186,cs),
(17,89,o),
(70,-14,o),
(208,-14,cs)
);
},
{
closed = 1;
nodes = (
(137,58,o),
(106,139,o),
(117,214,cs),
(130,307,o),
(191,334,o),
(266,334,cs),
(352,334,o),
(392,253,o),
(382,178,cs),
(370,95,o),
(318,58,o),
(233,58,cs)
);
},
{
closed = 1;
nodes = (
(201,396,o),
(172,471,o),
(182,540,cs),
(193,617,o),
(240,642,o),
(308,642,cs),
(389,642,o),
(418,567,o),
(408,499,cs),
(397,421,o),
(350,396,o),
(282,396,cs)
);
},
{
closed = 1;
nodes = (
(367,334,o),
(478,418,o),
(493,525,cs),
(506,617,o),
(456,714,o),
(333,714,cs),
(225,714,o),
(112,620,o),
(97,513,cs),
(84,422,o),
(135,334,o),
(258,334,cs)
);
}
);
width = 514;
},
{
background = {
shapes = (
{
closed = 1;
nodes = (
(154,376,o),
(40,308,o),
(40,186,cs),
(40,89,o),
(107,-14,o),
(245,-14,cs),
(370,-14,o),
(474,84,o),
(474,196,cs),
(474,303,o),
(397,376,o),
(269,376,cs)
);
},
{
closed = 1;
nodes = (
(122,307,o),
(179,344,o),
(254,344,cs),
(340,344,o),
(392,253,o),
(392,178,cs),
(392,95,o),
(345,58,o),
(260,58,cs),
(164,58,o),
(122,139,o),
(122,214,cs)
);
},
{
closed = 1;
nodes = (
(160,714,o),
(60,630,o),
(60,523,cs),
(60,432,o),
(123,344,o),
(246,344,cs),
(355,344,o),
(454,428,o),
(454,535,cs),
(454,627,o),
(391,714,o),
(268,714,cs)
);
},
{
closed = 1;
nodes = (
(101,627,o),
(185,682,o),
(253,682,cs),
(384,682,o),
(413,577,o),
(413,529,cs),
(413,431,o),
(329,376,o),
(261,376,cs),
(130,376,o),
(101,481,o),
(101,530,cs)
);
}
);
};
layerId = m006;
shapes = (
{
closed = 1;
nodes = (
(359,-14,o),
(475,75,o),
(475,187,cs),
(475,303,o),
(398,376,o),
(269,376,cs),
(154,376,o),
(39,307,o),
(39,175,cs),
(39,78,o),
(116,-14,o),
(245,-14,cs)
);
},
{
closed = 1;
nodes = (
(119,15,o),
(78,129,o),
(78,181,cs),
(78,307,o),
(179,347,o),
(253,347,cs),
(395,347,o),
(436,253,o),
(436,180,cs),
(436,75,o),
(335,15,o),
(261,15,cs)
);
},
{
closed = 1;
nodes = (
(128,376,o),
(98,480,o),
(98,530,cs),
(98,629,o),
(184,685,o),
(253,685,cs),
(386,685,o),
(416,578,o),
(416,529,cs),
(416,429,o),
(330,376,o),
(261,376,cs)
);
},
{
closed = 1;
nodes = (
(355,347,o),
(454,428,o),
(454,535,cs),
(454,627,o),
(391,714,o),
(268,714,cs),
(160,714,o),
(60,630,o),
(60,523,cs),
(60,432,o),
(123,347,o),
(246,347,cs)
);
}
);
width = 514;
},
{
background = {
shapes = (
{
closed = 1;
nodes = (
(154,376,o),
(40,308,o),
(40,186,cs),
(40,89,o),
(107,-14,o),
(245,-14,cs),
(370,-14,o),
(474,84,o),
(474,196,cs),
(474,303,o),
(397,376,o),
(269,376,cs)
);
},
{
closed = 1;
nodes = (
(122,307,o),
(179,344,o),
(254,344,cs),
(340,344,o),
(392,253,o),
(392,178,cs),
(392,95,o),
(345,58,o),
(260,58,cs),
(164,58,o),
(122,139,o),
(122,214,cs)
);
},
{
closed = 1;
nodes = (
(160,714,o),
(60,630,o),
(60,523,cs),
(60,432,o),
(123,344,o),
(246,344,cs),
(355,344,o),
(454,428,o),
(454,535,cs),
(454,627,o),
(391,714,o),
(268,714,cs)
);
},
{
closed = 1;
nodes = (
(101,627,o),
(185,682,o),
(253,682,cs),
(384,682,o),
(413,577,o),
(413,529,cs),
(413,431,o),
(329,376,o),
(261,376,cs),
(130,376,o),
(101,481,o),
(101,530,cs)
);
}
);
};
layerId = m007;
shapes = (
{
closed = 1;
nodes = (
(308,-14,o),
(436,75,o),
(452,187,cs),
(468,303,o),
(402,376,o),
(272,376,cs),
(157,376,o),
(33,307,o),
(14,175,cs),
(1,78,o),
(65,-14,o),
(194,-14,cs)
);
},
{
closed = 1;
nodes = (
(72,15,o),
(47,129,o),
(54,181,cs),
(72,307,o),
(178,347,o),
(252,347,cs),
(394,347,o),
(423,253,o),
(412,180,cs),
(398,75,o),
(288,15,o),
(214,15,cs)
);
},
{
closed = 1;
nodes = (
(132,376,o),
(116,480,o),
(123,530,cs),
(137,629,o),
(231,685,o),
(300,685,cs),
(434,685,o),
(448,578,o),
(441,529,cs),
(427,429,o),
(334,376,o),
(265,376,cs)
);
},
{
closed = 1;
nodes = (
(355,347,o),
(465,428,o),
(480,535,cs),
(493,627,o),
(442,714,o),
(319,714,cs),
(211,714,o),
(99,630,o),
(84,523,cs),
(72,432,o),
(123,347,o),
(246,347,cs)
);
}
);
width = 514;
},
{
background = {
shapes = (
{
closed = 1;
nodes = (
(144,436,o),
(30,328,o),
(30,205,cs),
(30,99,o),
(103,-14,o),
(244,-14,cs),
(370,-14,o),
(484,94,o),
(484,217,cs),
(484,323,o),
(411,436,o),
(270,436,cs)
);
},
{
closed = 1;
nodes = (
(113,333,o),
(167,364,o),
(253,364,cs),
(352,364,o),
(401,271,o),
(401,185,cs),
(401,89,o),
(347,58,o),
(261,58,cs),
(162,58,o),
(113,151,o),
(113,237,cs)
);
}
);
};
layerId = m008;
shapes = (
{
closed = 1;
nodes = (
(373,-14,o),
(479,86,o),
(479,201,cs),
(479,311,o),
(400,406,o),
(269,406,cs),
(151,406,o),
(35,316,o),
(35,191,cs),
(35,92,o),
(103,-14,o),
(245,-14,cs)
);
},
{
closed = 1;
nodes = (
(174,78,o),
(137,150,o),
(137,217,cs),
(137,300,o),
(187,324,o),
(254,324,cs),
(331,324,o),
(377,252,o),
(377,185,cs),
(377,111,o),
(335,78,o),
(260,78,cs)
);
},
{
closed = 1;
nodes = (
(190,406,o),
(155,472,o),
(155,533,cs),
(155,600,o),
(194,622,o),
(254,622,cs),
(324,622,o),
(359,556,o),
(359,496,cs),
(359,428,o),
(320,406,o),
(260,406,cs)
);
},
{
closed = 1;
nodes = (
(358,324,o),
(459,410,o),
(459,520,cs),
(459,614,o),
(395,714,o),
(268,714,cs),
(157,714,o),
(55,618,o),
(55,508,cs),
(55,414,o),
(119,324,o),
(246,324,cs)
);
}
);
width = 514;
},
{
background = {
shapes = (
{
closed = 1;
nodes = (
(144,436,o),
(30,328,o),
(30,205,cs),
(30,99,o),
(103,-14,o),
(244,-14,cs),
(370,-14,o),
(484,94,o),
(484,217,cs),
(484,323,o),
(411,436,o),
(270,436,cs)
);
},
{
closed = 1;
nodes = (
(113,333,o),
(167,364,o),
(253,364,cs),
(352,364,o),
(401,271,o),
(401,185,cs),
(401,89,o),
(347,58,o),
(261,58,cs),
(162,58,o),
(113,151,o),
(113,237,cs)
);
}
);
};
layerId = m009;
shapes = (
{
closed = 1;
nodes = (
(336,-14,o),
(456,86,o),
(472,201,cs),
(485,291,o),
(422,406,o),
(291,406,cs),
(173,406,o),
(44,316,o),
(26,191,cs),
(15,111,o),
(66,-14,o),
(208,-14,cs)
);
},
{
closed = 1;
nodes = (
(150,78,o),
(123,150,o),
(132,217,cs),
(144,300,o),
(198,324,o),
(265,324,cs),
(341,324,o),
(378,252,o),
(368,185,cs),
(358,111,o),
(311,78,o),
(236,78,cs)
);
},
{
closed = 1;
nodes = (
(212,406,o),
(186,472,o),
(195,533,cs),
(204,600,o),
(246,622,o),
(306,622,cs),
(376,622,o),
(402,556,o),
(393,496,cs),
(384,428,o),
(342,406,o),
(282,406,cs)
);
},
{
closed = 1;
nodes = (
(368,324,o),
(482,410,o),
(497,520,cs),
(508,595,o),
(460,714,o),
(334,714,cs),
(223,714,o),
(106,618,o),
(91,508,cs),
(81,434,o),
(130,324,o),
(256,324,cs)
);
}
);
width = 514;
}
);
unicode = 56;
}
{
glyphname = nine;
layers = (
{
layerId = m002;
shapes = (
{
closed = 1;
nodes = (
(432,395,l),
(384,337,o),
(331,327,o),
(287,327,cs),
(181,327,o),
(134,405,o),
(134,507,cs),
(134,608,o),
(177,643,o),
(277,643,cs),
(393,643,o),
(430,525,o),
(430,443,cs),
(430,247,o),
(217,60,o),
(192,35,c),
(228,-8,l),
(280,37,o),
(514,244,o),
(514,461,cs),
(514,564,o),
(453,715,o),
(296,715,cs),
(156,715,o),
(50,608,o),
(50,479,cs),
(50,366,o),
(121,255,o),
(258,255,cs),
(345,255,o),
(419,310,o),
(468,372,c)
);
}
);
width = 564;
},
{
layerId = m003;
shapes = (
{
closed = 1;
nodes = (
(452,395,l),
(396,337,o),
(342,327,o),
(298,327,cs),
(192,327,o),
(156,405,o),
(170,507,cs),
(184,608,o),
(232,643,o),
(332,643,cs),
(448,643,o),
(469,525,o),
(457,443,cs),
(430,247,o),
(190,60,o),
(162,35,c),
(192,-8,l),
(250,37,o),
(513,244,o),
(544,461,cs),
(558,564,o),
(518,715,o),
(361,715,cs),
(221,715,o),
(100,608,o),
(82,479,cs),
(66,366,o),
(122,255,o),
(259,255,cs),
(346,255,o),
(427,310,o),
(485,372,c)
);
}
);
width = 564;
},
{
background = {
shapes = (
{
closed = 1;
nodes = (
(432,395,l),
(384,337,o),
(331,327,o),
(287,327,cs),
(181,327,o),
(134,405,o),
(134,507,cs),
(134,608,o),
(177,643,o),
(277,643,cs),
(393,643,o),
(430,525,o),
(430,443,cs),
(430,247,o),
(217,60,o),
(192,35,c),
(228,-8,l),
(280,37,o),
(514,244,o),
(514,461,cs),
(514,564,o),
(453,715,o),
(296,715,cs),
(156,715,o),
(50,608,o),
(50,479,cs),
(50,366,o),
(121,255,o),
(258,255,cs),
(345,255,o),
(419,310,o),
(468,372,c)
);
}
);
};
layerId = m004;
shapes = (
{
closed = 1;
nodes = (
(412,425,l),
(385,376,o),
(340,350,o),
(296,350,cs),
(234,350,o),
(174,402,o),
(174,507,cs),
(174,578,o),
(207,613,o),
(267,613,cs),
(333,613,o),
(390,555,o),
(390,443,cs),
(390,247,o),
(177,80,o),
(152,55,c),
(228,-8,l),
(280,37,o),
(514,244,o),
(514,451,cs),
(514,564,o),
(453,715,o),
(276,715,cs),
(156,715,o),
(50,608,o),
(50,479,cs),
(50,366,o),
(123,253,o),
(231,253,cs),
(294,253,o),
(369,292,o),
(448,392,c)
);
}
);
width = 564;
},
{
background = {
shapes = (
{
closed = 1;
nodes = (
(432,395,l),
(384,337,o),
(331,327,o),
(287,327,cs),
(181,327,o),
(134,405,o),
(134,507,cs),
(134,608,o),
(177,643,o),
(277,643,cs),
(393,643,o),
(430,525,o),
(430,443,cs),
(430,247,o),
(217,60,o),
(192,35,c),
(228,-8,l),
(280,37,o),
(514,244,o),
(514,461,cs),
(514,564,o),
(453,715,o),
(296,715,cs),
(156,715,o),
(50,608,o),
(50,479,cs),
(50,366,o),
(121,255,o),
(258,255,cs),
(345,255,o),
(419,310,o),
(468,372,c)
);
}
);
};
layerId = m005;
shapes = (
{
closed = 1;
nodes = (
(422,425,l),
(388,376,o),
(340,350,o),
(296,350,cs),
(233,350,o),
(181,402,o),
(196,507,cs),
(206,578,o),
(243,613,o),
(303,613,cs),
(369,613,o),
(418,555,o),
(403,443,cs),
(375,247,o),
(139,80,o),
(110,55,c),
(177,-8,l),
(236,37,o),
(499,244,o),
(528,451,cs),
(544,564,o),
(504,715,o),
(327,715,cs),
(207,715,o),
(86,608,o),
(68,479,cs),
(52,366,o),
(109,253,o),
(216,253,cs),
(279,253,o),
(360,292,o),
(453,392,c)
);
}
);
width = 564;
},
{
layerId = m006;
shapes = (
{
closed = 1;
nodes = (
(432,395,l),
(384,337,o),
(331,327,o),
(287,327,cs),
(181,327,o),
(134,405,o),
(134,507,cs),
(134,608,o),
(177,643,o),
(277,643,cs),
(393,643,o),
(430,525,o),
(430,443,cs),
(430,247,o),
(217,60,o),
(192,35,c),
(228,-8,l),
(280,37,o),
(514,244,o),
(514,461,cs),
(514,564,o),
(453,715,o),
(296,715,cs),
(156,715,o),
(50,608,o),
(50,479,cs),
(50,366,o),
(121,255,o),
(258,255,cs),
(345,255,o),
(419,310,o),
(468,372,c)
);
}
);
width = 564;
}
);
unicode = 57;
}
{
glyphname = equal;
layers = (
{
layerId = m002;
shapes = (
{
closed = 1;
nodes = (
(540,380,l),
(300,375,l),
(60,380,l),
(60,305,l),
(540,305,l)
);
},
{
closed = 1;
nodes = (
(540,195,l),
(60,195,l),
(60,120,l),
(300,125,l),
(540,120,l)
);
}
);
width = 600;
}
);
unicode = 61;
}
{
glyphname = greater;
layers = (
{
layerId = m002;
shapes = (
{
closed = 1;
nodes = (
(560,270,l),
(90,500,l),
(60,435,l),
(451,250,l),
(60,75,l),
(90,0,l),
(560,230,l)
);
}
);
width = 600;
}
);
unicode = 62;
}
{
glyphname = question;
layers = (
{
background = {
shapes = (
{
closed = 0;
nodes = (
(290,392,l),
(340,430,o),
(375,486,o),
(375,535,cs),
(375,646,o),
(291,715,o),
(201,715,cs),
(138,715,o),
(66,687,o),
(18,618,c),
(57,581,l),
(92,619,o),
(125,639,o),
(175,639,cs),
(231,639,o),
(293,602,o),
(293,516,cs),
(293,452,o),
(246,393,o),
(134,396,c),
(132,339,l),
(175,339,ls)
);
}
);
};
hints = (
{
name = _corner.mitre;
origin = (1,3);
scale = (1.5,1.5);
type = Corner;
},
{
name = _segment.bulge;
origin = (1,10);
type = Segment;
}
);
layerId = m002;
shapes = (
{
pos = (82,0);
ref = period;
},
{
closed = 1;
nodes = (
(377,641,o),
(253,787,o),
(40,674,c),
(74,598,l),
(153,644,o),
(308,658,o),
(308,540,cs),
(308,389,o),
(43,425,o),
(145,202,c),
(192,220,l,{
GSSegment = {
name = _segment.bulge;
};
}),
(153,362,o),
(377,333,o),
(377,526,cs)
);
}
);
width = 427;
}
);
unicode = 63;
}
{
glyphname = A;
layers = (
{
anchors = (
{
name = bottom;
pos = (313,0);
},
{
name = ogonek;
pos = (563,10);
},
{
name = top;
pos = (313,700);
}
);
layerId = m002;
shapes = (
{
closed = 1;
nodes = (
(282,702,l),
(264,635,l),
(0,0,l),
(90,0,l),
(303,601,l),
(518,0,l),
(616,0,l),
(348,716,l)
);
},
{
closed = 1;
nodes = (
(160,290,l),
(160,225,l),
(480,235,l),
(480,280,l)
);
}
);
width = 626;
}
);
unicode = 65;
}
{
glyphname = B;
layers = (
{
background = {
shapes = (
{
closed = 1;
nodes = (
(69,0,l),
(316,0,ls),
(524,0,o),
(585,102,o),
(585,199,cs),
(585,318,o),
(473,400,o),
(304,400,cs),
(73,400,l)
);
},
{
closed = 1;
nodes = (
(411,342,o),
(485,297,o),
(485,197,cs),
(485,113,o),
(428,58,o),
(302,60,cs),
(158,62,l),
(155,337,l),
(304,340,ls)
);
}
);
};
layerId = m002;
shapes = (
{
closed = 1;
nodes = (
(155,403,l),
(158,638,l),
(242,640,ls),
(368,643,o),
(410,587,o),
(410,513,cs),
(410,427,o),
(336,397,o),
(279,399,cs)
);
},
{
closed = 1;
nodes = (
(276,0,ls),
(454,0,o),
(540,102,o),
(540,199,cs),
(540,273,o),
(501,343,o),
(407,378,c),
(471,406,o),
(500,465,o),
(500,531,cs),
(500,598,o),
(464,700,o),
(266,700,cs),
(69,700,l),
(73,368,l),
(69,0,l)
);
},
{
closed = 1;
nodes = (
(277,339,ls),
(377,341,o),
(445,293,o),
(445,197,cs),
(445,113,o),
(388,58,o),
(282,60,cs),
(158,62,l),
(155,337,l)
);
}
);
width = 590;
},
{
background = {
shapes = (
{
closed = 1;
nodes = (
(155,403,l),
(158,638,l),
(242,640,ls),
(368,643,o),
(410,587,o),
(410,513,cs),
(410,427,o),
(336,397,o),
(279,399,cs)
);
},
{
closed = 1;
nodes = (
(276,0,ls),
(454,0,o),
(540,102,o),
(540,199,cs),
(540,273,o),
(501,343,o),
(407,378,c),
(471,406,o),
(500,465,o),
(500,531,cs),
(500,598,o),
(464,700,o),
(266,700,cs),
(69,700,l),
(73,368,l),
(69,0,l)
);
},
{
closed = 1;
nodes = (
(277,339,ls),
(377,341,o),
(445,293,o),
(445,197,cs),
(445,113,o),
(388,58,o),
(282,60,cs),
(158,62,l),
(155,337,l)
);
}
);
};
layerId = m003;
shapes = (
{
closed = 1;
nodes = (
(165,408,l),
(168,628,l),
(242,630,ls),
(348,633,o),
(400,587,o),
(400,513,cs),
(400,437,o),
(336,402,o),
(279,404,cs)
);
},
{
closed = 1;
nodes = (
(276,0,ls),
(454,0,o),
(540,102,o),
(540,199,cs),
(540,273,o),
(501,343,o),
(407,378,c),
(471,406,o),
(500,465,o),
(500,531,cs),
(500,598,o),
(464,700,o),
(266,700,cs),
(69,700,l),
(73,368,l),
(69,0,l)
);
},
{
closed = 1;
nodes = (
(277,334,ls),
(377,336,o),
(435,273,o),
(435,197,cs),
(435,133,o),
(388,68,o),
(282,70,cs),
(168,72,l),
(165,332,l)
);
}
);
width = 590;
},
{
layerId = "BB3F2C30-9513-40C8-8DEE-D83156CA2EC7";
shapes = (
{
closed = 1;
nodes = (
(175,413,l),
(178,618,l),
(242,620,ls),
(328,623,o),
(390,587,o),
(390,513,cs),
(390,447,o),
(336,407,o),
(279,409,cs)
);
},
{
closed = 1;
nodes = (
(276,0,ls),
(454,0,o),
(540,102,o),
(540,199,cs),
(540,273,o),
(501,343,o),
(407,378,c),
(471,406,o),
(500,465,o),
(500,531,cs),
(500,598,o),
(464,700,o),
(266,700,cs),
(69,700,l),
(73,368,l),
(69,0,l)
);
},
{
closed = 1;
nodes = (
(277,329,ls),
(377,331,o),
(425,253,o),
(425,197,cs),
(425,153,o),
(388,78,o),
(282,80,cs),
(178,82,l),
(175,327,l)
);
}
);
width = 590;
}
);
unicode = 66;
}
{
glyphname = C;
layers = (
{
background = {
shapes = (
{
closed = 1;
nodes = (
(608,636,l),
(550,682,o),
(481,710,o),
(409,710,cs),
(237,710,o),
(45,556,o),
(45,350,cs),
(45,158,o),
(200,-10,o),
(386,-10,cs),
(462,-10,o),
(542,20,o),
(608,72,c),
(608,156,l),
(557,92,o),
(479,64,o),
(408,64,cs),
(289,64,o),
(134,169,o),
(134,374,cs),
(134,561,o),
(270,636,o),
(386,636,cs),
(467,636,o),
(554,595,o),
(608,514,c)
);
}
);
};
layerId = m002;
shapes = (
{
closed = 1;
nodes = (
(608,656,l),
(534,696,o),
(476,709,o),
(417,709,cs),
(250,709,o),
(45,567,o),
(45,340,cs),
(45,125,o),
(221,-10,o),
(379,-10,cs),
(465,-10,o),
(557,22,o),
(638,92,c),
(613,132,l),
(546,94,o),
(479,69,o),
(412,69,cs),
(282,69,o),
(134,165,o),
(134,364,cs),
(134,538,o),
(248,628,o),
(385,628,cs),
(451,628,o),
(522,606,o),
(588,564,c)
);
}
);
width = 683;
},
{
background = {
shapes = (
{
closed = 1;
nodes = (
(608,656,l),
(534,696,o),
(476,709,o),
(417,709,cs),
(250,709,o),
(45,567,o),
(45,340,cs),
(45,125,o),
(221,-10,o),
(379,-10,cs),
(465,-10,o),
(557,22,o),
(638,92,c),
(613,132,l),
(546,94,o),
(479,69,o),
(412,69,cs),
(282,69,o),
(134,165,o),
(134,364,cs),
(134,538,o),
(248,628,o),
(385,628,cs),
(451,628,o),
(522,606,o),
(588,564,c)
);
}
);
};
layerId = m003;
shapes = (
{
closed = 1;
nodes = (
(618,656,l),
(544,696,o),
(476,709,o),
(417,709,cs),
(250,709,o),
(45,567,o),
(45,340,cs),
(45,125,o),
(221,-10,o),
(379,-10,cs),
(465,-10,o),
(557,22,o),
(638,92,c),
(609,142,l),
(542,104,o),
(479,79,o),
(412,79,cs),
(282,79,o),
(144,185,o),
(144,364,cs),
(144,538,o),
(248,618,o),
(385,618,cs),
(451,618,o),
(520,596,o),
(596,554,c)
);
}
);
width = 683;
},
{
layerId = "BB3F2C30-9513-40C8-8DEE-D83156CA2EC7";
shapes = (
{
closed = 1;
nodes = (
(628,656,l),
(554,696,o),
(476,709,o),
(417,709,cs),
(250,709,o),
(45,567,o),
(45,340,cs),
(45,125,o),
(221,-10,o),
(379,-10,cs),
(465,-10,o),
(557,22,o),
(638,92,c),
(605,152,l),
(538,114,o),
(479,89,o),
(412,89,cs),
(282,89,o),
(154,205,o),
(154,364,cs),
(154,538,o),
(248,608,o),
(385,608,cs),
(451,608,o),
(518,586,o),
(604,544,c)
);
}
);
width = 683;
}
);
unicode = 67;
}
{
glyphname = D;
layers = (
{
background = {
hints = (
{
name = _corner.serif;
place = (128, 0);
scale = (-0.8,1.5);
type = Corner;
},
{
name = _corner.serif;
place = (128, 0);
scale = (0.8,1.5);
type = Corner;
},
{
name = _corner.mitre;
place = (207, 0);
type = Corner;
},
{
name = _corner.mitre;
place = (207, 0);
type = Corner;
}
);
shapes = (
{
closed = 1;
nodes = (
(75,500,l),
(70,0,l),
(160,0,l),
(155,250,l),
(159,640,l),
(321,640,ls),
(450,640,o),
(576,531,o),
(576,326,cs),
(576,139,o),
(439,60,o),
(303,60,c),
(158,65,l),
(160,0,l),
(321,0,ls),
(493,0,o),
(665,144,o),
(665,352,cs),
(665,541,o),
(520,700,o),
(344,700,cs),
(70,700,l)
);
}
);
};
layerId = m002;
shapes = (
{
closed = 1;
nodes = (
(75,250,l),
(65,0,l),
(291,0,ls),
(483,0,o),
(655,144,o),
(655,352,cs),
(655,521,o),
(540,700,o),
(304,700,cs),
(70,700,l)
);
},
{
closed = 1;
nodes = (
(159,635,l),
(291,640,l),
(450,640,o),
(561,531,o),
(561,336,cs),
(561,149,o),
(429,66,o),
(293,60,c),
(164,66,l),
(155,250,l)
);
}
);
width = 705;
},
{
background = {
hints = (
{
name = _corner.serif;
place = (128, 0);
scale = (-0.8,1.5);
type = Corner;
},
{
name = _corner.serif;
place = (128, 0);
scale = (0.8,1.5);
type = Corner;
},
{
name = _corner.mitre;
place = (207, 0);
type = Corner;
},
{
name = _corner.mitre;
place = (207, 0);
type = Corner;
}
);
shapes = (
{
closed = 1;
nodes = (
(75,250,l),
(65,0,l),
(291,0,ls),
(483,0,o),
(655,144,o),
(655,352,cs),
(655,521,o),
(540,700,o),
(304,700,cs),
(70,700,l)
);
},
{
closed = 1;
nodes = (
(159,635,l),
(291,640,l),
(450,640,o),
(561,531,o),
(561,336,cs),
(561,149,o),
(429,66,o),
(293,60,c),
(164,66,l),
(155,250,l)
);
}
);
};
layerId = m003;
shapes = (
{
closed = 1;
nodes = (
(75,250,l),
(65,0,l),
(291,0,ls),
(483,0,o),
(655,144,o),
(655,352,cs),
(655,521,o),
(540,700,o),
(304,700,cs),
(70,700,l)
);
},
{
closed = 1;
nodes = (
(169,626,l),
(291,630,l),
(450,630,o),
(551,501,o),
(551,336,cs),
(551,149,o),
(419,76,o),
(293,70,c),
(174,76,l),
(165,250,l)
);
}
);
width = 705;
},
{
layerId = "BB3F2C30-9513-40C8-8DEE-D83156CA2EC7";
shapes = (
{
closed = 1;
nodes = (
(75,250,l),
(65,0,l),
(291,0,ls),
(483,0,o),
(655,144,o),
(655,352,cs),
(655,521,o),
(540,700,o),
(304,700,cs),
(70,700,l)
);
},
{
closed = 1;
nodes = (
(179,617,l),
(291,620,l),
(450,620,o),
(541,471,o),
(541,336,cs),
(541,149,o),
(409,86,o),
(293,80,c),
(184,86,l),
(175,250,l)
);
}
);
width = 705;
}
);
unicode = 68;
}
{
glyphname = E;
layers = (
{
layerId = m002;
shapes = (
{
closed = 1;
nodes = (
(400,395,l),
(260,390,l),
(140,390,l),
(140,330,l),
(260,330,l),
(400,325,l)
);
},
{
closed = 1;
nodes = (
(70,500,l),
(65,0,l),
(155,0,l),
(150,250,l),
(155,700,l),
(65,700,l)
);
},
{
closed = 1;
nodes = (
(150,635,l),
(240,640,l),
(510,620,l),
(510,700,l),
(150,700,l)
);
},
{
closed = 1;
nodes = (
(540,0,l),
(540,80,l),
(240,60,l),
(150,65,l),
(150,0,l)
);
}
);
width = 560;
},
{
layerId = m003;
shapes = (
{
closed = 1;
nodes = (
(400,400,l),
(260,395,l),
(140,395,l),
(140,325,l),
(260,325,l),
(400,320,l)
);
},
{
closed = 1;
nodes = (
(70,500,l),
(65,0,l),
(165,0,l),
(160,250,l),
(165,700,l),
(65,700,l)
);
},
{
closed = 1;
nodes = (
(150,625,l),
(240,630,l),
(510,610,l),
(510,700,l),
(150,700,l)
);
},
{
closed = 1;
nodes = (
(540,0,l),
(540,90,l),
(240,70,l),
(150,75,l),
(150,0,l)
);
}
);
width = 560;
},
{
layerId = "BB3F2C30-9513-40C8-8DEE-D83156CA2EC7";
shapes = (
{
closed = 1;
nodes = (
(400,405,l),
(260,400,l),
(140,400,l),
(140,320,l),
(260,320,l),
(400,315,l)
);
},
{
closed = 1;
nodes = (
(70,500,l),
(65,0,l),
(175,0,l),
(170,250,l),
(175,700,l),
(65,700,l)
);
},
{
closed = 1;
nodes = (
(150,615,l),
(240,620,l),
(510,600,l),
(510,700,l),
(150,700,l)
);
},
{
closed = 1;
nodes = (
(540,0,l),
(540,100,l),
(240,80,l),
(150,85,l),
(150,0,l)
);
}
);
width = 560;
}
);
unicode = 69;
}
{
glyphname = F;
layers = (
{
layerId = m002;
shapes = (
{
closed = 1;
nodes = (
(420,385,l),
(260,380,l),
(140,380,l),
(140,320,l),
(260,320,l),
(420,315,l)
);
},
{
closed = 1;
nodes = (
(70,500,l),
(65,0,l),
(160,0,l),
(150,250,l),
(155,700,l),
(65,700,l)
);
},
{
closed = 1;
nodes = (
(150,635,l),
(240,640,l),
(490,620,l),
(490,700,l),
(150,700,l)
);
}
);
width = 510;
},
{
layerId = m003;
shapes = (
{
closed = 1;
nodes = (
(420,390,l),
(260,385,l),
(140,385,l),
(140,315,l),
(260,315,l),
(420,310,l)
);
},
{
closed = 1;
nodes = (
(70,500,l),
(65,0,l),
(170,0,l),
(160,250,l),
(165,700,l),
(65,700,l)
);
},
{
closed = 1;
nodes = (
(150,625,l),
(240,630,l),
(490,610,l),
(490,700,l),
(150,700,l)
);
}
);
width = 510;
},
{
layerId = "BB3F2C30-9513-40C8-8DEE-D83156CA2EC7";
shapes = (
{
closed = 1;
nodes = (
(420,395,l),
(260,390,l),
(140,390,l),
(140,310,l),
(260,310,l),
(420,305,l)
);
},
{
closed = 1;
nodes = (
(70,500,l),
(65,0,l),
(180,0,l),
(170,250,l),
(175,700,l),
(65,700,l)
);
},
{
closed = 1;
nodes = (
(150,615,l),
(240,620,l),
(490,600,l),
(490,700,l),
(150,700,l)
);
}
);
width = 510;
}
);
unicode = 70;
}
{
glyphname = G;
layers = (
{
layerId = m002;
shapes = (
{
closed = 1;
nodes = (
(608,656,l),
(534,696,o),
(476,709,o),
(417,709,cs),
(250,709,o),
(45,567,o),
(45,340,cs),
(45,125,o),
(221,-10,o),
(379,-10,cs),
(465,-10,o),
(557,22,o),
(638,92,c),
(613,132,l),
(546,94,o),
(479,69,o),
(412,69,cs),
(282,69,o),
(134,165,o),
(134,364,cs),
(134,538,o),
(248,628,o),
(385,628,cs),
(451,628,o),
(522,606,o),
(588,564,c)
);
},
{
closed = 1;
nodes = (
(555,90,l),
(638,92,l),
(630,250,l),
(635,330,l),
(545,330,l)
);
}
);
width = 693;
}
);
unicode = 71;
}
{
glyphname = H;
layers = (
{
layerId = m002;
shapes = (
{
closed = 1;
nodes = (
(540,325,l),
(540,395,l),
(260,390,l),
(140,395,l),
(140,325,l),
(420,330,l)
);
},
{
closed = 1;
nodes = (
(70,500,l),
(65,0,l),
(155,0,l),
(150,250,l),
(155,700,l),
(65,700,l)
);
},
{
closed = 1;
nodes = (
(530,500,l),
(525,0,l),
(615,0,l),
(610,250,l),
(615,700,l),
(525,700,l)
);
}
);
width = 680;
},
{
layerId = m003;
shapes = (
{
closed = 1;
nodes = (
(540,325,l),
(540,405,l),
(260,400,l),
(140,405,l),
(140,325,l),
(420,330,l)
);
},
{
closed = 1;
nodes = (
(70,500,l),
(65,0,l),
(165,0,l),
(160,250,l),
(165,700,l),
(65,700,l)
);
},
{
closed = 1;
nodes = (
(520,500,l),
(515,0,l),
(615,0,l),
(610,250,l),
(615,700,l),
(515,700,l)
);
}
);
width = 680;
},
{
layerId = "BB3F2C30-9513-40C8-8DEE-D83156CA2EC7";
shapes = (
{
closed = 1;
nodes = (
(540,325,l),
(540,415,l),
(260,410,l),
(140,415,l),
(140,325,l),
(420,330,l)
);
},
{
closed = 1;
nodes = (
(70,500,l),
(65,0,l),
(175,0,l),
(170,250,l),
(175,700,l),
(65,700,l)
);
},
{
closed = 1;
nodes = (
(510,500,l),
(505,0,l),
(615,0,l),
(610,250,l),
(615,700,l),
(505,700,l)
);
}
);
width = 680;
}
);
unicode = 72;
}
{
glyphname = I;
layers = (
{
anchors = (
{
name = bottom;
pos = (110,0);
},
{
name = ogonek;
pos = (198,10);
},
{
name = top;
pos = (110,700);
},
{
name = topleft;
pos = (20,700);
}
);
layerId = m002;
shapes = (
{
closed = 1;
nodes = (
(70,500,l),
(65,0,l),
(155,0,l),
(150,250,l),
(155,700,l),
(65,700,l)
);
}
);
width = 220;
}
);
unicode = 73;
}
{
glyphname = J;
layers = (
{
layerId = m002;
shapes = (
{
closed = 1;
nodes = (
(187,91,o),
(162,53,o),
(41,72,c),
(40,-8,l),
(158,-32,o),
(268,85,o),
(264,204,cs),
(255,460,l),
(255,700,l),
(165,700,l),
(183,197,ls)
);
}
);
width = 329;
},
{
background = {
shapes = (
{
closed = 1;
nodes = (
(187,91,o),
(162,53,o),
(41,72,c),
(40,-8,l),
(158,-32,o),
(268,85,o),
(264,204,cs),
(255,460,l),
(255,700,l),
(165,700,l),
(183,197,ls)
);
}
);
};
layerId = m003;
shapes = (
{
closed = 1;
nodes = (
(177,91,o),
(142,66,o),
(41,82,c),
(40,-8,l),
(158,-32,o),
(268,85,o),
(264,204,cs),
(255,460,l),
(255,700,l),
(155,700,l),
(173,197,ls)
);
}
);
width = 329;
},
{
layerId = "BB3F2C30-9513-40C8-8DEE-D83156CA2EC7";
shapes = (
{
closed = 1;
nodes = (
(167,91,o),
(122,79,o),
(41,92,c),
(40,-8,l),
(158,-32,o),
(268,85,o),
(264,204,cs),
(255,460,l),
(255,700,l),
(145,700,l),
(163,197,ls)
);
}
);
width = 329;
}
);
metricRight = "=I";
unicode = 74;
}
{
glyphname = K;
layers = (
{
layerId = m002;
shapes = (
{
closed = 1;
nodes = (
(70,500,l),
(65,0,l),
(155,0,l),
(150,250,l),
(155,700,l),
(65,700,l)
);
},
{
closed = 1;
nodes = (
(217,359,l),
(458,0,l),
(566,0,l),
(265,420,l)
);
},
{
closed = 1;
nodes = (
(571,700,l),
(443,700,l),
(144,350,l),
(144,282,l)
);
}
);
width = 581;
},
{
background = {
shapes = (
{
closed = 1;
nodes = (
(70,500,l),
(65,0,l),
(155,0,l),
(150,250,l),
(155,700,l),
(65,700,l)
);
},
{
closed = 1;
nodes = (
(217,359,l),
(458,0,l),
(566,0,l),
(265,420,l)
);
},
{
closed = 1;
nodes = (
(571,700,l),
(443,700,l),
(144,350,l),
(144,282,l)
);
}
);
};
layerId = m003;
shapes = (
{
closed = 1;
nodes = (
(70,500,l),
(65,0,l),
(165,0,l),
(160,250,l),
(165,700,l),
(65,700,l)
);
},
{
closed = 1;
nodes = (
(204,359,l),
(445,0,l),
(566,0,l),
(265,420,l)
);
},
{
closed = 1;
nodes = (
(571,700,l),
(430,700,l),
(131,350,l),
(144,282,l)
);
}
);
width = 581;
},
{
layerId = "BB3F2C30-9513-40C8-8DEE-D83156CA2EC7";
shapes = (
{
closed = 1;
nodes = (
(70,500,l),
(65,0,l),
(175,0,l),
(170,250,l),
(175,700,l),
(65,700,l)
);
},
{
closed = 1;
nodes = (
(191,359,l),
(432,0,l),
(566,0,l),
(265,420,l)
);
},
{
closed = 1;
nodes = (
(571,700,l),
(417,700,l),
(118,350,l),
(144,282,l)
);
}
);
width = 581;
}
);
unicode = 75;
}
{
glyphname = L;
layers = (
{
layerId = m002;
shapes = (
{
closed = 1;
nodes = (
(70,500,l),
(65,0,l),
(155,0,l),
(150,250,l),
(155,700,l),
(65,700,l)
);
},
{
closed = 1;
nodes = (
(540,0,l),
(540,80,l),
(260,55,l),
(140,60,l),
(140,0,l)
);
}
);
width = 540;
}
);
unicode = 76;
}
{
glyphname = M;
layers = (
{
layerId = m002;
shapes = (
{
closed = 1;
nodes = (
(473,-2,l),
(491,45,l),
(785,700,l),
(715,700,l),
(452,89,l),
(197,700,l),
(99,700,l),
(407,-16,l)
);
},
{
closed = 1;
nodes = (
(729,500,l),
(729,0,l),
(819,0,l),
(809,250,l),
(814,700,l),
(724,700,l)
);
},
{
closed = 1;
nodes = (
(75,700,l),
(80,500,l),
(55,0,l),
(145,0,l),
(135,500,l),
(135,700,l)
);
}
);
width = 879;
},
{
background = {
shapes = (
{
closed = 1;
nodes = (
(473,-2,l),
(491,45,l),
(785,700,l),
(715,700,l),
(452,89,l),
(197,700,l),
(99,700,l),
(407,-16,l)
);
},
{
closed = 1;
nodes = (
(729,500,l),
(729,0,l),
(819,0,l),
(809,250,l),
(814,700,l),
(724,700,l)
);
},
{
closed = 1;
nodes = (
(75,700,l),
(80,500,l),
(55,0,l),
(145,0,l),
(135,500,l),
(135,700,l)
);
}
);
};
layerId = m003;
shapes = (
{
closed = 1;
nodes = (
(473,-2,l),
(491,45,l),
(785,700,l),
(705,700,l),
(452,113,l),
(207,700,l),
(99,700,l),
(407,-16,l)
);
},
{
closed = 1;
nodes = (
(719,500,l),
(719,0,l),
(819,0,l),
(809,250,l),
(814,700,l),
(714,700,l)
);
},
{
closed = 1;
nodes = (
(75,700,l),
(80,500,l),
(55,0,l),
(155,0,l),
(145,500,l),
(145,700,l)
);
}
);
width = 879;
},
{
layerId = "BB3F2C30-9513-40C8-8DEE-D83156CA2EC7";
shapes = (
{
closed = 1;
nodes = (
(473,-2,l),
(491,45,l),
(785,700,l),
(695,700,l),
(452,137,l),
(217,700,l),
(99,700,l),
(407,-16,l)
);
},
{
closed = 1;
nodes = (
(709,500,l),
(709,0,l),
(819,0,l),
(809,250,l),
(814,700,l),
(704,700,l)
);
},
{
closed = 1;
nodes = (
(75,700,l),
(80,500,l),
(55,0,l),
(165,0,l),
(155,500,l),
(155,700,l)
);
}
);
width = 879;
}
);
metricLeft = "=I";
metricRight = "=I";
unicode = 77;
}
{
glyphname = N;
layers = (
{
layerId = m002;
shapes = (
{
closed = 1;
nodes = (
(70,500,l),
(65,0,l),
(140,0,l),
(135,250,l),
(138,500,l),
(130,700,l),
(65,700,l)
);
},
{
closed = 1;
nodes = (
(550,500,l),
(548,210,l),
(555,0,l),
(615,0,l),
(610,250,l),
(615,700,l),
(545,700,l)
);
},
{
closed = 1;
nodes = (
(190,500,l),
(460,130,l),
(545,0,l),
(595,0,l),
(595,95,l),
(500,220,l),
(227,600,l),
(160,700,l),
(95,700,l),
(95,650,l)
);
}
);
width = 680;
},
{
background = {
shapes = (
{
closed = 1;
nodes = (
(70,500,l),
(65,0,l),
(140,0,l),
(135,250,l),
(138,500,l),
(130,700,l),
(65,700,l)
);
},
{
closed = 1;
nodes = (
(550,500,l),
(548,210,l),
(555,0,l),
(615,0,l),
(610,250,l),
(615,700,l),
(545,700,l)
);
},
{
closed = 1;
nodes = (
(190,500,l),
(460,130,l),
(545,0,l),
(595,0,l),
(595,95,l),
(500,220,l),
(227,600,l),
(160,700,l),
(95,700,l),
(95,650,l)
);
}
);
};
layerId = m003;
shapes = (
{
closed = 1;
nodes = (
(70,500,l),
(65,0,l),
(150,0,l),
(145,250,l),
(148,470,l),
(130,700,l),
(65,700,l)
);
},
{
closed = 1;
nodes = (
(540,500,l),
(538,240,l),
(555,0,l),
(615,0,l),
(610,250,l),
(615,700,l),
(535,700,l)
);
},
{
closed = 1;
nodes = (
(190,480,l),
(460,110,l),
(530,0,l),
(595,0,l),
(595,95,l),
(500,220,l),
(227,600,l),
(160,700,l),
(95,700,l),
(95,630,l)
);
}
);
width = 680;
},
{
layerId = "BB3F2C30-9513-40C8-8DEE-D83156CA2EC7";
shapes = (
{
closed = 1;
nodes = (
(70,500,l),
(65,0,l),
(160,0,l),
(155,250,l),
(158,440,l),
(130,700,l),
(65,700,l)
);
},
{
closed = 1;
nodes = (
(530,500,l),
(528,270,l),
(555,0,l),
(615,0,l),
(610,250,l),
(615,700,l),
(525,700,l)
);
},
{
closed = 1;
nodes = (
(190,460,l),
(460,90,l),
(515,0,l),
(595,0,l),
(595,95,l),
(500,220,l),
(227,600,l),
(160,700,l),
(95,700,l),
(95,610,l)
);
}
);
width = 680;
}
);
unicode = 78;
}
{
glyphname = O;
layers = (
{
background = {
shapes = (
{
closed = 1;
nodes = (
(237,710,o),
(65,556,o),
(65,350,cs),
(65,158,o),
(200,-10,o),
(386,-10,cs),
(558,-10,o),
(730,144,o),
(730,352,cs),
(730,541,o),
(585,710,o),
(409,710,cs)
);
},
{
closed = 1;
nodes = (
(154,561,o),
(270,636,o),
(386,636,cs),
(515,636,o),
(641,531,o),
(641,326,cs),
(641,139,o),
(524,64,o),
(408,64,cs),
(289,64,o),
(154,169,o),
(154,374,cs)
);
}
);
};
layerId = m002;
shapes = (
{
closed = 1;
nodes = (
(237,710,o),
(45,556,o),
(45,350,cs),
(45,158,o),
(200,-10,o),
(386,-10,cs),
(558,-10,o),
(750,144,o),
(750,352,cs),
(750,541,o),
(585,710,o),
(409,710,cs)
);
},
{
closed = 1;
nodes = (
(134,561,o),
(270,636,o),
(386,636,cs),
(515,636,o),
(661,531,o),
(661,326,cs),
(661,139,o),
(524,64,o),
(408,64,cs),
(289,64,o),
(134,169,o),
(134,374,cs)
);
}
);
width = 795;
},
{
background = {
shapes = (
{
closed = 1;
nodes = (
(237,710,o),
(45,556,o),
(45,350,cs),
(45,158,o),
(200,-10,o),
(386,-10,cs),
(558,-10,o),
(750,144,o),
(750,352,cs),
(750,541,o),
(585,710,o),
(409,710,cs)
);
},
{
closed = 1;
nodes = (
(134,561,o),
(270,636,o),
(386,636,cs),
(515,636,o),
(661,531,o),
(661,326,cs),
(661,139,o),
(524,64,o),
(408,64,cs),
(289,64,o),
(134,169,o),
(134,374,cs)
);
}
);
};
layerId = m003;
shapes = (
{
closed = 1;
nodes = (
(237,710,o),
(45,556,o),
(45,350,cs),
(45,158,o),
(200,-10,o),
(386,-10,cs),
(558,-10,o),
(750,144,o),
(750,352,cs),
(750,541,o),
(585,710,o),
(409,710,cs)
);
},
{
closed = 1;
nodes = (
(144,553,o),
(275,625,o),
(386,625,cs),
(511,625,o),
(651,514,o),
(651,327,cs),
(651,147,o),
(519,75,o),
(408,75,cs),
(293,75,o),
(144,186,o),
(144,373,cs)
);
}
);
width = 795;
},
{
layerId = "BB3F2C30-9513-40C8-8DEE-D83156CA2EC7";
shapes = (
{
closed = 1;
nodes = (
(237,710,o),
(45,556,o),
(45,350,cs),
(45,158,o),
(200,-10,o),
(386,-10,cs),
(558,-10,o),
(750,144,o),
(750,352,cs),
(750,541,o),
(585,710,o),
(409,710,cs)
);
},
{
closed = 1;
nodes = (
(154,545,o),
(280,614,o),
(386,614,cs),
(507,614,o),
(641,497,o),
(641,328,cs),
(641,155,o),
(514,86,o),
(408,86,cs),
(297,86,o),
(154,203,o),
(154,372,cs)
);
}
);
width = 795;
}
);
unicode = 79;
}
{
glyphname = P;
layers = (
{
layerId = m002;
shapes = (
{
closed = 1;
nodes = (
(254,260,ls),
(423,260,o),
(530,362,o),
(530,481,cs),
(530,578,o),
(474,700,o),
(266,700,cs),
(69,700,l),
(73,260,l)
);
},
{
closed = 1;
nodes = (
(166,0,l),
(151,316,l),
(75,369,l),
(64,0,l)
);
},
{
closed = 1;
nodes = (
(155,323,l),
(158,638,l),
(252,640,ls),
(378,643,o),
(435,567,o),
(435,483,cs),
(435,383,o),
(361,317,o),
(254,320,cs)
);
}
);
width = 560;
}
);
unicode = 80;
}
{
glyphname = Q;
layers = (
{
anchors = (
{
name = bottom;
pos = (398,0);
},
{
name = top;
pos = (398,700);
}
);
layerId = m002;
shapes = (
{
closed = 1;
nodes = (
(237,710,o),
(45,556,o),
(45,350,cs),
(45,158,o),
(200,-10,o),
(386,-10,cs),
(558,-10,o),
(750,144,o),
(750,352,cs),
(750,541,o),
(585,710,o),
(409,710,cs)
);
},
{
closed = 1;
nodes = (
(134,561,o),
(270,636,o),
(386,636,cs),
(515,636,o),
(661,531,o),
(661,326,cs),
(661,139,o),
(524,64,o),
(408,64,cs),
(289,64,o),
(134,169,o),
(134,374,cs)
);
},
{
closed = 1;
nodes = (
(289,6,l),
(755,-156,l),
(782,-66,l),
(545,-18,o),
(428,4,o),
(310,51,c)
);
}
);
width = 795;
}
);
unicode = 81;
}
{
glyphname = R;
layers = (
{
layerId = m002;
shapes = (
{
closed = 1;
nodes = (
(254,280,ls),
(403,280,o),
(520,362,o),
(520,501,cs),
(520,578,o),
(474,700,o),
(266,700,cs),
(69,700,l),
(73,280,l)
);
},
{
closed = 1;
nodes = (
(166,0,l),
(151,336,l),
(75,389,l),
(64,0,l)
);
},
{
closed = 1;
nodes = (
(539,0,l),
(374,314,l),
(283,316,l),
(433,0,l)
);
},
{
closed = 1;
nodes = (
(155,343,l),
(158,638,l),
(252,640,ls),
(378,643,o),
(425,567,o),
(425,483,cs),
(425,383,o),
(361,337,o),
(254,340,cs)
);
}
);
width = 600;
},
{
background = {
shapes = (
{
closed = 1;
nodes = (
(254,280,ls),
(403,280,o),
(520,362,o),
(520,501,cs),
(520,578,o),
(474,700,o),
(266,700,cs),
(69,700,l),
(73,280,l)
);
},
{
closed = 1;
nodes = (
(166,0,l),
(151,336,l),
(75,389,l),
(64,0,l)
);
},
{
closed = 1;
nodes = (
(539,0,l),
(374,314,l),
(283,316,l),
(433,0,l)
);
},
{
closed = 1;
nodes = (
(155,343,l),
(158,638,l),
(252,640,ls),
(378,643,o),
(425,567,o),
(425,483,cs),
(425,383,o),
(361,337,o),
(254,340,cs)
);
}
);
};
layerId = m003;
shapes = (
{
closed = 1;
nodes = (
(254,280,ls),
(403,280,o),
(520,362,o),
(520,501,cs),
(520,578,o),
(474,700,o),
(266,700,cs),
(69,700,l),
(73,280,l)
);
},
{
closed = 1;
nodes = (
(176,0,l),
(161,336,l),
(75,389,l),
(64,0,l)
);
},
{
closed = 1;
nodes = (
(539,0,l),
(374,314,l),
(271,316,l),
(421,0,l)
);
},
{
closed = 1;
nodes = (
(165,353,l),
(168,628,l),
(252,630,ls),
(358,633,o),
(415,567,o),
(415,483,cs),
(415,383,o),
(341,347,o),
(254,350,cs)
);
}
);
width = 579;
},
{
layerId = "BB3F2C30-9513-40C8-8DEE-D83156CA2EC7";
shapes = (
{
closed = 1;
nodes = (
(254,280,ls),
(403,280,o),
(520,362,o),
(520,501,cs),
(520,578,o),
(474,700,o),
(266,700,cs),
(69,700,l),
(73,280,l)
);
},
{
closed = 1;
nodes = (
(186,0,l),
(171,336,l),
(75,389,l),
(64,0,l)
);
},
{
closed = 1;
nodes = (
(539,0,l),
(374,314,l),
(259,316,l),
(409,0,l)
);
},
{
closed = 1;
nodes = (
(175,363,l),
(178,618,l),
(252,620,ls),
(338,623,o),
(405,567,o),
(405,483,cs),
(405,383,o),
(321,357,o),
(254,360,cs)
);
}
);
width = 558;
}
);
unicode = 82;
}
{
glyphname = S;
layers = (
{
anchors = (
{
name = bottom;
pos = (291,0);
},
{
name = top;
pos = (291,700);
}
);
background = {
anchors = (
{
name = bottom;
pos = (291,0);
},
{
name = top;
pos = (291,700);
}
);
shapes = (
{
closed = 1;
nodes = (
(243,-96,o),
(536,5,o),
(536,186,cs),
(536,438,o),
(164,381,o),
(164,528,cs),
(164,650,o),
(332,676,o),
(459,582,c),
(507,648,l),
(455,690,o),
(395,710,o),
(336,710,cs),
(205,710,o),
(91,634,o),
(91,508,cs),
(91,305,o),
(455,363,o),
(455,182,cs),
(455,39,o),
(259,7,o),
(125,153,c),
(65,80,l)
);
}
);
};
layerId = m002;
shapes = (
{
closed = 1;
nodes = (
(233,-96,o),
(536,5,o),
(536,186,cs),
(536,438,o),
(164,381,o),
(164,528,cs),
(164,650,o),
(332,676,o),
(459,582,c),
(507,648,l),
(455,690,o),
(395,710,o),
(336,710,cs),
(205,710,o),
(91,634,o),
(91,508,cs),
(91,305,o),
(455,363,o),
(455,182,cs),
(455,39,o),
(249,7,o),
(115,153,c),
(55,80,l)
);
}
);
width = 581;
},
{
anchors = (
{
name = bottom;
pos = (226,0);
},
{
name = top;
pos = (375,700);
}
);
background = {
shapes = (
{
closed = 1;
nodes = (
(157,-96,o),
(472,5,o),
(510,186,cs),
(564,438,o),
(180,381,o),
(211,528,cs),
(237,650,o),
(411,676,o),
(518,582,c),
(580,648,l),
(537,690,o),
(481,710,o),
(422,710,cs),
(291,710,o),
(161,634,o),
(134,508,cs),
(91,305,o),
(467,363,o),
(429,182,cs),
(398,39,o),
(195,7,o),
(92,153,c),
(17,80,l)
);
}
);
};
layerId = m003;
shapes = (
{
closed = 1;
nodes = (
(179,-94,o),
(485,2,o),
(485,212,cs),
(485,423,o),
(199,384,o),
(199,512,cs),
(199,633,o),
(357,688,o),
(478,582,c),
(540,648,l),
(497,690,o),
(431,710,o),
(372,710,cs),
(221,710,o),
(121,615,o),
(121,487,cs),
(121,309,o),
(402,349,o),
(402,197,cs),
(402,54,o),
(202,-7,o),
(89,153,c),
(19,80,l)
);
}
);
width = 543;
},
{
anchors = (
{
name = bottom;
pos = (286,0);
},
{
name = top;
pos = (286,700);
}
);
background = {
shapes = (
{
closed = 1;
nodes = (
(223,-96,o),
(526,5,o),
(526,186,cs),
(526,438,o),
(154,381,o),
(154,528,cs),
(154,650,o),
(322,676,o),
(449,582,c),
(497,648,l),
(445,690,o),
(385,710,o),
(326,710,cs),
(195,710,o),
(81,634,o),
(81,508,cs),
(81,305,o),
(445,363,o),
(445,182,cs),
(445,39,o),
(239,7,o),
(105,153,c),
(45,80,l)
);
}
);
};
layerId = m004;
shapes = (
{
closed = 1;
nodes = (
(223,-96,o),
(526,5,o),
(526,216,cs),
(526,428,o),
(194,421,o),
(194,528,cs),
(194,650,o),
(342,616,o),
(419,542,c),
(497,648,l),
(445,690,o),
(385,710,o),
(326,710,cs),
(195,710,o),
(81,634,o),
(81,508,cs),
(81,305,o),
(405,323,o),
(405,182,cs),
(405,59,o),
(218,82,o),
(125,183,c),
(45,80,l)
);
}
);
width = 571;
},
{
anchors = (
{
name = bottom;
pos = (251,0);
},
{
name = top;
pos = (349,700);
}
);
background = {
shapes = (
{
closed = 1;
nodes = (
(223,-96,o),
(526,5,o),
(526,186,cs),
(526,438,o),
(154,381,o),
(154,528,cs),
(154,650,o),
(322,676,o),
(449,582,c),
(497,648,l),
(445,690,o),
(385,710,o),
(326,710,cs),
(195,710,o),
(81,634,o),
(81,508,cs),
(81,305,o),
(445,363,o),
(445,182,cs),
(445,39,o),
(239,7,o),
(105,153,c),
(45,80,l)
);
}
);
};
layerId = m005;
shapes = (
{
closed = 1;
nodes = (
(174,-96,o),
(492,5,o),
(521,216,cs),
(551,428,o),
(218,421,o),
(233,528,cs),
(250,650,o),
(393,616,o),
(460,542,c),
(553,648,l),
(507,690,o),
(450,710,o),
(391,710,cs),
(260,710,o),
(135,634,o),
(117,508,cs),
(89,305,o),
(415,323,o),
(395,182,cs),
(378,59,o),
(194,82,o),
(116,183,c),
(21,80,l)
);
}
);
width = 571;
},
{
anchors = (
{
name = bottom;
pos = (291,0);
},
{
name = top;
pos = (291,700);
}
);
background = {
shapes = (
{
closed = 1;
nodes = (
(233,-96,o),
(536,5,o),
(536,186,cs),
(536,438,o),
(164,381,o),
(164,528,cs),
(164,650,o),
(332,676,o),
(459,582,c),
(507,648,l),
(455,690,o),
(395,710,o),
(336,710,cs),
(205,710,o),
(91,634,o),
(91,508,cs),
(91,305,o),
(455,363,o),
(455,182,cs),
(455,39,o),
(249,7,o),
(115,153,c),
(55,80,l)
);
}
);
};
layerId = m006;
shapes = (
{
closed = 1;
nodes = (
(243,-86,o),
(536,-5,o),
(536,186,cs),
(536,423,o),
(129,341,o),
(129,528,cs),
(129,660,o),
(318,740,o),
(485,616,c),
(507,648,l),
(452,690,o),
(383,709,o),
(327,709,cs),
(213,709,o),
(95,634,o),
(95,521,cs),
(95,303,o),
(502,398,o),
(502,177,cs),
(502,9,o),
(229,-43,o),
(80,113,c),
(55,80,l)
);
}
);
width = 581;
},
{
anchors = (
{
name = bottom;
pos = (242,0);
},
{
name = top;
pos = (380,700);
}
);
background = {
shapes = (
{
closed = 1;
nodes = (
(233,-96,o),
(536,5,o),
(536,186,cs),
(536,438,o),
(164,381,o),
(164,528,cs),
(164,650,o),
(332,676,o),
(459,582,c),
(507,648,l),
(455,690,o),
(395,710,o),
(336,710,cs),
(205,710,o),
(91,634,o),
(91,508,cs),
(91,305,o),
(455,363,o),
(455,182,cs),
(455,39,o),
(249,7,o),
(115,153,c),
(55,80,l)
);
}
);
};
layerId = m007;
shapes = (
{
closed = 1;
nodes = (
(182,-86,o),
(486,-5,o),
(513,186,cs),
(546,423,o),
(128,341,o),
(154,528,cs),
(173,660,o),
(373,740,o),
(522,616,c),
(549,648,l),
(500,690,o),
(433,709,o),
(377,709,cs),
(263,709,o),
(135,634,o),
(119,521,cs),
(88,303,o),
(509,398,o),
(478,177,cs),
(454,9,o),
(174,-43,o),
(47,113,c),
(17,80,l)
);
}
);
width = 581;
}
);
unicode = 83;
}
{
glyphname = T;
layers = (
{
layerId = m002;
shapes = (
{
closed = 1;
nodes = (
(330,450,l),
(335,700,l),
(245,700,l),
(250,450,l),
(245,0,l),
(335,0,l)
);
},
{
closed = 1;
nodes = (
(0,700,l),
(0,620,l),
(190,640,l),
(260,635,l),
(260,700,l)
);
},
{
closed = 1;
nodes = (
(320,635,l),
(390,640,l),
(580,620,l),
(580,700,l),
(320,700,l)
);
}
);
width = 580;
},
{
layerId = m003;
shapes = (
{
closed = 1;
nodes = (
(340,450,l),
(345,700,l),
(245,700,l),
(250,450,l),
(245,0,l),
(345,0,l)
);
},
{
closed = 1;
nodes = (
(10,700,l),
(10,610,l),
(190,630,l),
(260,625,l),
(260,700,l)
);
},
{
closed = 1;
nodes = (
(330,625,l),
(400,630,l),
(580,610,l),
(580,700,l),
(330,700,l)
);
}
);
width = 590;
},
{
layerId = "BB3F2C30-9513-40C8-8DEE-D83156CA2EC7";
shapes = (
{
closed = 1;
nodes = (
(350,450,l),
(355,700,l),
(245,700,l),
(250,450,l),
(245,0,l),
(355,0,l)
);
},
{
closed = 1;
nodes = (
(20,700,l),
(20,600,l),
(190,620,l),
(260,615,l),
(260,700,l)
);
},
{
closed = 1;
nodes = (
(340,615,l),
(410,620,l),
(580,600,l),
(580,700,l),
(340,700,l)
);
}
);
width = 600;
}
);
unicode = 84;
}
{
glyphname = U;
layers = (
{
layerId = m002;
shapes = (
{
closed = 1;
nodes = (
(632,700,l),
(546,700,l),
(556,320,ls),
(561,126,o),
(453,64,o),
(347,64,cs),
(249,64,o),
(141,111,o),
(146,320,cs),
(156,700,l),
(65,700,l),
(60,300,ls),
(57,95,o),
(178,-10,o),
(339,-10,cs),
(487,-10,o),
(624,93,o),
(627,302,cs)
);
}
);
width = 697;
},
{
background = {
shapes = (
{
closed = 1;
nodes = (
(632,700,l),
(546,700,l),
(556,320,ls),
(561,126,o),
(453,64,o),
(347,64,cs),
(249,64,o),
(141,111,o),
(146,320,cs),
(156,700,l),
(65,700,l),
(60,300,ls),
(57,95,o),
(178,-10,o),
(339,-10,cs),
(487,-10,o),
(624,93,o),
(627,302,cs)
);
}
);
};
layerId = m003;
shapes = (
{
closed = 1;
nodes = (
(632,700,l),
(536,700,l),
(546,320,ls),
(551,146,o),
(453,74,o),
(347,74,cs),
(249,74,o),
(151,131,o),
(156,320,cs),
(166,700,l),
(65,700,l),
(60,300,ls),
(57,95,o),
(178,-10,o),
(339,-10,cs),
(487,-10,o),
(624,93,o),
(627,302,cs)
);
}
);
width = 697;
},
{
layerId = "BB3F2C30-9513-40C8-8DEE-D83156CA2EC7";
shapes = (
{
closed = 1;
nodes = (
(632,700,l),
(526,700,l),
(536,320,ls),
(541,166,o),
(453,84,o),
(347,84,cs),
(249,84,o),
(161,151,o),
(166,320,cs),
(176,700,l),
(65,700,l),
(60,300,ls),
(57,95,o),
(178,-10,o),
(339,-10,cs),
(487,-10,o),
(624,93,o),
(627,302,cs)
);
}
);
width = 697;
}
);
unicode = 85;
}
{
glyphname = V;
layers = (
{
layerId = m002;
shapes = (
{
closed = 1;
nodes = (
(354,-2,l),
(372,65,l),
(636,700,l),
(546,700,l),
(333,99,l),
(118,700,l),
(20,700,l),
(288,-16,l)
);
}
);
width = 616;
}
);
unicode = 86;
}
{
glyphname = W;
layers = (
{
layerId = m002;
shapes = (
{
closed = 1;
nodes = (
(284,-2,l),
(302,65,l),
(478,555,l),
(668,-16,l),
(734,-2,l),
(752,65,l),
(951,700,l),
(861,700,l),
(714,102,l),
(521,716,l),
(455,702,l),
(437,635,l),
(263,99,l),
(98,700,l),
(0,700,l),
(218,-16,l)
);
}
);
width = 951;
},
{
background = {
shapes = (
{
closed = 1;
nodes = (
(284,-2,l),
(302,65,l),
(478,555,l),
(668,-16,l),
(734,-2,l),
(752,65,l),
(951,700,l),
(861,700,l),
(714,102,l),
(521,716,l),
(455,702,l),
(437,635,l),
(263,99,l),
(98,700,l),
(0,700,l),
(218,-16,l)
);
}
);
};
layerId = m003;
shapes = (
{
closed = 1;
nodes = (
(284,-2,l),
(302,65,l),
(473,540,l),
(658,-16,l),
(734,-2,l),
(752,65,l),
(951,700,l),
(851,700,l),
(709,119,l),
(521,716,l),
(445,702,l),
(427,635,l),
(263,129,l),
(108,700,l),
(0,700,l),
(218,-16,l)
);
}
);
width = 951;
},
{
layerId = "BB3F2C30-9513-40C8-8DEE-D83156CA2EC7";
shapes = (
{
closed = 1;
nodes = (
(284,-2,l),
(302,65,l),
(468,525,l),
(648,-16,l),
(734,-2,l),
(752,65,l),
(951,700,l),
(841,700,l),
(704,136,l),
(521,716,l),
(435,702,l),
(417,635,l),
(263,159,l),
(118,700,l),
(0,700,l),
(218,-16,l)
);
}
);
width = 951;
}
);
unicode = 87;
}
{
glyphname = X;
layers = (
{
layerId = m002;
shapes = (
{
closed = 1;
nodes = (
(283,375,l),
(5,0,l),
(105,0,l),
(321,324,l)
);
},
{
closed = 1;
nodes = (
(128,700,l),
(10,700,l),
(271,338,l),
(482,0,l),
(600,0,l),
(339,372,l)
);
},
{
closed = 1;
nodes = (
(328,325,l),
(606,700,l),
(506,700,l),
(290,376,l)
);
}
);
width = 611;
},
{
layerId = m003;
shapes = (
{
closed = 1;
nodes = (
(278,375,l),
(0,0,l),
(110,0,l),
(326,324,l)
);
},
{
closed = 1;
nodes = (
(133,700,l),
(5,700,l),
(266,338,l),
(477,0,l),
(605,0,l),
(344,372,l)
);
},
{
closed = 1;
nodes = (
(333,325,l),
(611,700,l),
(501,700,l),
(285,376,l)
);
}
);
width = 611;
},
{
layerId = "BB3F2C30-9513-40C8-8DEE-D83156CA2EC7";
shapes = (
{
closed = 1;
nodes = (
(273,375,l),
(-5,0,l),
(115,0,l),
(331,324,l)
);
},
{
closed = 1;
nodes = (
(138,700,l),
(0,700,l),
(261,338,l),
(472,0,l),
(610,0,l),
(349,372,l)
);
},
{
closed = 1;
nodes = (
(338,325,l),
(616,700,l),
(496,700,l),
(280,376,l)
);
}
);
width = 611;
}
);
unicode = 88;
}
{
glyphname = Y;
layers = (
{
layerId = m002;
shapes = (
{
closed = 1;
nodes = (
(301,258,l),
(586,700,l),
(496,700,l),
(298,359,l),
(108,700,l),
(10,700,l),
(253,264,l)
);
},
{
closed = 1;
nodes = (
(243,0,l),
(333,0,l),
(328,330,l),
(243,330,l)
);
}
);
width = 596;
},
{
background = {
shapes = (
{
closed = 1;
nodes = (
(301,258,l),
(586,700,l),
(496,700,l),
(298,359,l),
(108,700,l),
(10,700,l),
(253,264,l)
);
},
{
closed = 1;
nodes = (
(238,0,l),
(338,0,l),
(333,330,l),
(238,330,l)
);
}
);
};
layerId = m003;
shapes = (
{
closed = 1;
nodes = (
(301,258,l),
(586,700,l),
(483,700,l),
(299,374,l),
(121,700,l),
(10,700,l),
(253,264,l)
);
},
{
closed = 1;
nodes = (
(238,0,l),
(338,0,l),
(333,330,l),
(238,330,l)
);
}
);
width = 596;
},
{
layerId = "BB3F2C30-9513-40C8-8DEE-D83156CA2EC7";
shapes = (
{
closed = 1;
nodes = (
(301,258,l),
(586,700,l),
(470,700,l),
(300,389,l),
(134,700,l),
(10,700,l),
(253,264,l)
);
},
{
closed = 1;
nodes = (
(233,0,l),
(343,0,l),
(338,330,l),
(233,330,l)
);
}
);
width = 596;
}
);
unicode = 89;
}
{
glyphname = bracketleft;
layers = (
{
layerId = m002;
shapes = (
{
closed = 1;
nodes = (
(50,-145,l),
(240,-163,l),
(245,-123,l),
(130,-95,l),
(130,755,l),
(245,783,l),
(240,823,l),
(50,805,l)
);
}
);
width = 265;
},
{
layerId = m003;
shapes = (
{
closed = 1;
nodes = (
(50,-145,l),
(240,-163,l),
(245,-123,l),
(130,-95,l),
(130,755,l),
(245,783,l),
(240,823,l),
(50,805,l)
);
}
);
width = 265;
},
{
layerId = m004;
shapes = (
{
closed = 1;
nodes = (
(50,-165,l),
(270,-183,l),
(275,-113,l),
(170,-95,l),
(170,755,l),
(275,773,l),
(270,843,l),
(50,825,l)
);
}
);
width = 295;
},
{
layerId = m005;
shapes = (
{
closed = 1;
nodes = (
(50,-165,l),
(270,-183,l),
(275,-113,l),
(170,-95,l),
(170,755,l),
(275,773,l),
(270,843,l),
(50,825,l)
);
}
);
width = 295;
},
{
layerId = m006;
shapes = (
{
closed = 1;
nodes = (
(50,-145,l),
(240,-163,l),
(245,-123,l),
(130,-95,l),
(130,755,l),
(245,783,l),
(240,823,l),
(50,805,l)
);
}
);
width = 265;
}
);
unicode = 91;
}
{
glyphname = asciicircum;
layers = (
{
layerId = m002;
shapes = (
{
closed = 1;
nodes = (
(220,765,l),
(60,470,l),
(125,435,l),
(240,676,l),
(345,435,l),
(420,470,l),
(260,765,l)
);
}
);
width = 480;
},
{
layerId = m003;
shapes = (
{
closed = 1;
nodes = (
(220,765,l),
(60,470,l),
(125,435,l),
(240,676,l),
(345,435,l),
(420,470,l),
(260,765,l)
);
}
);
width = 480;
},
{
layerId = m004;
shapes = (
{
closed = 1;
nodes = (
(210,765,l),
(60,470,l),
(165,435,l),
(240,616,l),
(305,435,l),
(420,470,l),
(270,765,l)
);
}
);
width = 480;
},
{
layerId = m005;
shapes = (
{
closed = 1;
nodes = (
(210,765,l),
(60,470,l),
(165,435,l),
(240,616,l),
(305,435,l),
(420,470,l),
(270,765,l)
);
}
);
width = 480;
},
{
layerId = m006;
shapes = (
{
closed = 1;
nodes = (
(230,765,l),
(60,470,l),
(85,455,l),
(240,736,l),
(395,455,l),
(420,470,l),
(250,765,l)
);
}
);
width = 480;
},
{
layerId = m007;
shapes = (
{
closed = 1;
nodes = (
(230,765,l),
(60,470,l),
(85,455,l),
(240,736,l),
(395,455,l),
(420,470,l),
(250,765,l)
);
}
);
width = 480;
}
);
unicode = 94;
}
{
glyphname = underscore;
layers = (
{
layerId = m002;
shapes = (
{
closed = 1;
nodes = (
(600,-90,l),
(300,-95,l),
(0,-90,l),
(0,-170,l),
(300,-165,l),
(600,-170,l)
);
}
);
width = 600;
},
{
layerId = m003;
shapes = (
{
closed = 1;
nodes = (
(600,-90,l),
(300,-95,l),
(0,-90,l),
(0,-170,l),
(300,-165,l),
(600,-170,l)
);
}
);
width = 600;
},
{
layerId = m004;
shapes = (
{
closed = 1;
nodes = (
(600,-90,l),
(300,-95,l),
(0,-90,l),
(0,-190,l),
(300,-185,l),
(600,-190,l)
);
}
);
width = 600;
},
{
layerId = m005;
shapes = (
{
closed = 1;
nodes = (
(600,-90,l),
(300,-95,l),
(0,-90,l),
(0,-190,l),
(300,-185,l),
(600,-190,l)
);
}
);
width = 600;
},
{
layerId = m006;
shapes = (
{
closed = 1;
nodes = (
(600,-92,l),
(300,-95,l),
(0,-92,l),
(0,-128,l),
(300,-125,l),
(600,-128,l)
);
}
);
width = 600;
}
);
unicode = 95;
}
{
glyphname = a;
layers = (
{
background = {
shapes = (
{
closed = 1;
nodes = (
(423,10,l),
(413,205,l),
(418,340,ls),
(421,427,o),
(360,520,o),
(253,520,cs),
(223,520,o),
(166,500,o),
(88,450,c),
(88,400,l),
(230,471,o),
(350,451,o),
(343,300,cs),
(333,89,l),
(338,-10,l)
);
},
{
closed = 1;
nodes = (
(251,-10,o),
(297,27,o),
(335,75,c),
(338,133,l),
(320,94,o),
(276,62,o),
(220,61,cs),
(165,60,o),
(139,98,o),
(139,137,cs),
(139,172,o),
(160,208,o),
(218,223,cs),
(343,255,l),
(343,298,l),
(200,280,ls),
(98,267,o),
(50,195,o),
(50,122,cs),
(50,37,o),
(113,-10,o),
(181,-10,cs)
);
}
);
};
layerId = m002;
shapes = (
{
closed = 1;
nodes = (
(423,10,l),
(413,205,l),
(418,340,ls),
(421,427,o),
(360,520,o),
(253,520,cs),
(223,520,o),
(166,500,o),
(88,450,c),
(88,400,l),
(230,471,o),
(350,451,o),
(343,300,cs),
(333,89,l),
(338,-10,l)
);
},
{
closed = 1;
nodes = (
(251,-10,o),
(297,27,o),
(335,75,c),
(358,162,l),
(320,94,o),
(276,62,o),
(220,61,cs),
(165,60,o),
(139,98,o),
(139,137,cs),
(139,172,o),
(160,208,o),
(218,223,cs),
(363,260,l),
(363,301,l),
(200,280,ls),
(98,267,o),
(50,195,o),
(50,122,cs),
(50,37,o),
(113,-10,o),
(181,-10,cs)
);
}
);
width = 483;
},
{
background = {
shapes = (
{
closed = 1;
nodes = (
(423,10,l),
(413,205,l),
(418,340,ls),
(421,427,o),
(360,520,o),
(253,520,cs),
(223,520,o),
(166,500,o),
(88,450,c),
(88,400,l),
(230,471,o),
(350,451,o),
(343,300,cs),
(333,89,l),
(338,-10,l)
);
},
{
closed = 1;
nodes = (
(251,-10,o),
(297,27,o),
(335,75,c),
(358,162,l),
(320,94,o),
(276,62,o),
(220,61,cs),
(165,60,o),
(139,98,o),
(139,137,cs),
(139,172,o),
(160,208,o),
(218,223,cs),
(363,260,l),
(363,301,l),
(200,280,ls),
(98,267,o),
(50,195,o),
(50,122,cs),
(50,37,o),
(113,-10,o),
(181,-10,cs)
);
}
);
};
layerId = m003;
shapes = (
{
closed = 1;
nodes = (
(423,10,l),
(413,205,l),
(418,340,ls),
(421,427,o),
(360,520,o),
(253,520,cs),
(223,520,o),
(166,500,o),
(88,450,c),
(88,390,l),
(214,453,o),
(340,451,o),
(333,300,cs),
(323,89,l),
(328,-10,l)
);
},
{
closed = 1;
nodes = (
(251,-10,o),
(297,27,o),
(335,75,c),
(358,162,l),
(320,94,o),
(276,72,o),
(220,71,cs),
(185,70,o),
(149,98,o),
(149,137,cs),
(149,162,o),
(160,198,o),
(218,213,cs),
(363,250,l),
(363,301,l),
(200,280,ls),
(98,267,o),
(50,195,o),
(50,122,cs),
(50,37,o),
(113,-10,o),
(181,-10,cs)
);
}
);
width = 483;
},
{
layerId = "BB3F2C30-9513-40C8-8DEE-D83156CA2EC7";
shapes = (
{
closed = 1;
nodes = (
(423,10,l),
(413,205,l),
(418,340,ls),
(421,427,o),
(360,520,o),
(253,520,cs),
(223,520,o),
(166,500,o),
(88,450,c),
(88,380,l),
(198,435,o),
(330,451,o),
(323,300,cs),
(313,89,l),
(318,-10,l)
);
},
{
closed = 1;
nodes = (
(251,-10,o),
(297,27,o),
(335,75,c),
(358,162,l),
(320,94,o),
(276,82,o),
(220,81,cs),
(205,80,o),
(159,98,o),
(159,137,cs),
(159,152,o),
(160,188,o),
(218,203,cs),
(363,240,l),
(363,301,l),
(200,280,ls),
(98,267,o),
(50,195,o),
(50,122,cs),
(50,37,o),
(113,-10,o),
(181,-10,cs)
);
}
);
width = 483;
}
);
unicode = 97;
}
{
glyphname = b;
layers = (
{
background = {
shapes = (
{
closed = 1;
nodes = (
(498,230,l),
(521,397,o),
(420,520,o),
(313,520,cs),
(283,520,o),
(226,500,o),
(148,450,c),
(148,400,l),
(300,491,o),
(430,421,o),
(423,190,c)
);
},
{
closed = 1;
nodes = (
(417,-8,o),
(487,187,c),
(414,153,l),
(381,42,o),
(259,20,o),
(146,70,c),
(75,20,l),
(265,-46,o)
);
},
{
closed = 1;
nodes = (
(160,60,l),
(155,250,l),
(155,760,l),
(65,740,l),
(75,550,l),
(75,20,l)
);
}
);
};
layerId = m002;
shapes = (
{
closed = 1;
nodes = (
(359,55,o),
(278,55,cs),
(240,55,o),
(195,69,o),
(146,100,c),
(65,30,l),
(133,3,o),
(189,-10,o),
(241,-10,cs),
(375,-10,o),
(492,116,o),
(492,272,cs),
(492,429,o),
(399,520,o),
(313,520,cs),
(283,520,o),
(226,500,o),
(148,450,c),
(148,400,l),
(192,426,o),
(233,445,o),
(270,445,cs),
(353,445,o),
(409,372,o),
(409,214,cs),
(409,140,o)
);
},
{
closed = 1;
nodes = (
(160,30,l),
(155,250,l),
(155,760,l),
(65,740,l),
(75,550,l),
(75,270,l),
(65,30,l)
);
}
);
width = 542;
},
{
background = {
shapes = (
{
closed = 1;
nodes = (
(359,55,o),
(278,55,cs),
(240,55,o),
(195,69,o),
(146,100,c),
(65,30,l),
(133,3,o),
(189,-10,o),
(241,-10,cs),
(375,-10,o),
(492,116,o),
(492,272,cs),
(492,429,o),
(399,520,o),
(313,520,cs),
(283,520,o),
(226,500,o),
(148,450,c),
(148,400,l),
(192,426,o),
(233,445,o),
(270,445,cs),
(353,445,o),
(409,372,o),
(409,214,cs),
(409,140,o)
);
},
{
closed = 1;
nodes = (
(160,30,l),
(155,250,l),
(155,760,l),
(65,740,l),
(75,550,l),
(75,270,l),
(65,30,l)
);
}
);
};
layerId = m003;
shapes = (
{
closed = 1;
nodes = (
(349,65,o),
(278,65,cs),
(240,65,o),
(195,79,o),
(146,110,c),
(65,30,l),
(133,3,o),
(189,-10,o),
(241,-10,cs),
(375,-10,o),
(492,116,o),
(492,272,cs),
(492,429,o),
(399,520,o),
(313,520,cs),
(283,520,o),
(226,500,o),
(148,450,c),
(148,390,l),
(192,416,o),
(233,435,o),
(270,435,cs),
(333,435,o),
(399,372,o),
(399,214,cs),
(399,130,o)
);
},
{
closed = 1;
nodes = (
(170,30,l),
(165,250,l),
(165,760,l),
(65,740,l),
(75,550,l),
(75,270,l),
(65,30,l)
);
}
);
width = 542;
},
{
layerId = "BB3F2C30-9513-40C8-8DEE-D83156CA2EC7";
shapes = (
{
closed = 1;
nodes = (
(339,75,o),
(278,75,cs),
(240,75,o),
(195,89,o),
(146,120,c),
(65,30,l),
(133,3,o),
(189,-10,o),
(241,-10,cs),
(375,-10,o),
(492,116,o),
(492,272,cs),
(492,429,o),
(399,520,o),
(313,520,cs),
(283,520,o),
(226,500,o),
(148,450,c),
(148,380,l),
(192,406,o),
(233,425,o),
(270,425,cs),
(313,425,o),
(389,372,o),
(389,214,cs),
(389,120,o)
);
},
{
closed = 1;
nodes = (
(180,30,l),
(175,250,l),
(175,760,l),
(65,740,l),
(75,550,l),
(75,270,l),
(65,30,l)
);
}
);
width = 542;
}
);
unicode = 98;
}
{
glyphname = c;
layers = (
{
layerId = m002;
shapes = (
{
closed = 1;
nodes = (
(121,116,o),
(121,261,cs),
(121,457,o),
(258,448,o),
(379,410,c),
(391,494,l),
(357,505,o),
(322,510,o),
(289,510,cs),
(155,510,o),
(38,389,o),
(38,233,cs),
(38,100,o),
(108,-10,o),
(227,-10,cs),
(277,-10,o),
(324,10,o),
(412,70,c),
(392,110,l),
(216,15,o)
);
}
);
width = 432;
}
);
unicode = 99;
}
{
glyphname = d;
layers = (
{
layerId = m002;
shapes = (
{
closed = 1;
nodes = (
(259,-20,o),
(316,0,o),
(394,70,c),
(394,120,l),
(350,74,o),
(309,55,o),
(272,55,cs),
(199,55,o),
(133,148,o),
(133,256,cs),
(133,380,o),
(183,450,o),
(264,450,cs),
(302,450,o),
(347,436,o),
(396,415,c),
(457,475,l),
(409,492,o),
(353,515,o),
(301,515,cs),
(167,515,o),
(50,404,o),
(50,248,cs),
(50,91,o),
(143,-20,o),
(229,-20,cs)
);
},
{
closed = 1;
nodes = (
(470,10,l),
(460,200,l),
(460,760,l),
(370,740,l),
(390,450,l),
(380,-10,l)
);
}
);
width = 535;
}
);
unicode = 100;
}
{
glyphname = e;
layers = (
{
anchors = (
{
name = bottom;
pos = (257,0);
},
{
name = ogonek;
pos = (454,70);
},
{
name = top;
pos = (277,500);
}
);
background = {
anchors = (
{
name = bottom;
pos = (257,0);
},
{
name = ogonek;
pos = (454,70);
},
{
name = top;
pos = (257,500);
}
);
shapes = (
{
closed = 1;
nodes = (
(258,15,o),
(143,101,o),
(143,256,cs),
(143,413,o),
(209,449,o),
(262,449,cs),
(308,449,o),
(358,407,o),
(360,328,c),
(442,328,l),
(438,456,o),
(354,520,o),
(282,520,cs),
(181,520,o),
(60,414,o),
(60,231,cs),
(60,118,o),
(140,-10,o),
(259,-10,cs),
(309,-10,o),
(366,10,o),
(454,70,c),
(434,110,l)
);
},
{
closed = 1;
nodes = (
(109,288,l),
(442,288,l),
(442,328,l),
(389,343,l),
(109,333,l)
);
}
);
};
layerId = m002;
shapes = (
{
closed = 1;
nodes = (
(258,15,o),
(143,101,o),
(143,256,cs),
(143,413,o),
(209,449,o),
(262,449,cs),
(308,449,o),
(358,407,o),
(360,328,c),
(442,328,l),
(438,456,o),
(354,520,o),
(282,520,cs),
(181,520,o),
(60,414,o),
(60,231,cs),
(60,118,o),
(140,-10,o),
(259,-10,cs),
(309,-10,o),
(366,10,o),
(454,70,c),
(434,110,l)
);
},
{
closed = 1;
nodes = (
(109,288,l),
(442,288,l),
(442,328,l),
(389,343,l),
(109,333,l)
);
}
);
width = 514;
},
{
anchors = (
{
name = bottom;
pos = (202,0);
},
{
name = ogonek;
pos = (409,70);
},
{
name = top;
pos = (272,500);
}
);
background = {
shapes = (
{
closed = 1;
nodes = (
(205,15,o),
(102,101,o),
(124,256,cs),
(146,413,o),
(217,449,o),
(250,449,cs),
(316,449,o),
(360,407,o),
(351,328,c),
(433,328,l),
(447,456,o),
(372,515,o),
(280,515,cs),
(199,515,o),
(63,414,o),
(40,251,cs),
(21,118,o),
(83,-10,o),
(202,-10,cs),
(252,-10,o),
(312,10,o),
(409,70,c),
(394,110,l)
);
},
{
closed = 1;
nodes = (
(94,288,l),
(427,288,l),
(433,328,l),
(382,343,l),
(101,333,l)
);
}
);
};
layerId = m003;
shapes = (
{
closed = 1;
nodes = (
(205,15,o),
(102,101,o),
(124,256,cs),
(146,413,o),
(207,449,o),
(260,449,cs),
(306,449,o),
(360,407,o),
(351,328,c),
(433,328,l),
(447,456,o),
(357,515,o),
(285,515,cs),
(184,515,o),
(63,414,o),
(40,251,cs),
(21,118,o),
(83,-10,o),
(202,-10,cs),
(252,-10,o),
(312,10,o),
(409,70,c),
(394,110,l)
);
},
{
closed = 1;
nodes = (
(94,288,l),
(427,288,l),
(433,328,l),
(382,343,l),
(101,333,l)
);
}
);
width = 474;
},
{
anchors = (
{
name = bottom;
pos = (242,0);
},
{
name = ogonek;
pos = (444,80);
},
{
name = top;
pos = (257,510);
}
);
background = {
anchors = (
{
name = bottom;
pos = (237,0);
},
{
name = ogonek;
pos = (434,70);
},
{
name = top;
pos = (237,500);
}
);
shapes = (
{
closed = 1;
nodes = (
(238,15,o),
(123,101,o),
(123,256,cs),
(123,413,o),
(189,449,o),
(242,449,cs),
(288,449,o),
(338,407,o),
(340,328,c),
(422,328,l),
(418,456,o),
(334,520,o),
(262,520,cs),
(161,520,o),
(40,414,o),
(40,231,cs),
(40,118,o),
(120,-10,o),
(239,-10,cs),
(289,-10,o),
(346,10,o),
(434,70,c),
(414,110,l)
);
},
{
closed = 1;
nodes = (
(89,288,l),
(422,288,l),
(422,328,l),
(369,343,l),
(89,333,l)
);
}
);
};
layerId = m004;
shapes = (
{
closed = 1;
nodes = (
(268,45,o),
(153,101,o),
(153,256,cs),
(153,371,o),
(171,432,o),
(238,432,cs),
(282,432,o),
(310,399,o),
(310,328,c),
(432,328,l),
(428,456,o),
(334,520,o),
(262,520,cs),
(161,520,o),
(40,414,o),
(40,231,cs),
(40,118,o),
(100,-10,o),
(239,-10,cs),
(289,-10,o),
(346,10,o),
(444,80,c),
(414,140,l)
);
},
{
closed = 1;
nodes = (
(89,268,l),
(432,268,l),
(432,328,l),
(369,353,l),
(89,333,l)
);
}
);
width = 484;
},
{
anchors = (
{
name = bottom;
pos = (207,0);
},
{
name = ogonek;
pos = (420,80);
},
{
name = top;
pos = (294,510);
}
);
background = {
anchors = (
{
name = bottom;
pos = (237,0);
},
{
name = ogonek;
pos = (434,70);
},
{
name = top;
pos = (237,500);
}
);
shapes = (
{
closed = 1;
nodes = (
(238,15,o),
(123,101,o),
(123,256,cs),
(123,413,o),
(189,449,o),
(242,449,cs),
(288,449,o),
(338,407,o),
(340,328,c),
(422,328,l),
(418,456,o),
(334,520,o),
(262,520,cs),
(161,520,o),
(40,414,o),
(40,231,cs),
(40,118,o),
(120,-10,o),
(239,-10,cs),
(289,-10,o),
(346,10,o),
(434,70,c),
(414,110,l)
);
},
{
closed = 1;
nodes = (
(89,288,l),
(422,288,l),
(422,328,l),
(369,343,l),
(89,333,l)
);
}
);
};
layerId = m005;
shapes = (
{
closed = 1;
nodes = (
(239,45,o),
(132,101,o),
(154,256,cs),
(170,371,o),
(197,432,o),
(264,432,cs),
(308,432,o),
(331,399,o),
(321,328,c),
(443,328,l),
(457,456,o),
(372,520,o),
(300,520,cs),
(199,520,o),
(63,414,o),
(37,231,cs),
(21,118,o),
(63,-10,o),
(202,-10,cs),
(252,-10,o),
(312,10,o),
(420,80,c),
(399,140,l)
);
},
{
closed = 1;
nodes = (
(92,268,l),
(435,268,l),
(443,328,l),
(383,353,l),
(101,333,l)
);
}
);
width = 484;
},
{
anchors = (
{
name = bottom;
pos = (237,0);
},
{
name = ogonek;
pos = (434,70);
},
{
name = top;
pos = (257,500);
}
);
background = {
shapes = (
{
closed = 1;
nodes = (
(238,15,o),
(123,101,o),
(123,256,cs),
(123,413,o),
(189,449,o),
(242,449,cs),
(288,449,o),
(338,407,o),
(340,328,c),
(422,328,l),
(418,456,o),
(334,520,o),
(262,520,cs),
(161,520,o),
(40,414,o),
(40,231,cs),
(40,118,o),
(120,-10,o),
(239,-10,cs),
(289,-10,o),
(346,10,o),
(434,70,c),
(414,110,l)
);
},
{
closed = 1;
nodes = (
(89,288,l),
(422,288,l),
(422,328,l),
(369,343,l),
(89,333,l)
);
}
);
};
layerId = m006;
shapes = (
{
closed = 1;
nodes = (
(186,-68,o),
(73,111,o),
(73,256,cs),
(73,413,o),
(169,490,o),
(242,490,cs),
(308,490,o),
(382,447,o),
(389,308,c),
(422,308,l),
(418,456,o),
(334,520,o),
(252,520,cs),
(141,520,o),
(37,414,o),
(37,231,cs),
(37,118,o),
(120,-10,o),
(239,-10,cs),
(289,-10,o),
(346,10,o),
(424,60,c),
(412,82,l)
);
},
{
closed = 1;
nodes = (
(69,288,l),
(422,288,l),
(422,308,l),
(409,318,l),
(69,313,l)
);
}
);
width = 464;
},
{
anchors = (
{
name = bottom;
pos = (188,0);
},
{
name = ogonek;
pos = (395,70);
},
{
name = top;
pos = (278,500);
}
);
background = {
shapes = (
{
closed = 1;
nodes = (
(238,15,o),
(123,101,o),
(123,256,cs),
(123,413,o),
(189,449,o),
(242,449,cs),
(288,449,o),
(338,407,o),
(340,328,c),
(422,328,l),
(418,456,o),
(334,520,o),
(262,520,cs),
(161,520,o),
(40,414,o),
(40,231,cs),
(40,118,o),
(120,-10,o),
(239,-10,cs),
(289,-10,o),
(346,10,o),
(434,70,c),
(414,110,l)
);
},
{
closed = 1;
nodes = (
(89,288,l),
(422,288,l),
(422,328,l),
(369,343,l),
(89,333,l)
);
}
);
};
layerId = m007;
shapes = (
{
closed = 1;
nodes = (
(127,-68,o),
(39,111,o),
(60,256,cs),
(82,413,o),
(189,490,o),
(262,490,cs),
(328,490,o),
(396,447,o),
(383,308,c),
(416,308,l),
(433,456,o),
(358,520,o),
(276,520,cs),
(165,520,o),
(46,414,o),
(20,231,cs),
(4,118,o),
(69,-10,o),
(188,-10,cs),
(238,-10,o),
(298,10,o),
(383,60,c),
(374,82,l)
);
},
{
closed = 1;
nodes = (
(60,288,l),
(413,288,l),
(416,308,l),
(405,318,l),
(64,313,l)
);
}
);
width = 464;
}
);
unicode = 101;
}
{
glyphname = f;
layers = (
{
anchors = (
{
name = bottom;
pos = (163,0);
},
{
name = top;
pos = (163,750);
}
);
layerId = m002;
shapes = (
{
closed = 1;
nodes = (
(174,659,o),
(203,687,o),
(324,668,c),
(325,758,l),
(207,782,o),
(97,665,o),
(101,546,cs),
(110,240,l),
(110,0,l),
(200,0,l),
(185,340,l),
(190,468,l),
(181,573,ls)
);
},
{
closed = 1;
nodes = (
(23,450,l),
(298,450,l),
(303,518,l),
(20,500,l)
);
}
);
width = 325;
}
);
unicode = 102;
}
{
color = 4;
glyphname = g;
layers = (
{
anchors = (
{
name = bottom;
pos = (277,-300);
},
{
name = top;
pos = (297,500);
}
);
background = {
anchors = (
{
name = bottom;
pos = (277,-300);
},
{
name = top;
pos = (297,500);
}
);
shapes = (
{
closed = 1;
nodes = (
(400,-211,o),
(317,-229,o),
(96,-190,c),
(115,-280,l),
(333,-324,o),
(477,-207,o),
(468,-38,cs),
(460,110,l),
(465,520,l),
(370,500,l),
(385,270,l),
(375,72,l),
(389,-85,ls)
);
},
{
closed = 1;
nodes = (
(143,380,o),
(193,450,o),
(274,450,cs),
(312,450,o),
(357,436,o),
(406,415,c),
(457,475,l),
(419,492,o),
(363,515,o),
(311,515,cs),
(177,515,o),
(60,404,o),
(60,248,cs),
(60,91,o),
(153,-20,o),
(239,-20,cs),
(269,-20,o),
(326,0,o),
(404,50,c),
(404,100,l),
(360,74,o),
(319,55,o),
(282,55,cs),
(209,55,o),
(143,148,o),
(143,256,cs)
);
}
);
};
layerId = m002;
shapes = (
{
closed = 1;
nodes = (
(333,-324,o),
(477,-207,o),
(468,-38,cs),
(460,110,l),
(465,520,l),
(370,500,l),
(385,270,l),
(375,72,l),
(389,-85,ls),
(400,-211,o),
(317,-229,o),
(96,-190,c),
(115,-280,l)
);
},
{
closed = 1;
nodes = (
(269,-20,o),
(326,0,o),
(404,50,c),
(404,100,l),
(360,74,o),
(319,55,o),
(282,55,cs),
(209,55,o),
(143,148,o),
(143,256,cs),
(143,380,o),
(193,450,o),
(274,450,cs),
(312,450,o),
(357,436,o),
(406,415,c),
(457,475,l),
(419,492,o),
(363,515,o),
(311,515,cs),
(177,515,o),
(60,404,o),
(60,248,cs),
(60,91,o),
(153,-20,o),
(239,-20,cs)
);
}
);
width = 533;
},
{
anchors = (
{
name = bottom;
pos = (297,-300);
},
{
name = top;
pos = (319,500);
}
);
background = {
shapes = (
{
closed = 1;
nodes = (
(232,-324,o),
(393,-207,o),
(408,-38,cs),
(420,110,l),
(483,520,l),
(385,500,l),
(368,270,l),
(330,72,l),
(322,-85,ls),
(315,-211,o),
(230,-229,o),
(14,-190,c),
(21,-280,l)
);
},
{
closed = 1;
nodes = (
(211,-20,o),
(271,0,o),
(356,50,c),
(363,100,l),
(315,74,o),
(272,55,o),
(235,55,cs),
(162,55,o),
(109,148,o),
(124,256,cs),
(141,380,o),
(201,450,o),
(282,450,cs),
(320,450,o),
(363,436,o),
(409,415,c),
(469,475,l),
(433,492,o),
(380,515,o),
(328,515,cs),
(194,515,o),
(62,404,o),
(40,248,cs),
(18,91,o),
(95,-20,o),
(181,-20,cs)
);
}
);
};
layerId = m003;
shapes = (
{
closed = 1;
nodes = (
(232,-324,o),
(394,-207,o),
(408,-38,cs),
(420,110,l),
(483,520,l),
(385,500,l),
(368,270,l),
(335,72,l),
(322,-85,ls),
(312,-211,o),
(230,-229,o),
(14,-190,c),
(21,-280,l)
);
},
{
closed = 1;
nodes = (
(211,-20,o),
(271,-5,o),
(369,69,c),
(376,130,l),
(315,74,o),
(262,51,o),
(225,51,cs),
(142,51,o),
(109,148,o),
(124,256,cs),
(141,380,o),
(201,450,o),
(282,450,cs),
(320,450,o),
(363,436,o),
(409,415,c),
(479,475,l),
(433,492,o),
(380,515,o),
(328,515,cs),
(194,515,o),
(61,404,o),
(40,248,cs),
(18,81,o),
(95,-20,o),
(171,-20,cs)
);
}
);
width = 513;
},
{
anchors = (
{
name = bottom;
pos = (257,-300);
},
{
name = top;
pos = (257,500);
}
);
background = {
anchors = (
{
name = bottom;
pos = (257,-300);
},
{
name = top;
pos = (277,500);
}
);
shapes = (
{
closed = 1;
nodes = (
(380,-211,o),
(297,-229,o),
(76,-190,c),
(95,-280,l),
(313,-324,o),
(457,-207,o),
(448,-38,cs),
(440,110,l),
(445,520,l),
(350,500,l),
(365,270,l),
(355,72,l),
(369,-85,ls)
);
},
{
closed = 1;
nodes = (
(123,380,o),
(173,450,o),
(254,450,cs),
(292,450,o),
(337,436,o),
(386,415,c),
(437,475,l),
(399,492,o),
(343,515,o),
(291,515,cs),
(157,515,o),
(40,404,o),
(40,248,cs),
(40,91,o),
(133,-20,o),
(219,-20,cs),
(249,-20,o),
(306,0,o),
(384,50,c),
(384,100,l),
(340,74,o),
(299,55,o),
(262,55,cs),
(189,55,o),
(123,148,o),
(123,256,cs)
);
}
);
};
layerId = m004;
shapes = (
{
closed = 1;
nodes = (
(313,-324,o),
(457,-207,o),
(448,-38,cs),
(440,110,l),
(445,520,l),
(320,490,l),
(335,270,l),
(315,72,l),
(329,-85,ls),
(340,-211,o),
(297,-189,o),
(76,-160,c),
(95,-280,l)
);
},
{
closed = 1;
nodes = (
(249,-20,o),
(306,10,o),
(374,80,c),
(374,120,l),
(320,99,o),
(289,90,o),
(260,90,cs),
(204,90,o),
(153,172,o),
(153,255,cs),
(153,351,o),
(192,405,o),
(254,405,cs),
(283,405,o),
(318,394,o),
(376,368,c),
(437,475,l),
(399,492,o),
(343,515,o),
(291,515,cs),
(157,515,o),
(40,404,o),
(40,248,cs),
(40,91,o),
(133,-20,o),
(199,-20,cs)
);
}
);
width = 513;
},
{
anchors = (
{
name = bottom;
pos = (180,-300);
},
{
name = top;
pos = (352,500);
}
);
background = {
anchors = (
{
name = bottom;
pos = (257,-300);
},
{
name = top;
pos = (277,500);
}
);
shapes = (
{
closed = 1;
nodes = (
(380,-211,o),
(297,-229,o),
(76,-190,c),
(95,-280,l),
(313,-324,o),
(457,-207,o),
(448,-38,cs),
(440,110,l),
(445,520,l),
(350,500,l),
(365,270,l),
(355,72,l),
(369,-85,ls)
);
},
{
closed = 1;
nodes = (
(123,380,o),
(173,450,o),
(254,450,cs),
(292,450,o),
(337,436,o),
(386,415,c),
(437,475,l),
(399,492,o),
(343,515,o),
(291,515,cs),
(157,515,o),
(40,404,o),
(40,248,cs),
(40,91,o),
(133,-20,o),
(219,-20,cs),
(249,-20,o),
(306,0,o),
(384,50,c),
(384,100,l),
(340,74,o),
(299,55,o),
(262,55,cs),
(189,55,o),
(123,148,o),
(123,256,cs)
);
}
);
};
layerId = m005;
shapes = (
{
closed = 1;
nodes = (
(232,-324,o),
(394,-207,o),
(408,-38,cs),
(420,110,l),
(483,520,l),
(354,490,l),
(338,270,l),
(290,72,l),
(282,-85,ls),
(276,-211,o),
(235,-189,o),
(18,-160,c),
(21,-280,l)
);
},
{
closed = 1;
nodes = (
(211,-20,o),
(272,10,o),
(350,80,c),
(356,120,l),
(299,99,o),
(267,90,o),
(238,90,cs),
(182,90,o),
(142,172,o),
(154,255,cs),
(167,351,o),
(214,405,o),
(276,405,cs),
(305,405,o),
(338,394,o),
(393,368,c),
(469,475,l),
(433,492,o),
(380,515,o),
(328,515,cs),
(194,515,o),
(62,404,o),
(40,248,cs),
(18,91,o),
(95,-20,o),
(161,-20,cs)
);
}
);
width = 513;
},
{
anchors = (
{
name = bottom;
pos = (257,-300);
},
{
name = top;
pos = (277,500);
}
);
background = {
shapes = (
{
closed = 1;
nodes = (
(313,-324,o),
(457,-207,o),
(448,-38,cs),
(440,110,l),
(445,520,l),
(350,500,l),
(365,270,l),
(355,72,l),
(369,-85,ls),
(380,-211,o),
(297,-229,o),
(76,-190,c),
(95,-280,l)
);
},
{
closed = 1;
nodes = (
(249,-20,o),
(306,0,o),
(384,50,c),
(384,100,l),
(340,74,o),
(299,55,o),
(262,55,cs),
(189,55,o),
(123,148,o),
(123,256,cs),
(123,380,o),
(173,450,o),
(254,450,cs),
(292,450,o),
(337,436,o),
(386,415,c),
(437,475,l),
(399,492,o),
(343,515,o),
(291,515,cs),
(157,515,o),
(40,404,o),
(40,248,cs),
(40,91,o),
(133,-20,o),
(219,-20,cs)
);
}
);
};
layerId = m006;
shapes = (
{
closed = 1;
nodes = (
(333,-324,o),
(427,-207,o),
(418,-38,cs),
(410,110,l),
(415,515,l),
(375,505,l),
(380,270,l),
(375,72,l),
(385,-45,ls),
(399,-211,o),
(307,-279,o),
(106,-240,c),
(115,-280,l)
);
},
{
closed = 1;
nodes = (
(287,-18,o),
(348,10,o),
(404,74,c),
(404,112,l),
(355,42,o),
(288,14,o),
(241,14,cs),
(128,14,o),
(78,154,o),
(78,269,cs),
(78,405,o),
(169,486,o),
(287,486,cs),
(319,486,o),
(360,476,o),
(396,460,c),
(409,495,l),
(397,501,o),
(349,515,o),
(297,515,cs),
(163,515,o),
(41,424,o),
(41,258,cs),
(41,105,o),
(132,-18,o),
(222,-18,cs)
);
}
);
width = 484;
},
{
anchors = (
{
name = bottom;
pos = (166,-300);
},
{
name = top;
pos = (298,500);
}
);
background = {
shapes = (
{
closed = 1;
nodes = (
(313,-324,o),
(457,-207,o),
(448,-38,cs),
(440,110,l),
(445,520,l),
(350,500,l),
(365,270,l),
(355,72,l),
(369,-85,ls),
(380,-211,o),
(297,-229,o),
(76,-190,c),
(95,-280,l)
);
},
{
closed = 1;
nodes = (
(249,-20,o),
(306,0,o),
(384,50,c),
(384,100,l),
(340,74,o),
(299,55,o),
(262,55,cs),
(189,55,o),
(123,148,o),
(123,256,cs),
(123,380,o),
(173,450,o),
(254,450,cs),
(292,450,o),
(337,436,o),
(386,415,c),
(437,475,l),
(399,492,o),
(343,515,o),
(291,515,cs),
(157,515,o),
(40,404,o),
(40,248,cs),
(40,91,o),
(133,-20,o),
(219,-20,cs)
);
}
);
};
layerId = m007;
shapes = (
{
closed = 1;
nodes = (
(238,-324,o),
(348,-207,o),
(363,-38,cs),
(376,110,l),
(438,515,l),
(397,505,l),
(369,270,l),
(336,72,l),
(329,-45,ls),
(319,-211,o),
(219,-279,o),
(23,-240,c),
(26,-280,l)
);
},
{
closed = 1;
nodes = (
(235,-18,o),
(300,10,o),
(365,74,c),
(371,112,l),
(312,42,o),
(241,14,o),
(194,14,cs),
(81,14,o),
(48,124,o),
(67,259,cs),
(83,375,o),
(188,486,o),
(306,486,cs),
(338,486,o),
(378,476,o),
(411,460,c),
(429,495,l),
(418,501,o),
(372,515,o),
(320,515,cs),
(186,515,o),
(49,394,o),
(28,248,cs),
(4,75,o),
(80,-18,o),
(170,-18,cs)
);
}
);
width = 484;
}
);
unicode = 103;
}
{
glyphname = h;
layers = (
{
anchors = (
{
name = bottom;
pos = (265,0);
},
{
name = center;
pos = (265,375);
},
{
name = top;
pos = (265,750);
}
);
background = {
anchors = (
{
name = bottom;
pos = (265,0);
},
{
name = center;
pos = (265,375);
},
{
name = top;
pos = (265,750);
}
);
shapes = (
{
closed = 1;
nodes = (
(75,550,l),
(75,0,l),
(160,0,l),
(155,250,l),
(155,760,l),
(65,740,l)
);
},
{
closed = 1;
nodes = (
(380,0,l),
(470,0,l),
(460,265,l),
(465,340,ls),
(471,427,o),
(427,520,o),
(320,520,cs),
(270,520,o),
(193,470,o),
(155,440,c),
(155,380,l),
(175,406,o),
(232,449,o),
(284,449,cs),
(349,449,o),
(386,387,o),
(385,320,cs)
);
}
);
};
layerId = m002;
shapes = (
{
closed = 1;
nodes = (
(75,550,l),
(75,0,l),
(160,0,l),
(155,250,l),
(155,760,l),
(65,740,l)
);
},
{
closed = 1;
nodes = (
(470,0,l),
(460,265,l),
(465,340,ls),
(471,427,o),
(427,520,o),
(320,520,cs),
(270,520,o),
(193,470,o),
(145,433,c),
(155,380,l),
(175,406,o),
(232,449,o),
(284,449,cs),
(349,449,o),
(386,387,o),
(385,320,cs),
(380,0,l)
);
}
);
width = 530;
},
{
anchors = (
{
name = bottom;
pos = (230,0);
},
{
name = center;
pos = (283,375);
},
{
name = top;
pos = (335,750);
}
);
background = {
shapes = (
{
closed = 1;
nodes = (
(117,550,l),
(40,0,l),
(125,0,l),
(155,250,l),
(227,760,l),
(134,740,l)
);
},
{
closed = 1;
nodes = (
(345,0,l),
(435,0,l),
(462,265,l),
(478,340,ls),
(496,427,o),
(465,520,o),
(358,520,cs),
(308,520,o),
(224,470,o),
(182,440,c),
(173,380,l),
(197,406,o),
(260,449,o),
(312,449,cs),
(377,449,o),
(405,387,o),
(395,320,cs)
);
}
);
};
layerId = m003;
shapes = (
{
closed = 1;
nodes = (
(117,550,l),
(40,0,l),
(125,0,l),
(155,250,l),
(227,760,l),
(134,740,l)
);
},
{
closed = 1;
nodes = (
(435,0,l),
(462,265,l),
(474,322,ls),
(496,427,o),
(435,520,o),
(348,520,cs),
(298,520,o),
(198,460,o),
(170,430,c),
(172,370,l),
(197,406,o),
(250,449,o),
(302,449,cs),
(367,449,o),
(405,387,o),
(395,320,cs),
(345,0,l)
);
}
);
width = 530;
},
{
anchors = (
{
name = bottom;
pos = (265,0);
},
{
name = center;
pos = (265,375);
},
{
name = top;
pos = (265,750);
}
);
background = {
shapes = (
{
closed = 1;
nodes = (
(75,550,l),
(75,0,l),
(160,0,l),
(155,250,l),
(155,760,l),
(65,740,l)
);
},
{
closed = 1;
nodes = (
(470,0,l),
(460,265,l),
(465,340,ls),
(471,427,o),
(427,520,o),
(320,520,cs),
(270,520,o),
(193,470,o),
(145,433,c),
(155,380,l),
(175,406,o),
(232,449,o),
(284,449,cs),
(349,449,o),
(386,387,o),
(385,320,cs),
(380,0,l)
);
}
);
};
layerId = m004;
shapes = (
{
closed = 1;
nodes = (
(75,540,l),
(75,0,l),
(190,0,l),
(185,250,l),
(185,760,l),
(65,730,l)
);
},
{
closed = 1;
nodes = (
(470,0,l),
(460,265,l),
(465,340,ls),
(471,427,o),
(427,520,o),
(320,520,cs),
(270,520,o),
(193,470,o),
(145,433,c),
(155,380,l),
(177,409,o),
(224,424,o),
(261,424,cs),
(314,424,o),
(356,391,o),
(355,320,cs),
(350,0,l)
);
}
);
width = 530;
},
{
anchors = (
{
name = bottom;
pos = (230,0);
},
{
name = center;
pos = (283,375);
},
{
name = top;
pos = (335,750);
}
);
background = {
shapes = (
{
closed = 1;
nodes = (
(75,550,l),
(75,0,l),
(160,0,l),
(155,250,l),
(155,760,l),
(65,740,l)
);
},
{
closed = 1;
nodes = (
(470,0,l),
(460,265,l),
(465,340,ls),
(471,427,o),
(427,520,o),
(320,520,cs),
(270,520,o),
(193,470,o),
(145,433,c),
(155,380,l),
(175,406,o),
(232,449,o),
(284,449,cs),
(349,449,o),
(386,387,o),
(385,320,cs),
(380,0,l)
);
}
);
};
layerId = m005;
shapes = (
{
closed = 1;
nodes = (
(116,540,l),
(40,0,l),
(155,0,l),
(185,250,l),
(257,760,l),
(132,730,l)
);
},
{
closed = 1;
nodes = (
(435,0,l),
(462,265,l),
(478,340,ls),
(496,427,o),
(465,520,o),
(358,520,cs),
(308,520,o),
(224,470,o),
(171,433,c),
(173,380,l),
(199,409,o),
(248,424,o),
(285,424,cs),
(338,424,o),
(376,391,o),
(365,320,cs),
(315,0,l)
);
}
);
width = 530;
},
{
anchors = (
{
name = bottom;
pos = (267,0);
},
{
name = center;
pos = (267,375);
},
{
name = top;
pos = (267,750);
}
);
background = {
shapes = (
{
closed = 1;
nodes = (
(432,0,l),
(427,265,l),
(430,340,ls),
(433,427,o),
(389,520,o),
(282,520,cs),
(212,520,o),
(145,470,o),
(87,423,c),
(87,380,l),
(127,426,o),
(194,487,o),
(266,487,cs),
(361,487,o),
(395,417,o),
(394,320,cs),
(391,0,l)
);
},
{
closed = 1;
nodes = (
(111,0,l),
(105,250,l),
(102,505,l),
(67,500,l),
(72,250,l),
(72,0,l)
);
}
);
};
layerId = m006;
shapes = (
{
closed = 1;
nodes = (
(71,500,l),
(69,0,l),
(106,0,l),
(103,250,l),
(105,760,l),
(68,760,l)
);
},
{
closed = 1;
nodes = (
(430,0,l),
(425,265,l),
(426,340,ls),
(427,427,o),
(390,520,o),
(283,520,cs),
(213,520,o),
(146,470,o),
(88,423,c),
(88,380,l),
(118,426,o),
(195,487,o),
(267,487,cs),
(362,487,o),
(395,417,o),
(395,320,cs),
(395,0,l)
);
}
);
width = 492;
},
{
anchors = (
{
name = bottom;
pos = (218,0);
},
{
name = center;
pos = (271,375);
},
{
name = top;
pos = (323,750);
}
);
background = {
shapes = (
{
closed = 1;
nodes = (
(432,0,l),
(427,265,l),
(430,340,ls),
(433,427,o),
(389,520,o),
(282,520,cs),
(212,520,o),
(145,470,o),
(87,423,c),
(87,380,l),
(127,426,o),
(194,487,o),
(266,487,cs),
(361,487,o),
(395,417,o),
(394,320,cs),
(391,0,l)
);
},
{
closed = 1;
nodes = (
(111,0,l),
(105,250,l),
(102,505,l),
(67,500,l),
(72,250,l),
(72,0,l)
);
}
);
};
layerId = m007;
shapes = (
{
closed = 1;
nodes = (
(92,500,l),
(20,0,l),
(57,0,l),
(89,250,l),
(163,760,l),
(126,760,l)
);
},
{
closed = 1;
nodes = (
(381,0,l),
(413,265,l),
(425,340,ls),
(438,427,o),
(414,520,o),
(307,520,cs),
(237,520,o),
(163,470,o),
(98,423,c),
(92,380,l),
(129,426,o),
(214,487,o),
(286,487,cs),
(381,487,o),
(404,417,o),
(391,320,cs),
(346,0,l)
);
}
);
width = 492;
}
);
unicode = 104;
}
{
glyphname = i;
layers = (
{
anchors = (
{
name = bottom;
pos = (120,0);
}
);
layerId = m002;
shapes = (
{
closed = 1;
nodes = (
(90,250,l),
(85,0,l),
(180,0,l),
(165,250,l),
(165,510,l),
(75,490,l)
);
},
{
closed = 1;
nodes = (
(151,623,o),
(175,648,o),
(175,679,cs),
(175,709,o),
(151,733,o),
(121,733,cs),
(90,733,o),
(65,709,o),
(65,679,cs),
(65,648,o),
(90,623,o),
(121,623,cs)
);
}
);
width = 240;
}
);
unicode = 105;
}
{
glyphname = j;
layers = (
{
layerId = m002;
shapes = (
{
closed = 1;
nodes = (
(108,-159,o),
(79,-187,o),
(-42,-168,c),
(-43,-258,l),
(75,-282,o),
(187,-165,o),
(181,-46,cs),
(165,250,l),
(165,510,l),
(75,490,l),
(90,250,l),
(92,32,l),
(101,-73,ls)
);
},
{
closed = 1;
nodes = (
(151,623,o),
(175,648,o),
(175,679,cs),
(175,709,o),
(151,733,o),
(121,733,cs),
(90,733,o),
(65,709,o),
(65,679,cs),
(65,648,o),
(90,623,o),
(121,623,cs)
);
}
);
width = 231;
},
{
background = {
shapes = (
{
closed = 1;
nodes = (
(108,-159,o),
(79,-187,o),
(-42,-168,c),
(-43,-258,l),
(75,-282,o),
(187,-165,o),
(181,-46,cs),
(165,250,l),
(165,510,l),
(75,490,l),
(90,250,l),
(92,32,l),
(101,-73,ls)
);
},
{
closed = 1;
nodes = (
(151,623,o),
(175,648,o),
(175,679,cs),
(175,709,o),
(151,733,o),
(121,733,cs),
(90,733,o),
(65,709,o),
(65,679,cs),
(65,648,o),
(90,623,o),
(121,623,cs)
);
}
);
};
layerId = m003;
shapes = (
{
closed = 1;
nodes = (
(103,-159,o),
(55,-172,o),
(-37,-158,c),
(-38,-258,l),
(80,-282,o),
(192,-165,o),
(186,-46,cs),
(170,250,l),
(170,510,l),
(70,490,l),
(85,250,l),
(87,32,l),
(96,-73,ls)
);
},
{
closed = 1;
nodes = (
(154,618,o),
(180,645,o),
(180,679,cs),
(180,712,o),
(154,738,o),
(121,738,cs),
(87,738,o),
(60,712,o),
(60,679,cs),
(60,645,o),
(87,618,o),
(121,618,cs)
);
}
);
width = 231;
},
{
layerId = "BB3F2C30-9513-40C8-8DEE-D83156CA2EC7";
shapes = (
{
closed = 1;
nodes = (
(98,-159,o),
(31,-157,o),
(-32,-148,c),
(-33,-258,l),
(85,-282,o),
(197,-165,o),
(191,-46,cs),
(175,250,l),
(175,510,l),
(65,490,l),
(80,250,l),
(82,32,l),
(91,-73,ls)
);
},
{
closed = 1;
nodes = (
(157,613,o),
(185,642,o),
(185,679,cs),
(185,715,o),
(157,743,o),
(121,743,cs),
(84,743,o),
(55,715,o),
(55,679,cs),
(55,642,o),
(84,613,o),
(121,613,cs)
);
}
);
width = 231;
}
);
unicode = 106;
}
{
glyphname = k;
layers = (
{
anchors = (
{
name = bottom;
pos = (260,10);
},
{
name = top;
pos = (240,750);
}
);
background = {
anchors = (
{
name = bottom;
pos = (260,10);
},
{
name = top;
pos = (240,750);
}
);
shapes = (
{
closed = 1;
nodes = (
(460,500,l),
(351,505,l),
(124,225,l),
(144,182,l)
);
},
{
closed = 1;
nodes = (
(160,0,l),
(155,250,l),
(155,760,l),
(65,740,l),
(75,550,l),
(75,0,l)
);
},
{
closed = 1;
nodes = (
(470,0,l),
(283,332,l),
(217,292,l),
(370,-5,l)
);
}
);
};
layerId = m002;
shapes = (
{
closed = 1;
nodes = (
(460,500,l),
(351,505,l),
(124,225,l),
(144,182,l)
);
},
{
closed = 1;
nodes = (
(160,0,l),
(155,250,l),
(155,760,l),
(65,740,l),
(75,550,l),
(75,0,l)
);
},
{
closed = 1;
nodes = (
(470,0,l),
(283,332,l),
(217,292,l),
(370,-5,l)
);
}
);
width = 480;
},
{
anchors = (
{
name = bottom;
pos = (227,10);
},
{
name = top;
pos = (204,750);
}
);
background = {
anchors = (
{
name = bottom;
pos = (260,10);
},
{
name = top;
pos = (240,750);
}
);
shapes = (
{
closed = 1;
nodes = (
(460,500,l),
(351,505,l),
(124,225,l),
(144,182,l)
);
},
{
closed = 1;
nodes = (
(160,0,l),
(155,250,l),
(155,760,l),
(65,740,l),
(75,550,l),
(75,0,l)
);
},
{
closed = 1;
nodes = (
(470,0,l),
(283,332,l),
(217,292,l),
(370,-5,l)
);
}
);
};
layerId = m003;
shapes = (
{
closed = 1;
nodes = (
(495,500,l),
(387,505,l),
(120,225,l),
(134,182,l)
);
},
{
closed = 1;
nodes = (
(125,0,l),
(155,250,l),
(227,760,l),
(134,740,l),
(117,550,l),
(40,0,l)
);
},
{
closed = 1;
nodes = (
(435,0,l),
(295,332,l),
(223,292,l),
(334,-5,l)
);
}
);
width = 480;
},
{
anchors = (
{
name = bottom;
pos = (240,0);
},
{
name = top;
pos = (240,750);
}
);
background = {
anchors = (
{
name = bottom;
pos = (260,10);
},
{
name = top;
pos = (240,750);
}
);
shapes = (
{
closed = 1;
nodes = (
(460,500,l),
(351,505,l),
(124,225,l),
(144,182,l)
);
},
{
closed = 1;
nodes = (
(160,0,l),
(155,250,l),
(155,760,l),
(65,740,l),
(75,550,l),
(75,0,l)
);
},
{
closed = 1;
nodes = (
(470,0,l),
(283,332,l),
(217,292,l),
(370,-5,l)
);
}
);
};
layerId = m004;
shapes = (
{
closed = 1;
nodes = (
(460,500,l),
(301,505,l),
(144,225,l),
(164,182,l)
);
},
{
closed = 1;
nodes = (
(190,0,l),
(185,250,l),
(185,760,l),
(55,730,l),
(75,550,l),
(75,0,l)
);
},
{
closed = 1;
nodes = (
(470,0,l),
(283,332,l),
(217,292,l),
(320,-5,l)
);
}
);
width = 480;
},
{
anchors = (
{
name = bottom;
pos = (205,0);
},
{
name = top;
pos = (310,750);
}
);
background = {
anchors = (
{
name = bottom;
pos = (260,10);
},
{
name = top;
pos = (240,750);
}
);
shapes = (
{
closed = 1;
nodes = (
(460,500,l),
(351,505,l),
(124,225,l),
(144,182,l)
);
},
{
closed = 1;
nodes = (
(160,0,l),
(155,250,l),
(155,760,l),
(65,740,l),
(75,550,l),
(75,0,l)
);
},
{
closed = 1;
nodes = (
(470,0,l),
(283,332,l),
(217,292,l),
(370,-5,l)
);
}
);
};
layerId = m005;
shapes = (
{
closed = 1;
nodes = (
(495,500,l),
(337,505,l),
(140,225,l),
(154,182,l)
);
},
{
closed = 1;
nodes = (
(155,0,l),
(185,250,l),
(257,760,l),
(122,730,l),
(117,550,l),
(40,0,l)
);
},
{
closed = 1;
nodes = (
(435,0,l),
(295,332,l),
(223,292,l),
(284,-5,l)
);
}
);
width = 480;
},
{
anchors = (
{
name = bottom;
pos = (210,10);
},
{
name = top;
pos = (190,750);
}
);
background = {
anchors = (
{
name = bottom;
pos = (210,10);
},
{
name = top;
pos = (190,750);
}
);
shapes = (
{
closed = 1;
nodes = (
(410,500,l),
(301,505,l),
(74,225,l),
(94,182,l)
);
},
{
closed = 1;
nodes = (
(110,0,l),
(105,250,l),
(105,760,l),
(15,740,l),
(25,550,l),
(25,0,l)
);
},
{
closed = 1;
nodes = (
(420,0,l),
(233,332,l),
(167,292,l),
(320,-5,l)
);
}
);
};
layerId = m006;
shapes = (
{
closed = 1;
nodes = (
(390,500,l),
(346,505,l),
(79,205,l),
(94,182,l)
);
},
{
closed = 1;
nodes = (
(108,0,l),
(103,250,l),
(103,760,l),
(65,750,l),
(70,550,l),
(70,0,l)
);
},
{
closed = 1;
nodes = (
(420,0,l),
(223,332,l),
(197,312,l),
(380,-5,l)
);
}
);
width = 430;
},
{
anchors = (
{
name = bottom;
pos = (162,10);
},
{
name = top;
pos = (246,750);
}
);
background = {
anchors = (
{
name = bottom;
pos = (210,10);
},
{
name = top;
pos = (190,750);
}
);
shapes = (
{
closed = 1;
nodes = (
(410,500,l),
(301,505,l),
(74,225,l),
(94,182,l)
);
},
{
closed = 1;
nodes = (
(110,0,l),
(105,250,l),
(105,760,l),
(15,740,l),
(25,550,l),
(25,0,l)
);
},
{
closed = 1;
nodes = (
(420,0,l),
(233,332,l),
(167,292,l),
(320,-5,l)
);
}
);
};
layerId = m007;
shapes = (
{
closed = 1;
nodes = (
(411,500,l),
(368,505,l),
(59,205,l),
(70,182,l)
);
},
{
closed = 1;
nodes = (
(59,0,l),
(89,250,l),
(161,760,l),
(121,750,l),
(98,550,l),
(21,0,l)
);
},
{
closed = 1;
nodes = (
(371,0,l),
(220,332,l),
(192,312,l),
(330,-5,l)
);
}
);
width = 430;
}
);
unicode = 107;
}
{
glyphname = l;
layers = (
{
anchors = (
{
name = bottom;
pos = (113,0);
},
{
name = center;
pos = (113,375);
},
{
name = top;
pos = (113,750);
},
{
name = topright;
pos = (175,750);
}
);
layerId = m002;
shapes = (
{
closed = 1;
nodes = (
(77,550,l),
(77,0,l),
(160,0,l),
(155,250,l),
(155,760,l),
(67,740,l)
);
}
);
width = 225;
}
);
unicode = 108;
}
{
glyphname = m;
layers = (
{
anchors = (
{
name = bottom;
pos = (420,0);
},
{
name = top;
pos = (420,500);
}
);
background = {
anchors = (
{
name = bottom;
pos = (420,0);
},
{
name = top;
pos = (420,500);
}
);
shapes = (
{
closed = 1;
nodes = (
(690,0,l),
(780,0,l),
(770,265,l),
(775,340,ls),
(781,427,o),
(737,520,o),
(630,520,cs),
(580,520,o),
(503,473,o),
(445,423,c),
(463,373,l),
(485,401,o),
(542,444,o),
(594,444,cs),
(659,444,o),
(696,387,o),
(695,320,cs)
);
},
{
ref = n;
}
);
};
guides = (
{
angle = 88.477;
pos = (331,-204);
}
);
layerId = m002;
shapes = (
{
closed = 1;
nodes = (
(780,0,l),
(770,265,l),
(775,340,ls),
(781,427,o),
(737,520,o),
(630,520,cs),
(580,520,o),
(503,473,o),
(445,423,c),
(463,373,l),
(485,401,o),
(542,444,o),
(594,444,cs),
(659,444,o),
(696,387,o),
(695,320,cs),
(690,0,l)
);
},
{
ref = n;
}
);
width = 840;
},
{
anchors = (
{
name = bottom;
pos = (367,0);
},
{
name = top;
pos = (437,500);
}
);
background = {
shapes = (
{
closed = 1;
nodes = (
(637,0,l),
(727,0,l),
(754,265,l),
(770,340,ls),
(788,427,o),
(757,520,o),
(650,520,cs),
(600,520,o),
(516,473,o),
(451,423,c),
(462,373,l),
(488,401,o),
(551,444,o),
(603,444,cs),
(668,444,o),
(697,387,o),
(687,320,cs)
);
}
);
};
guides = (
{
angle = 88.477;
pos = (313,-204);
}
);
layerId = m003;
shapes = (
{
closed = 1;
nodes = (
(725,0,l),
(752,265,l),
(764,322,ls),
(786,427,o),
(725,520,o),
(638,520,cs),
(588,520,o),
(488,460,o),
(460,430,c),
(462,370,l),
(487,406,o),
(540,449,o),
(592,449,cs),
(657,449,o),
(695,387,o),
(685,320,cs),
(635,0,l)
);
},
{
ref = n;
}
);
width = 820;
},
{
anchors = (
{
name = bottom;
pos = (403,0);
},
{
name = top;
pos = (403,500);
}
);
background = {
anchors = (
{
name = bottom;
pos = (420,0);
},
{
name = top;
pos = (420,500);
}
);
shapes = (
{
closed = 1;
nodes = (
(690,0,l),
(780,0,l),
(770,265,l),
(775,340,ls),
(781,427,o),
(737,520,o),
(630,520,cs),
(580,520,o),
(503,473,o),
(445,423,c),
(463,373,l),
(485,401,o),
(542,444,o),
(594,444,cs),
(659,444,o),
(696,387,o),
(695,320,cs)
);
},
{
ref = n;
}
);
};
guides = (
{
angle = 88.477;
pos = (331,-204);
}
);
layerId = m004;
shapes = (
{
closed = 1;
nodes = (
(745,0,l),
(735,265,l),
(740,340,ls),
(746,427,o),
(702,520,o),
(595,520,cs),
(545,520,o),
(468,480,o),
(400,413,c),
(410,370,l),
(442,404,o),
(499,424,o),
(536,424,cs),
(589,424,o),
(631,391,o),
(630,320,cs),
(625,0,l)
);
},
{
ref = n;
}
);
width = 805;
},
{
anchors = (
{
name = bottom;
pos = (368,0);
},
{
name = top;
pos = (438,500);
}
);
background = {
anchors = (
{
name = bottom;
pos = (420,0);
},
{
name = top;
pos = (420,500);
}
);
shapes = (
{
closed = 1;
nodes = (
(690,0,l),
(780,0,l),
(770,265,l),
(775,340,ls),
(781,427,o),
(737,520,o),
(630,520,cs),
(580,520,o),
(503,473,o),
(445,423,c),
(463,373,l),
(485,401,o),
(542,444,o),
(594,444,cs),
(659,444,o),
(696,387,o),
(695,320,cs)
);
},
{
ref = n;
}
);
};
guides = (
{
angle = 88.477;
pos = (331,-204);
}
);
layerId = m005;
shapes = (
{
closed = 1;
nodes = (
(710,0,l),
(737,265,l),
(753,340,ls),
(771,427,o),
(740,520,o),
(633,520,cs),
(583,520,o),
(500,480,o),
(423,413,c),
(427,370,l),
(464,404,o),
(523,424,o),
(560,424,cs),
(613,424,o),
(651,391,o),
(640,320,cs),
(590,0,l)
);
},
{
pos = (-35,0);
ref = n;
slant = (8,0);
}
);
width = 805;
},
{
anchors = (
{
name = bottom;
pos = (420,0);
},
{
name = top;
pos = (420,500);
}
);
background = {
anchors = (
{
name = bottom;
pos = (420,0);
},
{
name = top;
pos = (420,500);
}
);
shapes = (
{
closed = 1;
nodes = (
(690,0,l),
(780,0,l),
(770,265,l),
(775,340,ls),
(781,427,o),
(737,520,o),
(630,520,cs),
(580,520,o),
(503,473,o),
(445,423,c),
(463,373,l),
(485,401,o),
(542,444,o),
(594,444,cs),
(659,444,o),
(696,387,o),
(695,320,cs)
);
},
{
ref = n;
}
);
};
guides = (
{
angle = 88.477;
pos = (331,-204);
}
);
layerId = m006;
shapes = (
{
closed = 1;
nodes = (
(742,0,l),
(737,265,l),
(738,340,ls),
(739,427,o),
(702,520,o),
(595,520,cs),
(505,520,o),
(458,470,o),
(400,423,c),
(400,380,l),
(430,426,o),
(507,487,o),
(579,487,cs),
(674,487,o),
(707,417,o),
(707,320,cs),
(707,0,l)
);
},
{
ref = n;
}
);
width = 805;
}
);
metricRight = "=n";
unicode = 109;
}
{
glyphname = n;
layers = (
{
layerId = m002;
shapes = (
{
closed = 1;
nodes = (
(75,300,l),
(75,0,l),
(160,0,l),
(155,250,l),
(155,510,l),
(65,490,l)
);
},
{
closed = 1;
nodes = (
(380,0,l),
(470,0,l),
(460,265,l),
(465,340,ls),
(471,427,o),
(427,520,o),
(320,520,cs),
(270,520,o),
(193,470,o),
(155,440,c),
(155,380,l),
(175,406,o),
(232,449,o),
(284,449,cs),
(349,449,o),
(386,387,o),
(385,320,cs)
);
}
);
width = 530;
},
{
background = {
shapes = (
{
closed = 1;
nodes = (
(75,300,l),
(75,0,l),
(160,0,l),
(155,250,l),
(155,510,l),
(65,490,l)
);
},
{
closed = 1;
nodes = (
(380,0,l),
(470,0,l),
(460,265,l),
(465,340,ls),
(471,427,o),
(427,520,o),
(320,520,cs),
(270,520,o),
(193,470,o),
(155,440,c),
(155,380,l),
(175,406,o),
(232,449,o),
(284,449,cs),
(349,449,o),
(386,387,o),
(385,320,cs)
);
}
);
};
layerId = m003;
shapes = (
{
closed = 1;
nodes = (
(75,300,l),
(75,0,l),
(170,0,l),
(165,250,l),
(165,510,l),
(65,490,l)
);
},
{
closed = 1;
nodes = (
(370,0,l),
(470,0,l),
(460,265,l),
(465,340,ls),
(471,427,o),
(427,520,o),
(320,520,cs),
(270,520,o),
(193,470,o),
(155,430,c),
(155,360,l),
(175,396,o),
(222,439,o),
(279,439,cs),
(329,439,o),
(376,387,o),
(375,320,cs)
);
}
);
width = 530;
},
{
layerId = "BB3F2C30-9513-40C8-8DEE-D83156CA2EC7";
shapes = (
{
closed = 1;
nodes = (
(75,300,l),
(75,0,l),
(180,0,l),
(175,250,l),
(175,510,l),
(65,490,l)
);
},
{
closed = 1;
nodes = (
(360,0,l),
(470,0,l),
(460,265,l),
(465,340,ls),
(471,427,o),
(427,520,o),
(320,520,cs),
(270,520,o),
(193,470,o),
(155,420,c),
(155,340,l),
(175,386,o),
(212,429,o),
(274,429,cs),
(309,429,o),
(366,387,o),
(365,320,cs)
);
}
);
width = 530;
}
);
unicode = 110;
}
{
glyphname = o;
layers = (
{
layerId = m002;
shapes = (
{
closed = 1;
nodes = (
(164,515,o),
(50,397,o),
(50,244,cs),
(50,108,o),
(123,-15,o),
(264,-15,cs),
(390,-15,o),
(504,103,o),
(504,256,cs),
(504,392,o),
(431,515,o),
(290,515,cs)
);
},
{
closed = 1;
nodes = (
(133,402,o),
(187,443,o),
(273,443,cs),
(372,443,o),
(421,340,o),
(421,224,cs),
(421,98,o),
(367,57,o),
(281,57,cs),
(182,57,o),
(133,160,o),
(133,276,cs)
);
}
);
width = 554;
},
{
background = {
shapes = (
{
closed = 1;
nodes = (
(164,515,o),
(50,397,o),
(50,244,cs),
(50,108,o),
(123,-15,o),
(264,-15,cs),
(390,-15,o),
(504,103,o),
(504,256,cs),
(504,392,o),
(431,515,o),
(290,515,cs)
);
},
{
closed = 1;
nodes = (
(133,402,o),
(187,443,o),
(273,443,cs),
(372,443,o),
(421,340,o),
(421,224,cs),
(421,98,o),
(367,57,o),
(281,57,cs),
(182,57,o),
(133,160,o),
(133,276,cs)
);
}
);
};
layerId = m003;
shapes = (
{
closed = 1;
nodes = (
(164,515,o),
(50,397,o),
(50,244,cs),
(50,108,o),
(123,-15,o),
(264,-15,cs),
(390,-15,o),
(504,103,o),
(504,256,cs),
(504,392,o),
(431,515,o),
(290,515,cs)
);
},
{
closed = 1;
nodes = (
(143,391,o),
(188,432,o),
(273,432,cs),
(365,432,o),
(411,334,o),
(411,226,cs),
(411,109,o),
(366,68,o),
(281,68,cs),
(189,68,o),
(143,166,o),
(143,274,cs)
);
}
);
width = 554;
},
{
layerId = "BB3F2C30-9513-40C8-8DEE-D83156CA2EC7";
shapes = (
{
closed = 1;
nodes = (
(164,515,o),
(50,397,o),
(50,244,cs),
(50,108,o),
(123,-15,o),
(264,-15,cs),
(390,-15,o),
(504,103,o),
(504,256,cs),
(504,392,o),
(431,515,o),
(290,515,cs)
);
},
{
closed = 1;
nodes = (
(153,380,o),
(189,421,o),
(273,421,cs),
(358,421,o),
(401,328,o),
(401,228,cs),
(401,120,o),
(365,79,o),
(281,79,cs),
(196,79,o),
(153,172,o),
(153,272,cs)
);
}
);
width = 554;
}
);
unicode = 111;
}
{
glyphname = p;
layers = (
{
layerId = m002;
shapes = (
{
closed = 1;
nodes = (
(145,90,l),
(155,440,l),
(155,510,l),
(65,490,l),
(75,300,l),
(75,-310,l),
(165,-290,l)
);
},
{
closed = 1;
nodes = (
(397,140,o),
(342,55,o),
(271,55,cs),
(233,55,o),
(188,69,o),
(139,100,c),
(78,25,l),
(126,8,o),
(182,-15,o),
(234,-15,cs),
(368,-15,o),
(480,116,o),
(480,272,cs),
(480,429,o),
(392,520,o),
(306,520,cs),
(276,520,o),
(219,500,o),
(141,450,c),
(141,400,l),
(185,426,o),
(226,445,o),
(263,445,cs),
(336,445,o),
(397,372,o),
(397,264,cs)
);
}
);
width = 530;
}
);
unicode = 112;
}
{
glyphname = q;
layers = (
{
layerId = m002;
shapes = (
{
closed = 1;
nodes = (
(382,470,l),
(387,250,l),
(387,-260,l),
(477,-240,l),
(467,-50,l),
(467,230,l),
(477,470,l)
);
},
{
closed = 1;
nodes = (
(133,380,o),
(183,450,o),
(264,450,cs),
(302,450,o),
(347,436,o),
(396,415,c),
(477,470,l),
(409,493,o),
(353,515,o),
(301,515,cs),
(167,515,o),
(50,404,o),
(50,248,cs),
(50,91,o),
(143,-20,o),
(229,-20,cs),
(259,-20,o),
(316,-10,o),
(394,60,c),
(394,120,l),
(350,74,o),
(309,55,o),
(272,55,cs),
(199,55,o),
(133,148,o),
(133,256,cs)
);
}
);
width = 542;
},
{
background = {
shapes = (
{
closed = 1;
nodes = (
(382,470,l),
(387,250,l),
(387,-260,l),
(477,-240,l),
(467,-50,l),
(467,230,l),
(477,470,l)
);
},
{
closed = 1;
nodes = (
(133,380,o),
(183,450,o),
(264,450,cs),
(302,450,o),
(347,436,o),
(396,415,c),
(477,470,l),
(409,493,o),
(353,515,o),
(301,515,cs),
(167,515,o),
(50,404,o),
(50,248,cs),
(50,91,o),
(143,-20,o),
(229,-20,cs),
(259,-20,o),
(316,-10,o),
(394,60,c),
(394,120,l),
(350,74,o),
(309,55,o),
(272,55,cs),
(199,55,o),
(133,148,o),
(133,256,cs)
);
}
);
};
layerId = m003;
shapes = (
{
closed = 1;
nodes = (
(372,470,l),
(377,250,l),
(377,-260,l),
(477,-240,l),
(467,-50,l),
(467,230,l),
(477,470,l)
);
},
{
closed = 1;
nodes = (
(143,380,o),
(193,440,o),
(264,440,cs),
(302,440,o),
(347,426,o),
(396,405,c),
(477,470,l),
(409,493,o),
(353,515,o),
(301,515,cs),
(167,515,o),
(50,404,o),
(50,248,cs),
(50,91,o),
(143,-20,o),
(229,-20,cs),
(259,-20,o),
(316,-10,o),
(394,60,c),
(394,130,l),
(350,84,o),
(309,65,o),
(272,65,cs),
(199,65,o),
(143,168,o),
(143,266,cs)
);
}
);
width = 542;
},
{
layerId = "BB3F2C30-9513-40C8-8DEE-D83156CA2EC7";
shapes = (
{
closed = 1;
nodes = (
(362,470,l),
(367,250,l),
(367,-260,l),
(477,-240,l),
(467,-50,l),
(467,230,l),
(477,470,l)
);
},
{
closed = 1;
nodes = (
(153,380,o),
(203,430,o),
(264,430,cs),
(302,430,o),
(347,416,o),
(396,395,c),
(477,470,l),
(409,493,o),
(353,515,o),
(301,515,cs),
(167,515,o),
(50,404,o),
(50,248,cs),
(50,91,o),
(143,-20,o),
(229,-20,cs),
(259,-20,o),
(316,-10,o),
(394,60,c),
(394,140,l),
(350,94,o),
(309,75,o),
(272,75,cs),
(199,75,o),
(153,188,o),
(153,276,cs)
);
}
);
width = 542;
}
);
unicode = 113;
}
{
glyphname = r;
layers = (
{
layerId = m002;
shapes = (
{
closed = 1;
nodes = (
(143,329,l),
(209,399,o),
(233,420,o),
(335,417,c),
(324,515,l),
(236,511,o),
(195,447,o),
(135,384,c)
);
},
{
closed = 1;
nodes = (
(145,510,l),
(55,490,l),
(75,300,l),
(75,0,l),
(155,0,l),
(155,250,l)
);
}
);
width = 335;
},
{
background = {
shapes = (
{
closed = 1;
nodes = (
(143,329,l),
(209,399,o),
(233,420,o),
(335,417,c),
(324,515,l),
(236,511,o),
(195,447,o),
(135,384,c)
);
},
{
closed = 1;
nodes = (
(145,510,l),
(55,490,l),
(75,300,l),
(75,0,l),
(155,0,l),
(155,250,l)
);
}
);
};
layerId = m003;
shapes = (
{
closed = 1;
nodes = (
(143,312,l),
(209,382,o),
(233,410,o),
(335,407,c),
(324,515,l),
(236,511,o),
(195,447,o),
(135,384,c)
);
},
{
closed = 1;
nodes = (
(155,510,l),
(55,490,l),
(75,300,l),
(75,0,l),
(165,0,l),
(165,250,l)
);
}
);
width = 335;
},
{
layerId = "BB3F2C30-9513-40C8-8DEE-D83156CA2EC7";
shapes = (
{
closed = 1;
nodes = (
(143,295,l),
(209,365,o),
(233,400,o),
(335,397,c),
(324,515,l),
(236,511,o),
(195,447,o),
(135,384,c)
);
},
{
closed = 1;
nodes = (
(165,510,l),
(55,490,l),
(75,300,l),
(75,0,l),
(175,0,l),
(175,250,l)
);
}
);
width = 335;
}
);
unicode = 114;
}
{
glyphname = s;
layers = (
{
background = {
hints = (
{
name = _corner.mitre;
options = 2;
place = (121, 0);
type = Corner;
},
{
name = _corner.mitre;
options = 2;
place = (358, 0);
type = Corner;
},
{
name = _corner.mitre;
options = 2;
place = (119, 0);
type = Corner;
},
{
name = _corner.mitre;
options = 2;
place = (360, 0);
type = Corner;
},
{
name = _corner.mitre;
options = 2;
origin = (0,7);
type = Corner;
},
{
name = _corner.mitre;
options = 2;
origin = (0,17);
type = Corner;
}
);
shapes = (
{
closed = 1;
nodes = (
(388,9,o),
(388,140,cs),
(388,307,o),
(142,273,o),
(142,385,cs),
(142,449,o),
(230,480,o),
(315,390,c),
(372,467,l),
(250,567,o),
(62,490,o),
(62,356,cs),
(62,203,o),
(303,238,o),
(303,120,cs),
(303,29,o),
(177,37,o),
(94,114,c),
(50,32,l),
(188,-65,o)
);
}
);
};
layerId = m002;
shapes = (
{
closed = 1;
nodes = (
(188,-65,o),
(393,9,o),
(393,160,cs),
(393,307,o),
(137,273,o),
(137,365,cs),
(137,454,o),
(230,480,o),
(315,390,c),
(372,467,l),
(250,567,o),
(62,490,o),
(62,336,cs),
(62,203,o),
(312,238,o),
(312,135,cs),
(312,24,o),
(177,37,o),
(94,114,c),
(50,32,l)
);
}
);
width = 438;
},
{
background = {
hints = (
{
name = _corner.mitre;
options = 2;
place = (121, 0);
type = Corner;
},
{
name = _corner.mitre;
options = 2;
place = (358, 0);
type = Corner;
},
{
name = _corner.mitre;
options = 2;
place = (119, 0);
type = Corner;
},
{
name = _corner.mitre;
options = 2;
place = (360, 0);
type = Corner;
},
{
name = _corner.mitre;
options = 2;
place = (315, -2147483648);
type = Corner;
},
{
name = _corner.mitre;
options = 2;
place = (94, -2147483648);
type = Corner;
}
);
shapes = (
{
closed = 1;
nodes = (
(188,-65,o),
(393,9,o),
(393,160,cs),
(393,307,o),
(137,273,o),
(137,365,cs),
(137,454,o),
(230,480,o),
(315,390,c),
(372,467,l),
(250,567,o),
(62,490,o),
(62,336,cs),
(62,203,o),
(312,238,o),
(312,135,cs),
(312,24,o),
(177,37,o),
(94,114,c),
(50,32,l)
);
}
);
};
layerId = m003;
shapes = (
{
closed = 1;
nodes = (
(188,-65,o),
(393,9,o),
(393,160,cs),
(393,307,o),
(147,283,o),
(147,365,cs),
(147,434,o),
(224,470,o),
(309,380,c),
(372,467,l),
(250,567,o),
(62,490,o),
(62,336,cs),
(62,203,o),
(302,228,o),
(302,135,cs),
(302,24,o),
(161,57,o),
(99,124,c),
(50,32,l)
);
}
);
width = 438;
},
{
layerId = "BB3F2C30-9513-40C8-8DEE-D83156CA2EC7";
shapes = (
{
closed = 1;
nodes = (
(188,-65,o),
(393,9,o),
(393,160,cs),
(393,307,o),
(157,293,o),
(157,365,cs),
(157,414,o),
(218,460,o),
(303,370,c),
(372,467,l),
(250,567,o),
(62,490,o),
(62,336,cs),
(62,203,o),
(292,218,o),
(292,135,cs),
(292,24,o),
(145,77,o),
(104,134,c),
(50,32,l)
);
}
);
width = 438;
}
);
unicode = 115;
}
{
glyphname = t;
layers = (
{
anchors = (
{
name = bottom;
pos = (219,0);
},
{
name = center;
pos = (179,250);
},
{
name = top;
pos = (179,500);
},
{
name = topright;
pos = (198,790);
}
);
background = {
anchors = (
{
name = bottom;
pos = (219,0);
},
{
name = center;
pos = (179,250);
},
{
name = top;
pos = (179,500);
},
{
name = topright;
pos = (198,790);
}
);
shapes = (
{
closed = 1;
nodes = (
(111,449,l),
(102,144,ls),
(99,43,o),
(158,-10,o),
(234,-10,cs),
(264,-10,o),
(307,7,o),
(338,32,c),
(322,72,l),
(264,46,o),
(189,70,o),
(189,149,cs),
(189,655,l),
(91,620,l)
);
},
{
closed = 1;
nodes = (
(23,440,l),
(298,440,l),
(303,508,l),
(20,490,l)
);
}
);
};
layerId = m002;
shapes = (
{
closed = 1;
nodes = (
(264,-10,o),
(307,7,o),
(338,32,c),
(322,72,l),
(264,46,o),
(189,70,o),
(189,149,cs),
(189,655,l),
(91,620,l),
(111,449,l),
(102,144,ls),
(99,43,o),
(158,-10,o),
(234,-10,cs)
);
},
{
closed = 1;
nodes = (
(298,440,l),
(303,508,l),
(20,490,l),
(23,440,l)
);
}
);
width = 363;
},
{
anchors = (
{
name = bottom;
pos = (157,0);
},
{
name = center;
pos = (179,250);
},
{
name = top;
pos = (161,500);
},
{
name = topright;
pos = (259,790);
}
);
background = {
shapes = (
{
closed = 1;
nodes = (
(207,-10,o),
(273,17,o),
(307,42,c),
(292,82,l),
(195,46,o),
(161,50,o),
(175,149,cs),
(246,655,l),
(143,620,l),
(139,449,l),
(85,124,ls),
(68,23,o),
(111,-10,o),
(157,-10,cs)
);
},
{
closed = 1;
nodes = (
(325,440,l),
(339,508,l),
(54,490,l),
(50,440,l)
);
}
);
};
layerId = m003;
shapes = (
{
closed = 1;
nodes = (
(227,-10,o),
(273,7,o),
(307,32,c),
(297,72,l),
(235,46,o),
(164,70,o),
(175,149,cs),
(246,655,l),
(143,620,l),
(139,449,l),
(91,164,ls),
(71,43,o),
(141,-10,o),
(197,-10,cs)
);
},
{
closed = 1;
nodes = (
(325,440,l),
(339,508,l),
(54,490,l),
(50,440,l)
);
}
);
width = 358;
},
{
anchors = (
{
name = bottom;
pos = (219,0);
},
{
name = center;
pos = (179,250);
},
{
name = top;
pos = (179,500);
},
{
name = topright;
pos = (198,790);
}
);
background = {
anchors = (
{
name = bottom;
pos = (219,0);
},
{
name = center;
pos = (179,250);
},
{
name = top;
pos = (179,500);
},
{
name = topright;
pos = (198,790);
}
);
shapes = (
{
closed = 1;
nodes = (
(111,449,l),
(102,144,ls),
(99,43,o),
(158,-10,o),
(234,-10,cs),
(264,-10,o),
(307,7,o),
(338,32,c),
(322,72,l),
(264,46,o),
(189,70,o),
(189,149,cs),
(189,655,l),
(91,620,l)
);
},
{
closed = 1;
nodes = (
(23,440,l),
(298,440,l),
(303,508,l),
(20,490,l)
);
}
);
};
layerId = m006;
shapes = (
{
closed = 1;
nodes = (
(264,-10,o),
(307,7,o),
(338,32,c),
(327,52,l),
(269,16,o),
(141,-10,o),
(142,149,cs),
(144,635,l),
(101,620,l),
(114,469,l),
(106,144,ls),
(104,43,o),
(158,-10,o),
(224,-10,cs)
);
},
{
closed = 1;
nodes = (
(298,460,l),
(303,498,l),
(20,490,l),
(23,460,l)
);
}
);
width = 358;
},
{
anchors = (
{
name = bottom;
pos = (170,0);
},
{
name = center;
pos = (165,250);
},
{
name = top;
pos = (200,500);
},
{
name = topright;
pos = (260,790);
}
);
background = {
anchors = (
{
name = bottom;
pos = (219,0);
},
{
name = center;
pos = (179,250);
},
{
name = top;
pos = (179,500);
},
{
name = topright;
pos = (198,790);
}
);
shapes = (
{
closed = 1;
nodes = (
(111,449,l),
(102,144,ls),
(99,43,o),
(158,-10,o),
(234,-10,cs),
(264,-10,o),
(307,7,o),
(338,32,c),
(322,72,l),
(264,46,o),
(189,70,o),
(189,149,cs),
(189,655,l),
(91,620,l)
);
},
{
closed = 1;
nodes = (
(23,440,l),
(298,440,l),
(303,508,l),
(20,490,l)
);
}
);
};
layerId = m007;
shapes = (
{
closed = 1;
nodes = (
(213,-10,o),
(259,7,o),
(293,32,c),
(285,52,l),
(222,16,o),
(90,-10,o),
(114,149,cs),
(184,635,l),
(139,620,l),
(131,469,l),
(77,144,ls),
(61,43,o),
(107,-10,o),
(173,-10,cs)
);
},
{
closed = 1;
nodes = (
(313,460,l),
(324,498,l),
(40,490,l),
(38,460,l)
);
}
);
width = 358;
},
{
anchors = (
{
name = bottom;
pos = (219,0);
},
{
name = center;
pos = (179,250);
},
{
name = top;
pos = (179,500);
},
{
name = topright;
pos = (198,790);
}
);
background = {
anchors = (
{
name = bottom;
pos = (219,0);
},
{
name = center;
pos = (179,250);
},
{
name = top;
pos = (179,500);
},
{
name = topright;
pos = (198,790);
}
);
shapes = (
{
closed = 1;
nodes = (
(111,449,l),
(102,144,ls),
(99,43,o),
(158,-10,o),
(234,-10,cs),
(264,-10,o),
(307,7,o),
(338,32,c),
(322,72,l),
(264,46,o),
(189,70,o),
(189,149,cs),
(189,655,l),
(91,620,l)
);
},
{
closed = 1;
nodes = (
(23,440,l),
(298,440,l),
(303,508,l),
(20,490,l)
);
}
);
};
layerId = m008;
shapes = (
{
closed = 1;
nodes = (
(264,-10,o),
(317,17,o),
(348,42,c),
(322,92,l),
(264,76,o),
(209,80,o),
(209,179,cs),
(209,655,l),
(91,620,l),
(111,449,l),
(102,144,ls),
(99,43,o),
(158,-10,o),
(234,-10,cs)
);
},
{
closed = 1;
nodes = (
(318,420,l),
(323,508,l),
(20,490,l),
(23,420,l)
);
}
);
width = 363;
},
{
anchors = (
{
name = bottom;
pos = (184,0);
},
{
name = center;
pos = (179,250);
},
{
name = top;
pos = (214,500);
},
{
name = topright;
pos = (274,790);
}
);
background = {
anchors = (
{
name = bottom;
pos = (219,0);
},
{
name = center;
pos = (179,250);
},
{
name = top;
pos = (179,500);
},
{
name = topright;
pos = (198,790);
}
);
shapes = (
{
closed = 1;
nodes = (
(111,449,l),
(102,144,ls),
(99,43,o),
(158,-10,o),
(234,-10,cs),
(264,-10,o),
(307,7,o),
(338,32,c),
(322,72,l),
(264,46,o),
(189,70,o),
(189,149,cs),
(189,655,l),
(91,620,l)
);
},
{
closed = 1;
nodes = (
(23,440,l),
(298,440,l),
(303,508,l),
(20,490,l)
);
}
);
};
layerId = m009;
shapes = (
{
closed = 1;
nodes = (
(217,-10,o),
(274,17,o),
(309,42,c),
(290,92,l),
(230,76,o),
(173,80,o),
(189,179,cs),
(266,655,l),
(143,620,l),
(139,449,l),
(81,164,ls),
(57,44,o),
(141,-10,o),
(187,-10,cs)
);
},
{
closed = 1;
nodes = (
(342,420,l),
(359,508,l),
(54,490,l),
(47,420,l)
);
}
);
width = 363;
}
);
unicode = 116;
}
{
glyphname = u;
layers = (
{
background = {
shapes = (
{
closed = 1;
nodes = (
(155,500,l),
(65,500,l),
(75,305,l),
(65,160,ls),
(59,73,o),
(113,-20,o),
(220,-20,cs),
(270,-20,o),
(347,30,o),
(385,60,c),
(385,120,l),
(365,94,o),
(308,51,o),
(256,51,cs),
(191,51,o),
(143,113,o),
(145,180,cs)
);
},
{
closed = 1;
nodes = (
(455,500,l),
(370,500,l),
(375,250,l),
(365,0,l),
(455,0,l)
);
}
);
};
layerId = m002;
shapes = (
{
closed = 1;
nodes = (
(455,200,l),
(455,500,l),
(370,500,l),
(375,250,l),
(375,-10,l),
(465,10,l)
);
},
{
closed = 1;
nodes = (
(150,500,l),
(60,500,l),
(70,235,l),
(65,170,ls),
(58,83,o),
(103,-10,o),
(210,-10,cs),
(260,-10,o),
(337,40,o),
(375,70,c),
(375,130,l),
(355,104,o),
(298,61,o),
(246,61,cs),
(181,61,o),
(144,123,o),
(145,190,cs)
);
}
);
width = 530;
},
{
background = {
shapes = (
{
closed = 1;
nodes = (
(455,200,l),
(455,500,l),
(370,500,l),
(375,250,l),
(375,-10,l),
(465,10,l)
);
},
{
closed = 1;
nodes = (
(150,500,l),
(60,500,l),
(70,235,l),
(65,170,ls),
(58,83,o),
(103,-10,o),
(210,-10,cs),
(260,-10,o),
(337,40,o),
(375,70,c),
(375,130,l),
(355,104,o),
(298,61,o),
(246,61,cs),
(181,61,o),
(144,123,o),
(145,190,cs)
);
}
);
};
layerId = m003;
shapes = (
{
closed = 1;
nodes = (
(455,200,l),
(455,500,l),
(360,500,l),
(365,250,l),
(365,-10,l),
(465,10,l)
);
},
{
closed = 1;
nodes = (
(160,500,l),
(60,500,l),
(70,235,l),
(65,170,ls),
(58,83,o),
(103,-10,o),
(210,-10,cs),
(260,-10,o),
(337,40,o),
(375,70,c),
(375,140,l),
(355,114,o),
(298,71,o),
(256,71,cs),
(201,71,o),
(154,123,o),
(155,190,cs)
);
}
);
width = 530;
},
{
layerId = "BB3F2C30-9513-40C8-8DEE-D83156CA2EC7";
shapes = (
{
closed = 1;
nodes = (
(455,200,l),
(455,500,l),
(350,500,l),
(355,250,l),
(355,-10,l),
(465,10,l)
);
},
{
closed = 1;
nodes = (
(170,500,l),
(60,500,l),
(70,235,l),
(65,170,ls),
(58,83,o),
(103,-10,o),
(210,-10,cs),
(260,-10,o),
(337,40,o),
(375,70,c),
(375,150,l),
(355,124,o),
(298,81,o),
(266,81,cs),
(221,81,o),
(164,123,o),
(165,190,cs)
);
}
);
width = 530;
}
);
unicode = 117;
}
{
glyphname = v;
layers = (
{
anchors = (
{
name = bottom;
pos = (236,0);
},
{
name = top;
pos = (236,500);
}
);
layerId = m002;
shapes = (
{
closed = 1;
nodes = (
(457,495,l),
(373,505,l),
(255,85,l),
(155,350,l),
(119,505,l),
(20,495,l),
(116,201,l),
(195,-5,l),
(285,5,l)
);
}
);
width = 472;
}
);
unicode = 118;
}
{
glyphname = w;
layers = (
{
layerId = m002;
shapes = (
{
closed = 1;
nodes = (
(387,382,l),
(436,201,l),
(515,-5,l),
(605,5,l),
(747,495,l),
(663,505,l),
(575,85,l),
(475,350,l),
(439,505,l),
(353,505,l),
(235,85,l),
(155,350,l),
(119,505,l),
(20,495,l),
(116,201,l),
(175,-5,l),
(265,5,l)
);
}
);
width = 762;
},
{
background = {
shapes = (
{
closed = 1;
nodes = (
(387,382,l),
(436,201,l),
(515,-5,l),
(605,5,l),
(747,495,l),
(663,505,l),
(575,85,l),
(475,350,l),
(439,505,l),
(353,505,l),
(235,85,l),
(155,350,l),
(119,505,l),
(20,495,l),
(116,201,l),
(175,-5,l),
(265,5,l)
);
}
);
};
layerId = m003;
shapes = (
{
closed = 1;
nodes = (
(387,382,l),
(436,201,l),
(515,-5,l),
(605,5,l),
(747,495,l),
(653,505,l),
(570,115,l),
(485,350,l),
(449,505,l),
(343,505,l),
(235,115,l),
(165,350,l),
(129,505,l),
(20,495,l),
(116,201,l),
(175,-5,l),
(265,5,l)
);
}
);
width = 762;
},
{
layerId = "BB3F2C30-9513-40C8-8DEE-D83156CA2EC7";
shapes = (
{
closed = 1;
nodes = (
(387,382,l),
(436,201,l),
(515,-5,l),
(605,5,l),
(747,495,l),
(643,505,l),
(565,145,l),
(495,350,l),
(459,505,l),
(333,505,l),
(235,145,l),
(175,350,l),
(139,505,l),
(20,495,l),
(116,201,l),
(175,-5,l),
(265,5,l)
);
}
);
width = 762;
}
);
unicode = 119;
}
{
glyphname = x;
layers = (
{
layerId = m002;
shapes = (
{
closed = 1;
nodes = (
(269,227,l),
(465,500,l),
(356,500,l),
(224,248,l)
);
},
{
closed = 1;
nodes = (
(40,500,l),
(217,228,l),
(278,268,l),
(135,505,l)
);
},
{
closed = 1;
nodes = (
(455,0,l),
(278,282,l),
(217,242,l),
(360,-5,l)
);
},
{
closed = 1;
nodes = (
(221,273,l),
(25,0,l),
(134,0,l),
(266,252,l)
);
}
);
width = 490;
},
{
background = {
shapes = (
{
closed = 1;
nodes = (
(269,227,l),
(465,500,l),
(356,500,l),
(224,248,l)
);
},
{
closed = 1;
nodes = (
(40,500,l),
(217,228,l),
(278,268,l),
(135,505,l)
);
},
{
closed = 1;
nodes = (
(455,0,l),
(278,282,l),
(217,242,l),
(360,-5,l)
);
},
{
closed = 1;
nodes = (
(221,273,l),
(25,0,l),
(134,0,l),
(266,252,l)
);
}
);
};
layerId = m003;
shapes = (
{
closed = 1;
nodes = (
(269,227,l),
(465,500,l),
(346,500,l),
(224,248,l)
);
},
{
closed = 1;
nodes = (
(35,500,l),
(212,228,l),
(283,268,l),
(145,505,l)
);
},
{
closed = 1;
nodes = (
(460,0,l),
(283,282,l),
(212,242,l),
(350,-5,l)
);
},
{
closed = 1;
nodes = (
(221,273,l),
(25,0,l),
(144,0,l),
(266,252,l)
);
}
);
width = 490;
},
{
layerId = "BB3F2C30-9513-40C8-8DEE-D83156CA2EC7";
shapes = (
{
closed = 1;
nodes = (
(269,227,l),
(465,500,l),
(336,500,l),
(224,248,l)
);
},
{
closed = 1;
nodes = (
(30,500,l),
(207,228,l),
(288,268,l),
(155,505,l)
);
},
{
closed = 1;
nodes = (
(465,0,l),
(288,282,l),
(207,242,l),
(340,-5,l)
);
},
{
closed = 1;
nodes = (
(221,273,l),
(25,0,l),
(154,0,l),
(266,252,l)
);
}
);
width = 490;
}
);
unicode = 120;
}
{
glyphname = y;
layers = (
{
anchors = (
{
name = bottom;
pos = (241,0);
},
{
name = top;
pos = (251,480);
}
);
background = {
anchors = (
{
name = bottom;
pos = (241,0);
},
{
name = top;
pos = (251,480);
}
);
shapes = (
{
closed = 1;
nodes = (
(462,495,l),
(378,505,l),
(260,85,l),
(160,350,l),
(124,505,l),
(30,495,l),
(126,201,l),
(205,-5,l),
(290,5,l)
);
},
{
closed = 1;
nodes = (
(235,26,l),
(49,-280,l),
(158,-300,l),
(290,5,l)
);
}
);
};
layerId = m002;
shapes = (
{
closed = 1;
nodes = (
(290,5,l),
(462,495,l),
(378,505,l),
(260,85,l),
(160,350,l),
(124,505,l),
(30,495,l),
(126,201,l),
(205,-5,l)
);
},
{
closed = 1;
nodes = (
(290,5,l),
(235,26,l),
(49,-280,l),
(158,-300,l)
);
}
);
width = 482;
},
{
anchors = (
{
name = bottom;
pos = (254,0);
},
{
name = top;
pos = (279,480);
}
);
background = {
anchors = (
{
name = bottom;
pos = (236,0);
},
{
name = top;
pos = (246,480);
}
);
shapes = (
{
closed = 1;
nodes = (
(457,495,l),
(373,505,l),
(255,85,l),
(155,350,l),
(119,505,l),
(25,495,l),
(121,201,l),
(200,-5,l),
(285,5,l)
);
},
{
closed = 1;
nodes = (
(230,26,l),
(44,-280,l),
(153,-300,l),
(285,5,l)
);
}
);
};
layerId = m003;
shapes = (
{
closed = 1;
nodes = (
(251,5,l),
(491,495,l),
(409,505,l),
(232,85,l),
(169,350,l),
(155,505,l),
(59,495,l),
(114,201,l),
(164,-5,l)
);
},
{
closed = 1;
nodes = (
(251,5,l),
(199,26,l),
(-30,-280,l),
(76,-300,l)
);
}
);
width = 472;
},
{
anchors = (
{
name = bottom;
pos = (241,0);
},
{
name = top;
pos = (251,480);
}
);
background = {
shapes = (
{
closed = 1;
nodes = (
(260,0,l),
(219,0,l),
(89,-290,l),
(128,-300,l)
);
},
{
closed = 1;
nodes = (
(452,504,l),
(418,509,l),
(249,36,l),
(109,368,l),
(65,509,l),
(25,504,l),
(86,336,l),
(230,-5,l),
(260,0,l)
);
}
);
};
layerId = m006;
shapes = (
{
closed = 1;
nodes = (
(449,504,l),
(413,509,l),
(247,49,l),
(124,368,l),
(80,509,l),
(38,504,l),
(99,336,l),
(237,-2,l),
(265,20,l)
);
},
{
closed = 1;
nodes = (
(265,20,l),
(234,20,l),
(91,-285,l),
(125,-300,l)
);
}
);
width = 467;
},
{
anchors = (
{
name = bottom;
pos = (192,0);
},
{
name = top;
pos = (269,480);
}
);
background = {
shapes = (
{
closed = 1;
nodes = (
(260,0,l),
(219,0,l),
(89,-290,l),
(128,-300,l)
);
},
{
closed = 1;
nodes = (
(452,504,l),
(418,509,l),
(249,36,l),
(109,368,l),
(65,509,l),
(25,504,l),
(86,336,l),
(230,-5,l),
(260,0,l)
);
}
);
};
layerId = m007;
shapes = (
{
closed = 1;
nodes = (
(471,504,l),
(435,509,l),
(205,49,l),
(127,368,l),
(102,509,l),
(60,504,l),
(97,336,l),
(188,-2,l),
(219,20,l)
);
},
{
closed = 1;
nodes = (
(219,20,l),
(188,20,l),
(2,-285,l),
(34,-300,l)
);
}
);
width = 467;
},
{
anchors = (
{
name = bottom;
pos = (241,0);
},
{
name = top;
pos = (251,480);
}
);
background = {
shapes = (
{
closed = 1;
nodes = (
(290,5,l),
(462,495,l),
(378,505,l),
(260,85,l),
(160,350,l),
(124,505,l),
(30,495,l),
(126,201,l),
(205,-5,l)
);
},
{
closed = 1;
nodes = (
(290,5,l),
(235,26,l),
(49,-280,l),
(158,-300,l)
);
}
);
};
layerId = m008;
shapes = (
{
closed = 1;
nodes = (
(459,500,l),
(352,500,l),
(254,116,l),
(175,350,l),
(139,500,l),
(18,500,l),
(116,201,l),
(175,42,l),
(315,32,l)
);
},
{
closed = 1;
nodes = (
(315,32,l),
(230,53,l),
(84,-280,l),
(193,-300,l)
);
}
);
width = 482;
},
{
anchors = (
{
name = bottom;
pos = (206,0);
},
{
name = top;
pos = (283,480);
}
);
background = {
shapes = (
{
closed = 1;
nodes = (
(290,5,l),
(462,495,l),
(378,505,l),
(260,85,l),
(160,350,l),
(124,505,l),
(30,495,l),
(126,201,l),
(205,-5,l)
);
},
{
closed = 1;
nodes = (
(290,5,l),
(235,26,l),
(49,-280,l),
(158,-300,l)
);
}
);
};
layerId = m009;
shapes = (
{
closed = 1;
nodes = (
(494,500,l),
(387,500,l),
(235,116,l),
(189,350,l),
(174,500,l),
(53,500,l),
(109,201,l),
(146,42,l),
(284,32,l)
);
},
{
closed = 1;
nodes = (
(284,32,l),
(202,53,l),
(10,-280,l),
(116,-300,l)
);
}
);
width = 482;
}
);
unicode = 121;
}
{
glyphname = z;
layers = (
{
anchors = (
{
name = bottom;
pos = (235,0);
},
{
name = center;
pos = (235,250);
},
{
name = top;
pos = (235,500);
}
);
layerId = m002;
shapes = (
{
closed = 1;
nodes = (
(424,500,l),
(61,500,l),
(61,425,l),
(334,440,l),
(203,267,l),
(30,50,l),
(46,0,l),
(431,0,l),
(431,75,l),
(134,60,l),
(264,234,l),
(440,454,l)
);
}
);
width = 470;
}
);
unicode = 122;
}
{
glyphname = braceleft;
layers = (
{
background = {
shapes = (
{
closed = 1;
nodes = (
(-20,540,o),
(-20,120,o),
(260,-165,c),
(300,-130,l),
(80,133,o),
(80,527,o),
(300,790,c),
(260,825,l)
);
}
);
};
layerId = m002;
shapes = (
{
closed = 1;
nodes = (
(120,430,ls),
(120,372,o),
(80,353,o),
(40,348,c),
(40,312,l),
(80,307,o),
(120,288,o),
(120,230,cs),
(120,-5,ls),
(120,-108,o),
(207,-165,o),
(310,-163,c),
(315,-123,l),
(215,-109,o),
(200,-66,o),
(200,5,cs),
(200,230,ls),
(200,275,o),
(172,320,o),
(122,325,c),
(122,335,l),
(172,340,o),
(200,385,o),
(200,430,cs),
(200,655,ls),
(200,726,o),
(215,769,o),
(315,783,c),
(310,823,l),
(207,825,o),
(120,768,o),
(120,665,cs)
);
}
);
width = 345;
}
);
unicode = 123;
}
{
glyphname = bar;
layers = (
{
layerId = m002;
shapes = (
{
closed = 1;
nodes = (
(150,-45,l),
(150,795,l),
(80,795,l),
(80,-45,l)
);
}
);
width = 230;
},
{
layerId = m003;
shapes = (
{
closed = 1;
nodes = (
(94,-45,l),
(213,795,l),
(143,795,l),
(24,-45,l)
);
}
);
width = 230;
},
{
layerId = m006;
shapes = (
{
closed = 1;
nodes = (
(115,-45,l),
(115,795,l),
(80,795,l),
(80,-45,l)
);
}
);
width = 230;
},
{
layerId = m007;
shapes = (
{
closed = 1;
nodes = (
(56,-45,l),
(174,795,l),
(139,795,l),
(21,-45,l)
);
}
);
width = 230;
},
{
layerId = m008;
shapes = (
{
closed = 1;
nodes = (
(170,-45,l),
(170,795,l),
(80,795,l),
(80,-45,l)
);
}
);
width = 250;
},
{
layerId = m009;
shapes = (
{
closed = 1;
nodes = (
(129,-45,l),
(247,795,l),
(157,795,l),
(39,-45,l)
);
}
);
width = 250;
}
);
unicode = 124;
}
{
glyphname = asciitilde;
layers = (
{
background = {
shapes = (
{
closed = 1;
nodes = (
(310,195,o),
(192,420,o),
(74,220,c),
(120,191,l),
(200,305,o),
(319,80,o),
(436,280,c),
(390,309,l)
);
}
);
};
layerId = m002;
shapes = (
{
closed = 1;
nodes = (
(360,178,o),
(181,440,o),
(50,216,c),
(101,185,l),
(190,322,o),
(369,60,o),
(500,284,c),
(449,315,l)
);
}
);
width = 550;
}
);
unicode = 126;
}
{
glyphname = cent;
layers = (
{
layerId = m002;
shapes = (
{
closed = 1;
nodes = (
(314,140,o),
(361,160,o),
(449,220,c),
(429,260,l),
(253,155,o),
(138,256,o),
(138,361,cs),
(138,557,o),
(295,518,o),
(416,480,c),
(428,564,l),
(394,575,o),
(359,580,o),
(326,580,cs),
(192,580,o),
(55,489,o),
(55,333,cs),
(55,230,o),
(145,140,o),
(264,140,cs)
);
},
{
closed = 1;
nodes = (
(297,0,l),
(297,700,l),
(227,700,l),
(227,0,l)
);
}
);
width = 494;
},
{
layerId = m003;
shapes = (
{
closed = 1;
nodes = (
(281,140,o),
(331,160,o),
(428,220,c),
(413,260,l),
(223,155,o),
(122,256,o),
(137,361,cs),
(164,557,o),
(316,518,o),
(431,480,c),
(455,564,l),
(423,575,o),
(388,580,o),
(355,580,cs),
(221,580,o),
(72,489,o),
(50,333,cs),
(35,230,o),
(132,140,o),
(231,140,cs)
);
},
{
closed = 1;
nodes = (
(245,0,l),
(343,700,l),
(273,700,l),
(175,0,l)
);
}
);
width = 449;
},
{
background = {
shapes = (
{
closed = 1;
nodes = (
(314,140,o),
(361,160,o),
(449,220,c),
(429,260,l),
(253,155,o),
(138,256,o),
(138,361,cs),
(138,557,o),
(295,518,o),
(416,480,c),
(428,564,l),
(394,575,o),
(359,580,o),
(326,580,cs),
(192,580,o),
(55,489,o),
(55,333,cs),
(55,230,o),
(145,140,o),
(264,140,cs)
);
},
{
closed = 1;
nodes = (
(297,0,l),
(297,700,l),
(227,700,l),
(227,0,l)
);
}
);
};
layerId = m006;
shapes = (
{
closed = 1;
nodes = (
(294,140,o),
(341,150,o),
(426,202,c),
(417,225,l),
(231,110,o),
(93,206,o),
(93,361,cs),
(93,507,o),
(245,590,o),
(386,532,c),
(398,570,l),
(368,580,o),
(338,585,o),
(309,585,cs),
(171,585,o),
(55,475,o),
(55,333,cs),
(55,230,o),
(145,140,o),
(244,140,cs)
);
},
{
closed = 1;
nodes = (
(272,0,l),
(272,700,l),
(237,700,l),
(237,0,l)
);
}
);
width = 471;
},
{
background = {
shapes = (
{
closed = 1;
nodes = (
(297,140,o),
(344,160,o),
(432,220,c),
(412,260,l),
(236,155,o),
(121,256,o),
(121,361,cs),
(121,557,o),
(278,518,o),
(399,480,c),
(411,564,l),
(377,575,o),
(342,580,o),
(309,580,cs),
(175,580,o),
(38,489,o),
(38,333,cs),
(38,230,o),
(128,140,o),
(247,140,cs)
);
},
{
closed = 1;
nodes = (
(280,0,l),
(280,700,l),
(210,700,l),
(210,0,l)
);
}
);
};
layerId = m007;
shapes = (
{
closed = 1;
nodes = (
(247,140,o),
(296,150,o),
(388,202,c),
(382,225,l),
(180,110,o),
(56,206,o),
(78,361,cs),
(98,507,o),
(262,590,o),
(395,532,c),
(412,570,l),
(383,580,o),
(354,585,o),
(325,585,cs),
(187,585,o),
(56,475,o),
(36,333,cs),
(21,230,o),
(118,140,o),
(197,140,cs)
);
},
{
closed = 1;
nodes = (
(206,0,l),
(304,700,l),
(269,700,l),
(171,0,l)
);
}
);
width = 432;
},
{
layerId = m008;
shapes = (
{
closed = 1;
nodes = (
(304,137,o),
(371,154,o),
(459,209,c),
(429,281,l),
(263,184,o),
(148,261,o),
(148,366,cs),
(148,512,o),
(305,495,o),
(426,461,c),
(438,554,l),
(404,567,o),
(349,575,o),
(316,577,cs),
(182,584,o),
(45,500,o),
(45,344,cs),
(45,241,o),
(135,146,o),
(254,140,cs)
);
},
{
closed = 1;
nodes = (
(310,0,l),
(310,700,l),
(220,700,l),
(220,0,l)
);
}
);
width = 504;
},
{
layerId = m009;
shapes = (
{
closed = 1;
nodes = (
(288,137,o),
(358,154,o),
(453,209,c),
(433,281,l),
(254,184,o),
(150,261,o),
(164,366,cs),
(185,512,o),
(339,495,o),
(456,461,c),
(481,554,l),
(449,567,o),
(395,575,o),
(362,577,cs),
(229,584,o),
(80,500,o),
(58,344,cs),
(44,241,o),
(120,146,o),
(239,140,cs)
);
},
{
closed = 1;
nodes = (
(275,0,l),
(373,700,l),
(283,700,l),
(185,0,l)
);
}
);
width = 504;
}
);
metricLeft = "=c";
metricRight = "=c";
unicode = 162;
}
{
glyphname = sterling;
layers = (
{
background = {
shapes = (
{
closed = 1;
nodes = (
(538,666,l),
(481,697,o),
(426,709,o),
(377,709,cs),
(210,709,o),
(125,567,o),
(125,460,c),
(214,484,l),
(214,538,o),
(208,628,o),
(345,628,cs),
(401,628,o),
(470,604,o),
(518,574,c)
);
}
);
};
layerId = m002;
shapes = (
{
closed = 1;
nodes = (
(146,36,l),
(296,159,o),
(204,381,o),
(204,518,cs),
(204,650,o),
(362,676,o),
(499,582,c),
(547,648,l),
(387,778,o),
(131,698,o),
(131,488,cs),
(131,355,o),
(225,144,o),
(80,60,c)
);
},
{
closed = 1;
nodes = (
(560,0,l),
(560,80,l),
(80,60,l),
(90,0,l)
);
},
{
closed = 1;
nodes = (
(400,365,l),
(190,360,l),
(60,365,l),
(60,295,l),
(190,300,l),
(400,295,l)
);
}
);
width = 600;
},
{
background = {
shapes = (
{
closed = 1;
nodes = (
(538,666,l),
(481,697,o),
(426,709,o),
(377,709,cs),
(210,709,o),
(125,567,o),
(125,460,c),
(214,484,l),
(214,538,o),
(208,628,o),
(345,628,cs),
(401,628,o),
(470,604,o),
(518,574,c)
);
}
);
};
layerId = m003;
shapes = (
{
closed = 1;
nodes = (
(102,36,l),
(269,159,o),
(208,381,o),
(228,518,cs),
(246,650,o),
(408,676,o),
(532,582,c),
(589,648,l),
(447,778,o),
(180,698,o),
(150,488,cs),
(132,355,o),
(196,144,o),
(39,60,c)
);
},
{
closed = 1;
nodes = (
(511,0,l),
(522,80,l),
(39,60,l),
(41,0,l)
);
},
{
closed = 1;
nodes = (
(402,365,l),
(191,360,l),
(62,365,l),
(52,295,l),
(183,300,l),
(392,295,l)
);
}
);
width = 600;
},
{
background = {
shapes = (
{
closed = 1;
nodes = (
(146,36,l),
(296,159,o),
(204,381,o),
(204,518,cs),
(204,650,o),
(362,676,o),
(499,582,c),
(547,648,l),
(387,778,o),
(131,698,o),
(131,488,cs),
(131,355,o),
(225,144,o),
(80,60,c)
);
},
{
closed = 1;
nodes = (
(560,0,l),
(560,80,l),
(80,60,l),
(90,0,l)
);
},
{
closed = 1;
nodes = (
(400,365,l),
(190,360,l),
(60,365,l),
(60,295,l),
(190,300,l),
(400,295,l)
);
}
);
};
layerId = m004;
shapes = (
{
closed = 1;
nodes = (
(186,36,l),
(346,159,o),
(244,381,o),
(244,518,cs),
(244,630,o),
(352,636,o),
(489,542,c),
(547,648,l),
(387,778,o),
(131,698,o),
(131,488,cs),
(131,355,o),
(225,144,o),
(80,60,c)
);
},
{
closed = 1;
nodes = (
(560,0,l),
(560,130,l),
(80,60,l),
(90,0,l)
);
},
{
closed = 1;
nodes = (
(400,365,l),
(190,360,l),
(60,365,l),
(60,265,l),
(190,270,l),
(400,265,l)
);
}
);
width = 600;
},
{
background = {
shapes = (
{
closed = 1;
nodes = (
(146,36,l),
(296,159,o),
(204,381,o),
(204,518,cs),
(204,650,o),
(362,676,o),
(499,582,c),
(547,648,l),
(387,778,o),
(131,698,o),
(131,488,cs),
(131,355,o),
(225,144,o),
(80,60,c)
);
},
{
closed = 1;
nodes = (
(560,0,l),
(560,80,l),
(80,60,l),
(90,0,l)
);
},
{
closed = 1;
nodes = (
(400,365,l),
(190,360,l),
(60,365,l),
(60,295,l),
(190,300,l),
(400,295,l)
);
}
);
};
layerId = m005;
shapes = (
{
closed = 1;
nodes = (
(142,36,l),
(319,159,o),
(248,381,o),
(268,518,cs),
(283,630,o),
(392,636,o),
(516,542,c),
(589,648,l),
(447,778,o),
(180,698,o),
(150,488,cs),
(132,355,o),
(196,144,o),
(39,60,c)
);
},
{
closed = 1;
nodes = (
(511,0,l),
(529,130,l),
(39,60,l),
(41,0,l)
);
},
{
closed = 1;
nodes = (
(402,365,l),
(191,360,l),
(62,365,l),
(48,265,l),
(179,270,l),
(388,265,l)
);
}
);
width = 600;
},
{
background = {
shapes = (
{
closed = 1;
nodes = (
(538,666,l),
(481,697,o),
(426,709,o),
(377,709,cs),
(210,709,o),
(125,567,o),
(125,460,c),
(214,484,l),
(214,538,o),
(208,628,o),
(345,628,cs),
(401,628,o),
(470,604,o),
(518,574,c)
);
}
);
};
layerId = m006;
shapes = (
{
closed = 1;
nodes = (
(106,6,l),
(256,109,o),
(167,381,o),
(167,518,cs),
(167,650,o),
(332,746,o),
(529,622,c),
(547,648,l),
(387,778,o),
(131,698,o),
(131,488,cs),
(131,355,o),
(225,109,o),
(80,25,c)
);
},
{
closed = 1;
nodes = (
(560,0,l),
(560,40,l),
(80,25,l),
(85,0,l)
);
},
{
closed = 1;
nodes = (
(360,378,l),
(160,375,l),
(40,378,l),
(40,347,l),
(160,350,l),
(360,347,l)
);
}
);
width = 600;
},
{
background = {
shapes = (
{
closed = 1;
nodes = (
(538,666,l),
(481,697,o),
(426,709,o),
(377,709,cs),
(210,709,o),
(125,567,o),
(125,460,c),
(214,484,l),
(214,538,o),
(208,628,o),
(345,628,cs),
(401,628,o),
(470,604,o),
(518,574,c)
);
}
);
};
layerId = m007;
shapes = (
{
closed = 1;
nodes = (
(57,6,l),
(221,109,o),
(171,381,o),
(190,518,cs),
(208,650,o),
(387,746,o),
(566,622,c),
(588,648,l),
(446,778,o),
(179,698,o),
(150,488,cs),
(131,355,o),
(190,109,o),
(34,25,c)
);
},
{
closed = 1;
nodes = (
(510,0,l),
(516,40,l),
(34,25,l),
(35,0,l)
);
},
{
closed = 1;
nodes = (
(363,378,l),
(163,375,l),
(43,378,l),
(39,347,l),
(159,350,l),
(359,347,l)
);
}
);
width = 600;
},
{
background = {
shapes = (
{
closed = 1;
nodes = (
(538,666,l),
(481,697,o),
(426,709,o),
(377,709,cs),
(210,709,o),
(125,567,o),
(125,460,c),
(214,484,l),
(214,538,o),
(208,628,o),
(345,628,cs),
(401,628,o),
(470,604,o),
(518,574,c)
);
}
);
};
layerId = m008;
shapes = (
{
closed = 1;
nodes = (
(146,36,l),
(296,159,o),
(204,381,o),
(204,518,cs),
(204,650,o),
(362,676,o),
(499,582,c),
(547,648,l),
(387,778,o),
(131,698,o),
(131,488,cs),
(131,355,o),
(225,144,o),
(80,60,c)
);
},
{
closed = 1;
nodes = (
(560,0,l),
(560,80,l),
(80,60,l),
(90,0,l)
);
},
{
closed = 1;
nodes = (
(400,365,l),
(190,360,l),
(60,365,l),
(60,295,l),
(190,300,l),
(400,295,l)
);
}
);
width = 600;
}
);
unicode = 163;
}
{
glyphname = yen;
layers = (
{
layerId = m002;
shapes = (
{
closed = 1;
nodes = (
(506,340,l),
(286,335,l),
(66,340,l),
(66,275,l),
(506,275,l)
);
},
{
closed = 1;
nodes = (
(506,215,l),
(66,215,l),
(66,150,l),
(286,155,l),
(506,150,l)
);
},
{
ref = Y;
}
);
width = 600;
},
{
layerId = m003;
shapes = (
{
closed = 1;
nodes = (
(506,340,l),
(286,335,l),
(66,340,l),
(66,275,l),
(506,275,l)
);
},
{
closed = 1;
nodes = (
(486,215,l),
(46,215,l),
(46,150,l),
(266,155,l),
(486,150,l)
);
},
{
ref = Y;
}
);
width = 600;
},
{
layerId = m004;
shapes = (
{
closed = 1;
nodes = (
(506,380,l),
(286,355,l),
(66,380,l),
(66,275,l),
(506,275,l)
);
},
{
closed = 1;
nodes = (
(506,215,l),
(66,215,l),
(66,120,l),
(286,125,l),
(506,120,l)
);
},
{
ref = Y;
}
);
width = 600;
},
{
layerId = m005;
shapes = (
{
closed = 1;
nodes = (
(526,380,l),
(306,355,l),
(86,380,l),
(86,275,l),
(526,275,l)
);
},
{
closed = 1;
nodes = (
(506,215,l),
(66,215,l),
(66,120,l),
(286,125,l),
(506,120,l)
);
},
{
ref = Y;
}
);
width = 600;
},
{
layerId = m006;
shapes = (
{
closed = 1;
nodes = (
(506,290,l),
(286,285,l),
(66,290,l),
(66,255,l),
(506,255,l)
);
},
{
closed = 1;
nodes = (
(506,185,l),
(66,185,l),
(66,150,l),
(286,155,l),
(506,150,l)
);
},
{
ref = Y;
}
);
width = 600;
},
{
layerId = m007;
shapes = (
{
closed = 1;
nodes = (
(506,290,l),
(286,285,l),
(66,290,l),
(66,255,l),
(506,255,l)
);
},
{
closed = 1;
nodes = (
(486,185,l),
(46,185,l),
(46,150,l),
(266,155,l),
(486,150,l)
);
},
{
ref = Y;
}
);
width = 600;
}
);
unicode = 165;
}
{
glyphname = section;
layers = (
{
background = {
shapes = (
{
closed = 1;
nodes = (
(469,19,l),
(513,32,o),
(566,94,o),
(566,171,cs),
(566,314,o),
(469,358,o),
(313,415,cs),
(247,439,o),
(184,469,o),
(184,533,cs),
(184,595,o),
(233,644,o),
(307,644,cs),
(358,644,o),
(417,625,o),
(469,587,c),
(517,653,l),
(465,695,o),
(405,715,o),
(346,715,cs),
(215,715,o),
(111,629,o),
(111,513,cs),
(111,296,o),
(485,364,o),
(485,167,cs),
(485,95,o),
(435,51,o),
(409,64,c)
);
},
{
closed = 1;
nodes = (
(175,452,l),
(124,416,o),
(91,354,o),
(91,293,cs),
(91,179,o),
(187,143,o),
(281,109,cs),
(369,76,o),
(445,45,o),
(445,-43,cs),
(445,-189,o),
(246,-214,o),
(125,-72,c),
(65,-145,l),
(224,-312,o),
(526,-231,o),
(526,-39,cs),
(526,104,o),
(416,147,o),
(313,185,cs),
(234,214,o),
(164,239,o),
(164,313,cs),
(164,358,o),
(190,393,o),
(223,415,c)
);
}
);
};
layerId = m002;
shapes = (
{
closed = 1;
nodes = (
(469,19,l),
(513,32,o),
(566,94,o),
(566,171,cs),
(566,445,o),
(184,369,o),
(184,533,cs),
(184,595,o),
(233,644,o),
(307,644,cs),
(358,644,o),
(417,625,o),
(469,587,c),
(517,653,l),
(465,695,o),
(405,715,o),
(346,715,cs),
(215,715,o),
(111,629,o),
(111,513,cs),
(111,296,o),
(485,364,o),
(485,167,cs),
(485,95,o),
(435,51,o),
(409,64,c)
);
},
{
closed = 1;
nodes = (
(175,452,l),
(124,416,o),
(91,354,o),
(91,293,cs),
(91,179,o),
(187,143,o),
(281,109,cs),
(369,76,o),
(445,45,o),
(445,-33,cs),
(445,-189,o),
(246,-214,o),
(125,-72,c),
(65,-145,l),
(224,-312,o),
(526,-231,o),
(526,-29,cs),
(526,104,o),
(416,147,o),
(313,185,cs),
(234,214,o),
(164,239,o),
(164,313,cs),
(164,358,o),
(190,393,o),
(223,415,c)
);
}
);
width = 611;
}
);
metricLeft = "=S";
metricRight = "=S";
unicode = 167;
}
{
glyphname = copyright;
layers = (
{
background = {
shapes = (
{
closed = 1;
nodes = (
(487,134,o),
(534,154,o),
(622,214,c),
(602,254,l),
(426,149,o),
(331,250,o),
(331,355,cs),
(331,551,o),
(498,512,o),
(589,444,c),
(601,528,l),
(457,632,o),
(248,545,o),
(248,327,cs),
(248,224,o),
(318,134,o),
(437,134,cs)
);
},
{
closed = 1;
nodes = (
(662,-45,o),
(840,133,o),
(840,350,cs),
(840,567,o),
(662,745,o),
(445,745,cs),
(228,745,o),
(50,567,o),
(50,350,cs),
(50,133,o),
(228,-45,o),
(445,-45,cs)
);
},
{
closed = 1;
nodes = (
(256,15,o),
(110,161,o),
(110,350,cs),
(110,539,o),
(256,685,o),
(445,685,cs),
(634,685,o),
(780,539,o),
(780,350,cs),
(780,161,o),
(634,15,o),
(445,15,cs)
);
}
);
};
layerId = m002;
shapes = (
{
closed = 1;
nodes = (
(662,-45,o),
(840,133,o),
(840,350,cs),
(840,567,o),
(662,745,o),
(445,745,cs),
(228,745,o),
(50,567,o),
(50,350,cs),
(50,133,o),
(228,-45,o),
(445,-45,cs)
);
},
{
closed = 1;
nodes = (
(256,15,o),
(110,161,o),
(110,350,cs),
(110,539,o),
(256,685,o),
(445,685,cs),
(634,685,o),
(780,539,o),
(780,350,cs),
(780,161,o),
(634,15,o),
(445,15,cs)
);
},
{
closed = 1;
nodes = (
(596,545,l),
(409,654,o),
(229,489,o),
(229,344,cs),
(229,128,o),
(456,52,o),
(616,197,c),
(593,232,l),
(443,148,o),
(309,199,o),
(309,369,cs),
(309,464,o),
(365,507,o),
(449,507,cs),
(492,507,o),
(537,492,o),
(581,463,c)
);
}
);
width = 890;
},
{
background = {
shapes = (
{
closed = 1;
nodes = (
(487,134,o),
(534,154,o),
(622,214,c),
(602,254,l),
(426,149,o),
(331,250,o),
(331,355,cs),
(331,551,o),
(498,512,o),
(589,444,c),
(601,528,l),
(457,632,o),
(248,545,o),
(248,327,cs),
(248,224,o),
(318,134,o),
(437,134,cs)
);
},
{
closed = 1;
nodes = (
(662,-45,o),
(840,133,o),
(840,350,cs),
(840,567,o),
(662,745,o),
(445,745,cs),
(228,745,o),
(50,567,o),
(50,350,cs),
(50,133,o),
(228,-45,o),
(445,-45,cs)
);
},
{
closed = 1;
nodes = (
(256,15,o),
(110,161,o),
(110,350,cs),
(110,539,o),
(256,685,o),
(445,685,cs),
(634,685,o),
(780,539,o),
(780,350,cs),
(780,161,o),
(634,15,o),
(445,15,cs)
);
}
);
};
layerId = m003;
shapes = (
{
closed = 1;
nodes = (
(662,-45,o),
(840,133,o),
(840,350,cs),
(840,567,o),
(662,745,o),
(445,745,cs),
(228,745,o),
(50,567,o),
(50,350,cs),
(50,133,o),
(228,-45,o),
(445,-45,cs)
);
},
{
closed = 1;
nodes = (
(256,15,o),
(110,161,o),
(110,350,cs),
(110,539,o),
(256,685,o),
(445,685,cs),
(634,685,o),
(780,539,o),
(780,350,cs),
(780,161,o),
(634,15,o),
(445,15,cs)
);
},
{
closed = 1;
nodes = (
(596,545,l),
(409,654,o),
(229,489,o),
(229,344,cs),
(229,128,o),
(456,52,o),
(616,197,c),
(593,232,l),
(443,148,o),
(309,199,o),
(309,369,cs),
(309,464,o),
(365,507,o),
(449,507,cs),
(492,507,o),
(537,492,o),
(581,463,c)
);
}
);
width = 890;
},
{
background = {
shapes = (
{
closed = 1;
nodes = (
(662,-45,o),
(840,133,o),
(840,350,cs),
(840,567,o),
(662,745,o),
(445,745,cs),
(228,745,o),
(50,567,o),
(50,350,cs),
(50,133,o),
(228,-45,o),
(445,-45,cs)
);
},
{
closed = 1;
nodes = (
(262,25,o),
(120,167,o),
(120,350,cs),
(120,533,o),
(262,675,o),
(445,675,cs),
(628,675,o),
(770,533,o),
(770,350,cs),
(770,167,o),
(628,25,o),
(445,25,cs)
);
},
{
closed = 1;
nodes = (
(351,286,o),
(351,361,cs),
(351,487,o),
(458,478,o),
(579,440,c),
(591,554,l),
(438,604,o),
(238,510,o),
(238,333,cs),
(238,240,o),
(308,130,o),
(427,130,cs),
(477,130,o),
(524,150,o),
(612,210,c),
(592,280,l),
(416,185,o)
);
}
);
};
layerId = m004;
shapes = (
{
closed = 1;
nodes = (
(670,-60,o),
(855,125,o),
(855,350,cs),
(855,575,o),
(670,760,o),
(445,760,cs),
(220,760,o),
(35,575,o),
(35,350,cs),
(35,125,o),
(220,-60,o),
(445,-60,cs)
);
},
{
closed = 1;
nodes = (
(262,25,o),
(120,167,o),
(120,350,cs),
(120,533,o),
(262,675,o),
(445,675,cs),
(628,675,o),
(770,533,o),
(770,350,cs),
(770,167,o),
(628,25,o),
(445,25,cs)
);
},
{
closed = 1;
nodes = (
(591,534,l),
(438,614,o),
(238,520,o),
(238,343,cs),
(238,133,o),
(480,76,o),
(612,220,c),
(592,290,l),
(416,195,o),
(351,296,o),
(351,371,cs),
(351,441,o),
(384,469,o),
(433,469,cs),
(474,469,o),
(525,450,o),
(579,420,c)
);
}
);
width = 890;
},
{
background = {
shapes = (
{
closed = 1;
nodes = (
(662,-45,o),
(840,133,o),
(840,350,cs),
(840,567,o),
(662,745,o),
(445,745,cs),
(228,745,o),
(50,567,o),
(50,350,cs),
(50,133,o),
(228,-45,o),
(445,-45,cs)
);
},
{
closed = 1;
nodes = (
(262,25,o),
(120,167,o),
(120,350,cs),
(120,533,o),
(262,675,o),
(445,675,cs),
(628,675,o),
(770,533,o),
(770,350,cs),
(770,167,o),
(628,25,o),
(445,25,cs)
);
},
{
closed = 1;
nodes = (
(351,286,o),
(351,361,cs),
(351,487,o),
(458,478,o),
(579,440,c),
(591,554,l),
(438,604,o),
(238,510,o),
(238,333,cs),
(238,240,o),
(308,130,o),
(427,130,cs),
(477,130,o),
(524,150,o),
(612,210,c),
(592,280,l),
(416,185,o)
);
}
);
};
layerId = m005;
shapes = (
{
closed = 1;
nodes = (
(670,-60,o),
(855,125,o),
(855,350,cs),
(855,575,o),
(670,760,o),
(445,760,cs),
(220,760,o),
(35,575,o),
(35,350,cs),
(35,125,o),
(220,-60,o),
(445,-60,cs)
);
},
{
closed = 1;
nodes = (
(262,25,o),
(120,167,o),
(120,350,cs),
(120,533,o),
(262,675,o),
(445,675,cs),
(628,675,o),
(770,533,o),
(770,350,cs),
(770,167,o),
(628,25,o),
(445,25,cs)
);
},
{
closed = 1;
nodes = (
(591,534,l),
(438,614,o),
(238,520,o),
(238,343,cs),
(238,133,o),
(480,76,o),
(612,220,c),
(592,290,l),
(416,195,o),
(351,296,o),
(351,371,cs),
(351,441,o),
(384,469,o),
(433,469,cs),
(474,469,o),
(525,450,o),
(579,420,c)
);
}
);
width = 890;
},
{
background = {
shapes = (
{
closed = 1;
nodes = (
(487,134,o),
(534,154,o),
(622,214,c),
(602,254,l),
(426,149,o),
(331,250,o),
(331,355,cs),
(331,551,o),
(498,512,o),
(589,444,c),
(601,528,l),
(457,632,o),
(248,545,o),
(248,327,cs),
(248,224,o),
(318,134,o),
(437,134,cs)
);
},
{
closed = 1;
nodes = (
(662,-45,o),
(840,133,o),
(840,350,cs),
(840,567,o),
(662,745,o),
(445,745,cs),
(228,745,o),
(50,567,o),
(50,350,cs),
(50,133,o),
(228,-45,o),
(445,-45,cs)
);
},
{
closed = 1;
nodes = (
(256,15,o),
(110,161,o),
(110,350,cs),
(110,539,o),
(256,685,o),
(445,685,cs),
(634,685,o),
(780,539,o),
(780,350,cs),
(780,161,o),
(634,15,o),
(445,15,cs)
);
}
);
};
layerId = m006;
shapes = (
{
closed = 1;
nodes = (
(662,-45,o),
(840,133,o),
(840,350,cs),
(840,567,o),
(662,745,o),
(445,745,cs),
(228,745,o),
(50,567,o),
(50,350,cs),
(50,133,o),
(228,-45,o),
(445,-45,cs)
);
},
{
closed = 1;
nodes = (
(256,15,o),
(110,161,o),
(110,350,cs),
(110,539,o),
(256,685,o),
(445,685,cs),
(634,685,o),
(780,539,o),
(780,350,cs),
(780,161,o),
(634,15,o),
(445,15,cs)
);
},
{
closed = 1;
nodes = (
(596,545,l),
(409,654,o),
(229,489,o),
(229,344,cs),
(229,128,o),
(456,52,o),
(616,197,c),
(593,232,l),
(443,148,o),
(309,199,o),
(309,369,cs),
(309,464,o),
(365,507,o),
(449,507,cs),
(492,507,o),
(537,492,o),
(581,463,c)
);
}
);
width = 890;
}
);
unicode = 169;
}
{
glyphname = ordfeminine;
layers = (
{
background = {
shapes = (
{
closed = 1;
nodes = (
(332,10,l),
(322,205,l),
(327,340,ls),
(330,427,o),
(269,520,o),
(162,520,cs),
(132,520,o),
(75,500,o),
(-3,450,c),
(-3,400,l),
(139,471,o),
(259,451,o),
(252,300,cs),
(242,89,l),
(247,-10,l)
);
},
{
closed = 1;
nodes = (
(160,-10,o),
(206,27,o),
(244,75,c),
(267,162,l),
(229,94,o),
(185,62,o),
(129,61,cs),
(74,60,o),
(48,98,o),
(48,137,cs),
(48,172,o),
(69,208,o),
(127,223,cs),
(272,260,l),
(272,301,l),
(109,280,ls),
(7,267,o),
(-41,195,o),
(-41,122,cs),
(-41,37,o),
(22,-10,o),
(90,-10,cs)
);
}
);
};
layerId = m002;
shapes = (
{
closed = 1;
nodes = (
(243,445,l),
(239,548,l),
(241,620,ls),
(242,666,o),
(211,715,o),
(154,715,cs),
(138,715,o),
(108,705,o),
(67,678,c),
(67,641,l),
(138,677,o),
(194,668,o),
(191,599,cs),
(186,488,l),
(189,435,l)
);
},
{
closed = 1;
nodes = (
(153,435,o),
(177,465,o),
(198,491,c),
(210,526,l),
(190,500,o),
(166,483,o),
(137,483,cs),
(118,483,o),
(105,492,o),
(105,512,cs),
(105,526,o),
(110,540,o),
(136,547,cs),
(212,567,l),
(212,600,l),
(126,588,ls),
(72,580,o),
(48,544,o),
(48,504,cs),
(48,460,o),
(80,435,o),
(116,435,cs)
);
},
{
closed = 1;
nodes = (
(250,385,l),
(145,383,l),
(40,385,l),
(40,333,l),
(145,335,l),
(250,333,l)
);
}
);
width = 290;
},
{
background = {
shapes = (
{
closed = 1;
nodes = (
(332,10,l),
(322,205,l),
(327,340,ls),
(330,427,o),
(269,520,o),
(162,520,cs),
(132,520,o),
(75,500,o),
(-3,450,c),
(-3,400,l),
(139,471,o),
(259,451,o),
(252,300,cs),
(242,89,l),
(247,-10,l)
);
},
{
closed = 1;
nodes = (
(160,-10,o),
(206,27,o),
(244,75,c),
(267,162,l),
(229,94,o),
(185,62,o),
(129,61,cs),
(74,60,o),
(48,98,o),
(48,137,cs),
(48,172,o),
(69,208,o),
(127,223,cs),
(272,260,l),
(272,301,l),
(109,280,ls),
(7,267,o),
(-41,195,o),
(-41,122,cs),
(-41,37,o),
(22,-10,o),
(90,-10,cs)
);
}
);
};
layerId = m003;
shapes = (
{
closed = 1;
nodes = (
(243,445,l),
(239,548,l),
(241,620,ls),
(242,666,o),
(211,715,o),
(154,715,cs),
(138,715,o),
(108,705,o),
(67,678,c),
(67,641,l),
(138,677,o),
(194,668,o),
(191,599,cs),
(186,488,l),
(189,435,l)
);
},
{
closed = 1;
nodes = (
(153,435,o),
(177,465,o),
(198,491,c),
(210,526,l),
(190,500,o),
(166,483,o),
(137,483,cs),
(118,483,o),
(105,492,o),
(105,512,cs),
(105,526,o),
(110,540,o),
(136,547,cs),
(212,567,l),
(212,600,l),
(126,588,ls),
(72,580,o),
(48,544,o),
(48,504,cs),
(48,460,o),
(80,435,o),
(116,435,cs)
);
},
{
closed = 1;
nodes = (
(250,385,l),
(145,383,l),
(40,385,l),
(40,333,l),
(145,335,l),
(250,333,l)
);
}
);
width = 290;
},
{
background = {
shapes = (
{
closed = 1;
nodes = (
(332,10,l),
(322,205,l),
(327,340,ls),
(330,427,o),
(269,520,o),
(162,520,cs),
(132,520,o),
(75,500,o),
(-3,450,c),
(-3,400,l),
(139,471,o),
(259,451,o),
(252,300,cs),
(242,89,l),
(247,-10,l)
);
},
{
closed = 1;
nodes = (
(160,-10,o),
(206,27,o),
(244,75,c),
(267,162,l),
(229,94,o),
(185,62,o),
(129,61,cs),
(74,60,o),
(48,98,o),
(48,137,cs),
(48,172,o),
(69,208,o),
(127,223,cs),
(272,260,l),
(272,301,l),
(109,280,ls),
(7,267,o),
(-41,195,o),
(-41,122,cs),
(-41,37,o),
(22,-10,o),
(90,-10,cs)
);
}
);
};
layerId = m006;
shapes = (
{
closed = 1;
nodes = (
(243,445,l),
(239,548,l),
(241,620,ls),
(242,666,o),
(211,715,o),
(154,715,cs),
(138,715,o),
(108,705,o),
(67,678,c),
(67,641,l),
(138,677,o),
(194,668,o),
(191,599,cs),
(186,488,l),
(189,435,l)
);
},
{
closed = 1;
nodes = (
(153,435,o),
(177,465,o),
(198,491,c),
(210,526,l),
(190,500,o),
(166,483,o),
(137,483,cs),
(118,483,o),
(105,492,o),
(105,512,cs),
(105,526,o),
(110,540,o),
(136,547,cs),
(212,567,l),
(212,600,l),
(126,588,ls),
(72,580,o),
(48,544,o),
(48,504,cs),
(48,460,o),
(80,435,o),
(116,435,cs)
);
},
{
closed = 1;
nodes = (
(250,385,l),
(145,383,l),
(40,385,l),
(40,333,l),
(145,335,l),
(250,333,l)
);
}
);
width = 290;
},
{
background = {
shapes = (
{
closed = 1;
nodes = (
(332,10,l),
(322,205,l),
(327,340,ls),
(330,427,o),
(269,520,o),
(162,520,cs),
(132,520,o),
(75,500,o),
(-3,450,c),
(-3,400,l),
(139,471,o),
(259,451,o),
(252,300,cs),
(242,89,l),
(247,-10,l)
);
},
{
closed = 1;
nodes = (
(160,-10,o),
(206,27,o),
(244,75,c),
(267,162,l),
(229,94,o),
(185,62,o),
(129,61,cs),
(74,60,o),
(48,98,o),
(48,137,cs),
(48,172,o),
(69,208,o),
(127,223,cs),
(272,260,l),
(272,301,l),
(109,280,ls),
(7,267,o),
(-41,195,o),
(-41,122,cs),
(-41,37,o),
(22,-10,o),
(90,-10,cs)
);
}
);
};
layerId = m007;
shapes = (
{
closed = 1;
nodes = (
(243,445,l),
(239,548,l),
(241,620,ls),
(242,666,o),
(211,715,o),
(154,715,cs),
(138,715,o),
(108,705,o),
(67,678,c),
(67,641,l),
(138,677,o),
(194,668,o),
(191,599,cs),
(186,488,l),
(189,435,l)
);
},
{
closed = 1;
nodes = (
(153,435,o),
(177,465,o),
(198,491,c),
(210,526,l),
(190,500,o),
(166,483,o),
(137,483,cs),
(118,483,o),
(105,492,o),
(105,512,cs),
(105,526,o),
(110,540,o),
(136,547,cs),
(212,567,l),
(212,600,l),
(126,588,ls),
(72,580,o),
(48,544,o),
(48,504,cs),
(48,460,o),
(80,435,o),
(116,435,cs)
);
},
{
closed = 1;
nodes = (
(250,385,l),
(145,383,l),
(40,385,l),
(40,333,l),
(145,335,l),
(250,333,l)
);
}
);
width = 290;
},
{
background = {
shapes = (
{
closed = 1;
nodes = (
(332,10,l),
(322,205,l),
(327,340,ls),
(330,427,o),
(269,520,o),
(162,520,cs),
(132,520,o),
(75,500,o),
(-3,450,c),
(-3,400,l),
(139,471,o),
(259,451,o),
(252,300,cs),
(242,89,l),
(247,-10,l)
);
},
{
closed = 1;
nodes = (
(160,-10,o),
(206,27,o),
(244,75,c),
(267,162,l),
(229,94,o),
(185,62,o),
(129,61,cs),
(74,60,o),
(48,98,o),
(48,137,cs),
(48,172,o),
(69,208,o),
(127,223,cs),
(272,260,l),
(272,301,l),
(109,280,ls),
(7,267,o),
(-41,195,o),
(-41,122,cs),
(-41,37,o),
(22,-10,o),
(90,-10,cs)
);
}
);
};
layerId = m008;
shapes = (
{
closed = 1;
nodes = (
(243,445,l),
(239,548,l),
(241,620,ls),
(242,666,o),
(211,715,o),
(154,715,cs),
(138,715,o),
(108,705,o),
(67,678,c),
(67,641,l),
(138,677,o),
(194,668,o),
(191,599,cs),
(186,488,l),
(189,435,l)
);
},
{
closed = 1;
nodes = (
(153,435,o),
(177,465,o),
(198,491,c),
(210,526,l),
(190,500,o),
(166,483,o),
(137,483,cs),
(118,483,o),
(105,492,o),
(105,512,cs),
(105,526,o),
(110,540,o),
(136,547,cs),
(212,567,l),
(212,600,l),
(126,588,ls),
(72,580,o),
(48,544,o),
(48,504,cs),
(48,460,o),
(80,435,o),
(116,435,cs)
);
},
{
closed = 1;
nodes = (
(250,385,l),
(145,383,l),
(40,385,l),
(40,333,l),
(145,335,l),
(250,333,l)
);
}
);
width = 290;
},
{
background = {
shapes = (
{
closed = 1;
nodes = (
(332,10,l),
(322,205,l),
(327,340,ls),
(330,427,o),
(269,520,o),
(162,520,cs),
(132,520,o),
(75,500,o),
(-3,450,c),
(-3,400,l),
(139,471,o),
(259,451,o),
(252,300,cs),
(242,89,l),
(247,-10,l)
);
},
{
closed = 1;
nodes = (
(160,-10,o),
(206,27,o),
(244,75,c),
(267,162,l),
(229,94,o),
(185,62,o),
(129,61,cs),
(74,60,o),
(48,98,o),
(48,137,cs),
(48,172,o),
(69,208,o),
(127,223,cs),
(272,260,l),
(272,301,l),
(109,280,ls),
(7,267,o),
(-41,195,o),
(-41,122,cs),
(-41,37,o),
(22,-10,o),
(90,-10,cs)
);
}
);
};
layerId = m009;
shapes = (
{
closed = 1;
nodes = (
(243,445,l),
(239,548,l),
(241,620,ls),
(242,666,o),
(211,715,o),
(154,715,cs),
(138,715,o),
(108,705,o),
(67,678,c),
(67,641,l),
(138,677,o),
(194,668,o),
(191,599,cs),
(186,488,l),
(189,435,l)
);
},
{
closed = 1;
nodes = (
(153,435,o),
(177,465,o),
(198,491,c),
(210,526,l),
(190,500,o),
(166,483,o),
(137,483,cs),
(118,483,o),
(105,492,o),
(105,512,cs),
(105,526,o),
(110,540,o),
(136,547,cs),
(212,567,l),
(212,600,l),
(126,588,ls),
(72,580,o),
(48,544,o),
(48,504,cs),
(48,460,o),
(80,435,o),
(116,435,cs)
);
},
{
closed = 1;
nodes = (
(250,385,l),
(145,383,l),
(40,385,l),
(40,333,l),
(145,335,l),
(250,333,l)
);
}
);
width = 290;
}
);
unicode = 170;
}
{
glyphname = degree;
layers = (
{
layerId = m002;
shapes = (
{
closed = 1;
nodes = (
(95,715,o),
(30,655,o),
(30,586,cs),
(30,528,o),
(72,465,o),
(151,465,cs),
(220,465,o),
(284,525,o),
(284,594,cs),
(284,653,o),
(242,715,o),
(163,715,cs)
);
},
{
closed = 1;
nodes = (
(91,645,o),
(117,660,o),
(154,660,cs),
(201,660,o),
(223,617,o),
(223,579,cs),
(223,535,o),
(197,520,o),
(160,520,cs),
(113,520,o),
(91,563,o),
(91,602,cs)
);
}
);
width = 314;
}
);
unicode = 176;
}
{
glyphname = paragraph;
layers = (
{
layerId = m002;
shapes = (
{
closed = 1;
nodes = (
(302,700,ls),
(144,700,o),
(65,600,o),
(65,501,cs),
(65,405,o),
(140,310,o),
(290,310,cs),
(403,310,l),
(403,700,l)
);
},
{
closed = 1;
nodes = (
(403,369,l),
(330,316,l),
(315,-300,l),
(403,-300,l)
);
},
{
closed = 1;
nodes = (
(466,-300,l),
(541,-300,l),
(536,250,l),
(541,700,l),
(466,700,l)
);
}
);
width = 606;
},
{
layerId = m003;
shapes = (
{
closed = 1;
nodes = (
(302,700,ls),
(144,700,o),
(65,600,o),
(65,501,cs),
(65,405,o),
(140,310,o),
(290,310,cs),
(403,310,l),
(403,700,l)
);
},
{
closed = 1;
nodes = (
(403,369,l),
(330,316,l),
(315,-300,l),
(403,-300,l)
);
},
{
closed = 1;
nodes = (
(466,-300,l),
(541,-300,l),
(536,250,l),
(541,700,l),
(466,700,l)
);
}
);
width = 606;
},
{
layerId = m004;
shapes = (
{
closed = 1;
nodes = (
(302,700,ls),
(144,700,o),
(65,600,o),
(65,501,cs),
(65,405,o),
(140,310,o),
(290,310,cs),
(403,310,l),
(403,700,l)
);
},
{
closed = 1;
nodes = (
(403,369,l),
(300,316,l),
(275,-300,l),
(403,-300,l)
);
},
{
closed = 1;
nodes = (
(466,-300,l),
(581,-300,l),
(576,250,l),
(581,700,l),
(466,700,l)
);
}
);
width = 646;
},
{
layerId = m005;
shapes = (
{
closed = 1;
nodes = (
(302,700,ls),
(144,700,o),
(65,600,o),
(65,501,cs),
(65,405,o),
(140,310,o),
(290,310,cs),
(403,310,l),
(403,700,l)
);
},
{
closed = 1;
nodes = (
(403,369,l),
(300,316,l),
(275,-300,l),
(403,-300,l)
);
},
{
closed = 1;
nodes = (
(466,-300,l),
(581,-300,l),
(576,250,l),
(581,700,l),
(466,700,l)
);
}
);
width = 646;
},
{
layerId = m006;
shapes = (
{
closed = 1;
nodes = (
(302,700,ls),
(144,700,o),
(65,600,o),
(65,501,cs),
(65,405,o),
(140,310,o),
(290,310,cs),
(403,310,l),
(403,700,l)
);
},
{
closed = 1;
nodes = (
(403,369,l),
(330,316,l),
(315,-300,l),
(403,-300,l)
);
},
{
closed = 1;
nodes = (
(466,-300,l),
(541,-300,l),
(536,250,l),
(541,700,l),
(466,700,l)
);
}
);
width = 606;
}
);
unicode = 182;
}
{
glyphname = ordmasculine;
layers = (
{
layerId = m002;
shapes = (
{
closed = 1;
nodes = (
(101,715,o),
(40,652,o),
(40,572,cs),
(40,500,o),
(78,435,o),
(153,435,cs),
(219,435,o),
(280,498,o),
(280,578,cs),
(280,650,o),
(242,715,o),
(167,715,cs)
);
},
{
closed = 1;
nodes = (
(95,644,o),
(119,662,o),
(158,662,cs),
(204,662,o),
(225,616,o),
(225,563,cs),
(225,506,o),
(201,488,o),
(162,488,cs),
(116,488,o),
(95,534,o),
(95,587,cs)
);
},
{
closed = 1;
nodes = (
(280,385,l),
(160,383,l),
(40,385,l),
(40,333,l),
(160,335,l),
(280,333,l)
);
}
);
width = 320;
},
{
layerId = m003;
shapes = (
{
closed = 1;
nodes = (
(101,715,o),
(40,652,o),
(40,572,cs),
(40,500,o),
(78,435,o),
(153,435,cs),
(219,435,o),
(280,498,o),
(280,578,cs),
(280,650,o),
(242,715,o),
(167,715,cs)
);
},
{
closed = 1;
nodes = (
(95,644,o),
(119,662,o),
(158,662,cs),
(204,662,o),
(225,616,o),
(225,563,cs),
(225,506,o),
(201,488,o),
(162,488,cs),
(116,488,o),
(95,534,o),
(95,587,cs)
);
},
{
closed = 1;
nodes = (
(280,385,l),
(160,383,l),
(40,385,l),
(40,333,l),
(160,335,l),
(280,333,l)
);
}
);
width = 320;
},
{
layerId = m006;
shapes = (
{
closed = 1;
nodes = (
(101,715,o),
(40,652,o),
(40,572,cs),
(40,500,o),
(78,435,o),
(153,435,cs),
(219,435,o),
(280,498,o),
(280,578,cs),
(280,650,o),
(242,715,o),
(167,715,cs)
);
},
{
closed = 1;
nodes = (
(66,654,o),
(117,687,o),
(157,687,cs),
(217,687,o),
(254,638,o),
(254,570,cs),
(254,496,o),
(203,463,o),
(163,463,cs),
(103,463,o),
(66,512,o),
(66,580,cs)
);
},
{
closed = 1;
nodes = (
(280,385,l),
(160,383,l),
(40,385,l),
(40,353,l),
(160,355,l),
(280,353,l)
);
}
);
width = 320;
},
{
layerId = m007;
shapes = (
{
closed = 1;
nodes = (
(101,715,o),
(40,652,o),
(40,572,cs),
(40,500,o),
(78,435,o),
(153,435,cs),
(219,435,o),
(280,498,o),
(280,578,cs),
(280,650,o),
(242,715,o),
(167,715,cs)
);
},
{
closed = 1;
nodes = (
(95,644,o),
(119,662,o),
(158,662,cs),
(204,662,o),
(225,616,o),
(225,563,cs),
(225,506,o),
(201,488,o),
(162,488,cs),
(116,488,o),
(95,534,o),
(95,587,cs)
);
},
{
closed = 1;
nodes = (
(280,385,l),
(160,383,l),
(40,385,l),
(40,333,l),
(160,335,l),
(280,333,l)
);
}
);
width = 320;
},
{
layerId = m008;
shapes = (
{
closed = 1;
nodes = (
(101,715,o),
(40,652,o),
(40,572,cs),
(40,500,o),
(78,435,o),
(153,435,cs),
(219,435,o),
(280,498,o),
(280,578,cs),
(280,650,o),
(242,715,o),
(167,715,cs)
);
},
{
closed = 1;
nodes = (
(95,644,o),
(119,662,o),
(158,662,cs),
(204,662,o),
(225,616,o),
(225,563,cs),
(225,506,o),
(201,488,o),
(162,488,cs),
(116,488,o),
(95,534,o),
(95,587,cs)
);
},
{
closed = 1;
nodes = (
(280,385,l),
(160,383,l),
(40,385,l),
(40,333,l),
(160,335,l),
(280,333,l)
);
}
);
width = 320;
},
{
layerId = m009;
shapes = (
{
closed = 1;
nodes = (
(101,715,o),
(40,652,o),
(40,572,cs),
(40,500,o),
(78,435,o),
(153,435,cs),
(219,435,o),
(280,498,o),
(280,578,cs),
(280,650,o),
(242,715,o),
(167,715,cs)
);
},
{
closed = 1;
nodes = (
(95,644,o),
(119,662,o),
(158,662,cs),
(204,662,o),
(225,616,o),
(225,563,cs),
(225,506,o),
(201,488,o),
(162,488,cs),
(116,488,o),
(95,534,o),
(95,587,cs)
);
},
{
closed = 1;
nodes = (
(280,385,l),
(160,383,l),
(40,385,l),
(40,333,l),
(160,335,l),
(280,333,l)
);
}
);
width = 320;
}
);
unicode = 186;
}
{
glyphname = AE;
layers = (
{
layerId = m002;
shapes = (
{
closed = 1;
nodes = (
(462,700,l),
(0,0,l),
(110,0,l),
(523,700,l)
);
},
{
closed = 1;
nodes = (
(270,395,l),
(270,325,l),
(480,335,l),
(480,385,l)
);
},
{
closed = 1;
nodes = (
(740,395,l),
(630,390,l),
(540,390,l),
(540,330,l),
(630,330,l),
(740,325,l)
);
},
{
closed = 1;
nodes = (
(470,500,l),
(465,0,l),
(555,0,l),
(550,250,l),
(555,700,l),
(465,700,l)
);
},
{
closed = 1;
nodes = (
(520,635,l),
(610,640,l),
(850,620,l),
(850,700,l),
(520,700,l)
);
},
{
closed = 1;
nodes = (
(880,0,l),
(880,80,l),
(610,60,l),
(550,65,l),
(550,0,l)
);
}
);
width = 900;
}
);
metricLeft = "=A";
metricRight = "=E";
unicode = 198;
}
{
glyphname = Eth;
layers = (
{
layerId = m002;
shapes = (
{
closed = 1;
nodes = (
(340,395,l),
(170,390,l),
(20,395,l),
(20,325,l),
(170,330,l),
(340,325,l)
);
},
{
pos = (50,0);
ref = D;
}
);
width = 755;
},
{
layerId = m003;
shapes = (
{
closed = 1;
nodes = (
(360,395,l),
(190,390,l),
(40,395,l),
(31,325,l),
(181,330,l),
(351,325,l)
);
},
{
pos = (40,0);
ref = D;
}
);
width = 769;
},
{
layerId = m006;
shapes = (
{
closed = 1;
nodes = (
(340,378,l),
(140,375,l),
(20,378,l),
(20,342,l),
(140,345,l),
(340,342,l)
);
},
{
pos = (50,0);
ref = D;
}
);
width = 755;
},
{
layerId = m007;
shapes = (
{
closed = 1;
nodes = (
(300,378,l),
(140,375,l),
(20,378,l),
(20,342,l),
(140,345,l),
(300,342,l)
);
},
{
pos = (50,0);
ref = D;
}
);
width = 755;
},
{
layerId = m008;
shapes = (
{
closed = 1;
nodes = (
(360,395,l),
(190,390,l),
(40,395,l),
(40,305,l),
(190,310,l),
(360,305,l)
);
},
{
pos = (50,0);
ref = D;
}
);
width = 755;
},
{
layerId = m009;
shapes = (
{
closed = 1;
nodes = (
(380,395,l),
(210,390,l),
(60,395,l),
(48,305,l),
(198,310,l),
(368,305,l)
);
},
{
pos = (50,0);
ref = D;
}
);
width = 755;
}
);
unicode = 208;
}
{
glyphname = multiply;
layers = (
{
layerId = m002;
shapes = (
{
closed = 1;
nodes = (
(373,420,l),
(239,271,l),
(90,137,l),
(147,80,l),
(281,229,l),
(430,363,l)
);
},
{
closed = 1;
nodes = (
(430,137,l),
(281,271,l),
(147,420,l),
(90,363,l),
(239,229,l),
(373,80,l)
);
}
);
width = 520;
},
{
layerId = m003;
shapes = (
{
closed = 1;
nodes = (
(373,420,l),
(239,271,l),
(90,137,l),
(147,80,l),
(281,229,l),
(430,363,l)
);
},
{
closed = 1;
nodes = (
(430,137,l),
(281,271,l),
(147,420,l),
(90,363,l),
(239,229,l),
(373,80,l)
);
}
);
width = 520;
},
{
background = {
shapes = (
{
closed = 1;
nodes = (
(373,420,l),
(239,271,l),
(90,137,l),
(147,80,l),
(281,229,l),
(430,363,l)
);
},
{
closed = 1;
nodes = (
(430,137,l),
(281,271,l),
(147,420,l),
(90,363,l),
(239,229,l),
(373,80,l)
);
}
);
};
layerId = m004;
shapes = (
{
closed = 1;
nodes = (
(359,434,l),
(225,285,l),
(76,151,l),
(161,66,l),
(295,215,l),
(444,349,l)
);
},
{
closed = 1;
nodes = (
(444,151,l),
(295,285,l),
(161,434,l),
(76,349,l),
(225,215,l),
(359,66,l)
);
}
);
width = 520;
},
{
background = {
shapes = (
{
closed = 1;
nodes = (
(373,420,l),
(239,271,l),
(90,137,l),
(147,80,l),
(281,229,l),
(430,363,l)
);
},
{
closed = 1;
nodes = (
(430,137,l),
(281,271,l),
(147,420,l),
(90,363,l),
(239,229,l),
(373,80,l)
);
}
);
};
layerId = m005;
shapes = (
{
closed = 1;
nodes = (
(359,434,l),
(225,285,l),
(76,151,l),
(161,66,l),
(295,215,l),
(444,349,l)
);
},
{
closed = 1;
nodes = (
(444,151,l),
(295,285,l),
(161,434,l),
(76,349,l),
(225,215,l),
(359,66,l)
);
}
);
width = 520;
},
{
layerId = m006;
shapes = (
{
closed = 1;
nodes = (
(387,406,l),
(249,261,l),
(104,123,l),
(133,94,l),
(271,239,l),
(416,377,l)
);
},
{
closed = 1;
nodes = (
(416,123,l),
(271,261,l),
(133,406,l),
(104,377,l),
(249,239,l),
(387,94,l)
);
}
);
width = 520;
},
{
layerId = m007;
shapes = (
{
closed = 1;
nodes = (
(387,406,l),
(249,261,l),
(104,123,l),
(133,94,l),
(271,239,l),
(416,377,l)
);
},
{
closed = 1;
nodes = (
(416,123,l),
(271,261,l),
(133,406,l),
(104,377,l),
(249,239,l),
(387,94,l)
);
}
);
width = 520;
},
{
layerId = m008;
shapes = (
{
closed = 1;
nodes = (
(373,420,l),
(239,271,l),
(90,137,l),
(147,80,l),
(281,229,l),
(430,363,l)
);
},
{
closed = 1;
nodes = (
(430,137,l),
(281,271,l),
(147,420,l),
(90,363,l),
(239,229,l),
(373,80,l)
);
}
);
width = 520;
}
);
unicode = 215;
}
{
glyphname = Oslash;
layers = (
{
layerId = m002;
shapes = (
{
ref = O;
},
{
closed = 1;
nodes = (
(47,25,l),
(92,-15,l),
(748,675,l),
(703,715,l)
);
}
);
width = 795;
},
{
layerId = m003;
shapes = (
{
ref = O;
},
{
closed = 1;
nodes = (
(47,25,l),
(92,-15,l),
(748,675,l),
(703,715,l)
);
}
);
width = 795;
},
{
layerId = m006;
shapes = (
{
ref = O;
},
{
closed = 1;
nodes = (
(60,14,l),
(79,-4,l),
(735,686,l),
(716,704,l)
);
}
);
width = 795;
},
{
layerId = m007;
shapes = (
{
ref = O;
},
{
closed = 1;
nodes = (
(60,14,l),
(79,-4,l),
(735,686,l),
(716,704,l)
);
}
);
width = 795;
},
{
layerId = m008;
shapes = (
{
ref = O;
},
{
closed = 1;
nodes = (
(37,35,l),
(102,-25,l),
(758,665,l),
(693,725,l)
);
}
);
width = 795;
},
{
layerId = m009;
shapes = (
{
ref = O;
},
{
closed = 1;
nodes = (
(37,35,l),
(102,-25,l),
(758,665,l),
(693,725,l)
);
}
);
width = 795;
}
);
unicode = 216;
}
{
glyphname = Thorn;
layers = (
{
layerId = m002;
shapes = (
{
closed = 1;
nodes = (
(73,130,l),
(254,130,ls),
(423,130,o),
(530,232,o),
(530,351,cs),
(530,448,o),
(474,570,o),
(266,570,cs),
(69,570,l),
(138,508,l),
(252,510,ls),
(378,512,o),
(435,437,o),
(435,353,cs),
(435,253,o),
(361,187,o),
(254,190,cs),
(135,193,l)
);
},
{
closed = 1;
nodes = (
(70,500,l),
(65,0,l),
(155,0,l),
(150,250,l),
(155,700,l),
(65,700,l)
);
}
);
width = 560;
}
);
metricWidth = "=P";
unicode = 222;
}
{
glyphname = ae;
layers = (
{
anchors = (
{
name = bottom;
pos = (385,0);
},
{
name = top;
pos = (385,500);
}
);
background = {
shapes = (
{
closed = 1;
nodes = (
(413,205,l),
(418,340,ls),
(421,427,o),
(360,520,o),
(253,520,cs),
(223,520,o),
(166,500,o),
(88,450,c),
(88,400,l),
(230,471,o),
(350,451,o),
(343,300,cs),
(333,89,l)
);
},
{
closed = 1;
nodes = (
(251,-10,o),
(297,27,o),
(335,75,c),
(358,162,l),
(320,94,o),
(276,62,o),
(220,61,cs),
(165,60,o),
(139,98,o),
(139,137,cs),
(139,172,o),
(160,208,o),
(218,223,cs),
(363,260,l),
(363,301,l),
(200,280,ls),
(98,267,o),
(50,195,o),
(50,122,cs),
(50,37,o),
(113,-10,o),
(181,-10,cs)
);
},
{
closed = 1;
nodes = (
(534,15,o),
(419,101,o),
(419,256,cs),
(419,413,o),
(485,449,o),
(538,449,cs),
(584,449,o),
(634,407,o),
(636,328,c),
(718,328,l),
(714,456,o),
(630,520,o),
(558,520,cs),
(457,520,o),
(336,414,o),
(336,231,cs),
(336,118,o),
(416,-10,o),
(535,-10,cs),
(585,-10,o),
(642,10,o),
(730,70,c),
(710,110,l)
);
},
{
closed = 1;
nodes = (
(385,288,l),
(718,288,l),
(718,328,l),
(665,343,l),
(385,333,l)
);
}
);
};
layerId = m002;
shapes = (
{
closed = 1;
nodes = (
(413,205,l),
(418,340,ls),
(421,427,o),
(360,520,o),
(253,520,cs),
(223,520,o),
(166,500,o),
(88,450,c),
(88,400,l),
(230,471,o),
(350,445,o),
(343,294,c)
);
},
{
closed = 1;
nodes = (
(251,-10,o),
(317,20,o),
(387,114,c),
(358,162,l),
(320,94,o),
(276,62,o),
(220,61,cs),
(165,60,o),
(139,98,o),
(139,137,cs),
(139,172,o),
(160,208,o),
(218,223,cs),
(363,260,l),
(363,301,l),
(200,280,ls),
(98,267,o),
(50,195,o),
(50,122,cs),
(50,37,o),
(113,-10,o),
(181,-10,cs)
);
},
{
closed = 1;
nodes = (
(534,15,o),
(419,101,o),
(419,256,cs),
(419,413,o),
(485,449,o),
(538,449,cs),
(584,449,o),
(634,407,o),
(636,328,c),
(718,328,l),
(714,456,o),
(630,520,o),
(558,520,cs),
(457,520,o),
(342,414,o),
(342,231,cs),
(342,118,o),
(416,-10,o),
(535,-10,cs),
(585,-10,o),
(642,10,o),
(730,70,c),
(710,110,l)
);
},
{
closed = 1;
nodes = (
(385,288,l),
(718,288,l),
(718,328,l),
(665,343,l),
(385,333,l)
);
}
);
width = 770;
},
{
anchors = (
{
name = bottom;
pos = (385,0);
},
{
name = top;
pos = (385,500);
}
);
background = {
shapes = (
{
closed = 1;
nodes = (
(413,205,l),
(418,340,ls),
(421,427,o),
(360,520,o),
(253,520,cs),
(223,520,o),
(166,500,o),
(88,450,c),
(88,400,l),
(230,471,o),
(350,451,o),
(343,300,cs),
(333,89,l)
);
},
{
closed = 1;
nodes = (
(251,-10,o),
(297,27,o),
(335,75,c),
(358,162,l),
(320,94,o),
(276,62,o),
(220,61,cs),
(165,60,o),
(139,98,o),
(139,137,cs),
(139,172,o),
(160,208,o),
(218,223,cs),
(363,260,l),
(363,301,l),
(200,280,ls),
(98,267,o),
(50,195,o),
(50,122,cs),
(50,37,o),
(113,-10,o),
(181,-10,cs)
);
},
{
closed = 1;
nodes = (
(534,15,o),
(419,101,o),
(419,256,cs),
(419,413,o),
(485,449,o),
(538,449,cs),
(584,449,o),
(634,407,o),
(636,328,c),
(718,328,l),
(714,456,o),
(630,520,o),
(558,520,cs),
(457,520,o),
(336,414,o),
(336,231,cs),
(336,118,o),
(416,-10,o),
(535,-10,cs),
(585,-10,o),
(642,10,o),
(730,70,c),
(710,110,l)
);
},
{
closed = 1;
nodes = (
(385,288,l),
(718,288,l),
(718,328,l),
(665,343,l),
(385,333,l)
);
}
);
};
layerId = m003;
shapes = (
{
closed = 1;
nodes = (
(413,205,l),
(418,340,ls),
(421,427,o),
(360,520,o),
(253,520,cs),
(223,520,o),
(166,500,o),
(88,450,c),
(88,400,l),
(230,471,o),
(350,445,o),
(343,294,c)
);
},
{
closed = 1;
nodes = (
(251,-10,o),
(317,20,o),
(387,114,c),
(358,162,l),
(320,94,o),
(276,62,o),
(220,61,cs),
(165,60,o),
(139,98,o),
(139,137,cs),
(139,172,o),
(160,208,o),
(218,223,cs),
(363,260,l),
(363,301,l),
(200,280,ls),
(98,267,o),
(50,195,o),
(50,122,cs),
(50,37,o),
(113,-10,o),
(181,-10,cs)
);
},
{
closed = 1;
nodes = (
(534,15,o),
(419,101,o),
(419,256,cs),
(419,413,o),
(485,449,o),
(538,449,cs),
(584,449,o),
(634,407,o),
(636,328,c),
(718,328,l),
(714,456,o),
(630,520,o),
(558,520,cs),
(457,520,o),
(342,414,o),
(342,231,cs),
(342,118,o),
(416,-10,o),
(535,-10,cs),
(585,-10,o),
(642,10,o),
(730,70,c),
(710,110,l)
);
},
{
closed = 1;
nodes = (
(385,288,l),
(718,288,l),
(718,328,l),
(665,343,l),
(385,333,l)
);
}
);
width = 770;
},
{
anchors = (
{
name = bottom;
pos = (385,0);
},
{
name = top;
pos = (385,500);
}
);
background = {
shapes = (
{
closed = 1;
nodes = (
(413,205,l),
(418,340,ls),
(421,427,o),
(360,520,o),
(253,520,cs),
(223,520,o),
(166,500,o),
(88,450,c),
(88,400,l),
(230,471,o),
(350,445,o),
(343,294,c)
);
},
{
closed = 1;
nodes = (
(251,-10,o),
(317,20,o),
(387,114,c),
(358,162,l),
(320,94,o),
(276,62,o),
(220,61,cs),
(165,60,o),
(139,98,o),
(139,137,cs),
(139,172,o),
(160,208,o),
(218,223,cs),
(363,260,l),
(363,301,l),
(200,280,ls),
(98,267,o),
(50,195,o),
(50,122,cs),
(50,37,o),
(113,-10,o),
(181,-10,cs)
);
},
{
closed = 1;
nodes = (
(534,15,o),
(419,101,o),
(419,256,cs),
(419,413,o),
(485,449,o),
(538,449,cs),
(584,449,o),
(634,407,o),
(636,328,c),
(718,328,l),
(714,456,o),
(630,520,o),
(558,520,cs),
(457,520,o),
(342,414,o),
(342,231,cs),
(342,118,o),
(416,-10,o),
(535,-10,cs),
(585,-10,o),
(642,10,o),
(730,70,c),
(710,110,l)
);
},
{
closed = 1;
nodes = (
(385,288,l),
(718,288,l),
(718,328,l),
(665,343,l),
(385,333,l)
);
}
);
};
layerId = m004;
shapes = (
{
closed = 1;
nodes = (
(413,205,l),
(418,340,ls),
(421,427,o),
(360,520,o),
(253,520,cs),
(223,520,o),
(166,500,o),
(88,450,c),
(88,370,l),
(176,429,o),
(313,451,o),
(313,290,c)
);
},
{
closed = 1;
nodes = (
(271,-10,o),
(317,37,o),
(365,85,c),
(358,182,l),
(320,113,o),
(270,88,o),
(232,88,cs),
(196,88,o),
(169,110,o),
(169,137,cs),
(169,172,o),
(198,198,o),
(246,210,cs),
(363,240,l),
(363,301,l),
(200,280,ls),
(98,267,o),
(50,195,o),
(50,122,cs),
(50,37,o),
(113,-10,o),
(191,-10,cs)
);
},
{
closed = 1;
nodes = (
(538,45,o),
(423,101,o),
(423,256,cs),
(423,371,o),
(441,432,o),
(508,432,cs),
(552,432,o),
(580,399,o),
(580,328,c),
(702,328,l),
(698,456,o),
(604,520,o),
(532,520,cs),
(431,520,o),
(310,414,o),
(310,231,cs),
(310,118,o),
(370,-10,o),
(509,-10,cs),
(559,-10,o),
(616,10,o),
(714,80,c),
(684,140,l)
);
},
{
closed = 1;
nodes = (
(359,268,l),
(702,268,l),
(702,328,l),
(639,353,l),
(359,333,l)
);
}
);
width = 754;
},
{
anchors = (
{
name = bottom;
pos = (365,0);
},
{
name = top;
pos = (365,500);
}
);
background = {
shapes = (
{
closed = 1;
nodes = (
(393,205,l),
(398,340,ls),
(401,427,o),
(340,520,o),
(233,520,cs),
(203,520,o),
(146,500,o),
(68,450,c),
(68,400,l),
(210,471,o),
(330,445,o),
(323,294,c)
);
},
{
closed = 1;
nodes = (
(231,-10,o),
(297,20,o),
(367,114,c),
(338,162,l),
(300,94,o),
(256,62,o),
(200,61,cs),
(145,60,o),
(119,98,o),
(119,137,cs),
(119,172,o),
(140,208,o),
(198,223,cs),
(343,260,l),
(343,301,l),
(180,280,ls),
(78,267,o),
(30,195,o),
(30,122,cs),
(30,37,o),
(93,-10,o),
(161,-10,cs)
);
},
{
closed = 1;
nodes = (
(514,15,o),
(399,101,o),
(399,256,cs),
(399,413,o),
(465,449,o),
(518,449,cs),
(564,449,o),
(614,407,o),
(616,328,c),
(698,328,l),
(694,456,o),
(610,520,o),
(538,520,cs),
(437,520,o),
(322,414,o),
(322,231,cs),
(322,118,o),
(396,-10,o),
(515,-10,cs),
(565,-10,o),
(622,10,o),
(710,70,c),
(690,110,l)
);
},
{
closed = 1;
nodes = (
(365,288,l),
(698,288,l),
(698,328,l),
(645,343,l),
(365,333,l)
);
}
);
};
layerId = m005;
shapes = (
{
closed = 1;
nodes = (
(407,205,l),
(431,340,ls),
(446,427,o),
(398,520,o),
(291,520,cs),
(261,520,o),
(201,500,o),
(116,450,c),
(105,370,l),
(201,429,o),
(341,451,o),
(319,290,c)
);
},
{
closed = 1;
nodes = (
(234,-10,o),
(287,37,o),
(342,85,c),
(348,182,l),
(301,113,o),
(247,88,o),
(209,88,cs),
(173,88,o),
(149,110,o),
(153,137,cs),
(158,172,o),
(191,198,o),
(240,210,cs),
(362,240,l),
(370,301,l),
(204,280,ls),
(100,267,o),
(42,195,o),
(32,122,cs),
(20,37,o),
(76,-10,o),
(154,-10,cs)
);
},
{
closed = 1;
nodes = (
(509,45,o),
(402,101,o),
(424,256,cs),
(440,371,o),
(467,432,o),
(534,432,cs),
(578,432,o),
(601,399,o),
(591,328,c),
(713,328,l),
(727,456,o),
(642,520,o),
(570,520,cs),
(469,520,o),
(333,414,o),
(307,231,cs),
(291,118,o),
(333,-10,o),
(472,-10,cs),
(522,-10,o),
(582,10,o),
(690,80,c),
(669,140,l)
);
},
{
closed = 1;
nodes = (
(362,268,l),
(705,268,l),
(713,328,l),
(653,353,l),
(371,333,l)
);
}
);
width = 754;
},
{
anchors = (
{
name = bottom;
pos = (385,0);
},
{
name = top;
pos = (385,500);
}
);
background = {
shapes = (
{
closed = 1;
nodes = (
(413,205,l),
(418,340,ls),
(421,427,o),
(360,520,o),
(253,520,cs),
(223,520,o),
(166,500,o),
(88,450,c),
(88,400,l),
(230,471,o),
(350,451,o),
(343,300,cs),
(333,89,l)
);
},
{
closed = 1;
nodes = (
(251,-10,o),
(297,27,o),
(335,75,c),
(358,162,l),
(320,94,o),
(276,62,o),
(220,61,cs),
(165,60,o),
(139,98,o),
(139,137,cs),
(139,172,o),
(160,208,o),
(218,223,cs),
(363,260,l),
(363,301,l),
(200,280,ls),
(98,267,o),
(50,195,o),
(50,122,cs),
(50,37,o),
(113,-10,o),
(181,-10,cs)
);
},
{
closed = 1;
nodes = (
(534,15,o),
(419,101,o),
(419,256,cs),
(419,413,o),
(485,449,o),
(538,449,cs),
(584,449,o),
(634,407,o),
(636,328,c),
(718,328,l),
(714,456,o),
(630,520,o),
(558,520,cs),
(457,520,o),
(336,414,o),
(336,231,cs),
(336,118,o),
(416,-10,o),
(535,-10,cs),
(585,-10,o),
(642,10,o),
(730,70,c),
(710,110,l)
);
},
{
closed = 1;
nodes = (
(385,288,l),
(718,288,l),
(718,328,l),
(665,343,l),
(385,333,l)
);
}
);
};
layerId = m006;
shapes = (
{
closed = 1;
nodes = (
(413,205,l),
(418,340,ls),
(421,427,o),
(360,520,o),
(253,520,cs),
(223,520,o),
(166,500,o),
(88,450,c),
(88,400,l),
(230,471,o),
(350,445,o),
(343,294,c)
);
},
{
closed = 1;
nodes = (
(251,-10,o),
(317,20,o),
(387,114,c),
(358,162,l),
(320,94,o),
(276,62,o),
(220,61,cs),
(165,60,o),
(139,98,o),
(139,137,cs),
(139,172,o),
(160,208,o),
(218,223,cs),
(363,260,l),
(363,301,l),
(200,280,ls),
(98,267,o),
(50,195,o),
(50,122,cs),
(50,37,o),
(113,-10,o),
(181,-10,cs)
);
},
{
closed = 1;
nodes = (
(534,15,o),
(419,101,o),
(419,256,cs),
(419,413,o),
(485,449,o),
(538,449,cs),
(584,449,o),
(634,407,o),
(636,328,c),
(718,328,l),
(714,456,o),
(630,520,o),
(558,520,cs),
(457,520,o),
(342,414,o),
(342,231,cs),
(342,118,o),
(416,-10,o),
(535,-10,cs),
(585,-10,o),
(642,10,o),
(730,70,c),
(710,110,l)
);
},
{
closed = 1;
nodes = (
(385,288,l),
(718,288,l),
(718,328,l),
(665,343,l),
(385,333,l)
);
}
);
width = 770;
}
);
metricLeft = "=a";
metricRight = "=e";
unicode = 230;
}
{
glyphname = eth;
layers = (
{
anchors = (
{
name = bottom;
pos = (267,0);
},
{
name = top;
pos = (267,750);
}
);
layerId = m002;
shapes = (
{
closed = 1;
nodes = (
(394,-20,o),
(492,127,o),
(494,255,cs),
(498,470,o),
(328,640,o),
(129,760,c),
(103,730,l),
(269,603,o),
(407,441,o),
(404,235,cs),
(402,123,o),
(376,55,o),
(269,55,cs),
(176,55,o),
(131,148,o),
(133,256,cs),
(135,380,o),
(186,450,o),
(267,450,cs),
(305,450,o),
(350,436,o),
(399,415,c),
(391,475,l),
(257,593,o),
(53,430,o),
(50,248,cs),
(47,91,o),
(118,-20,o),
(244,-20,cs)
);
},
{
closed = 1;
nodes = (
(329,760,l),
(104,591,l),
(130,555,l),
(355,724,l)
);
}
);
width = 534;
},
{
anchors = (
{
name = bottom;
pos = (232,0);
},
{
name = top;
pos = (337,750);
}
);
layerId = m003;
shapes = (
{
closed = 1;
nodes = (
(356,-20,o),
(475,127,o),
(495,255,cs),
(529,470,o),
(383,640,o),
(201,760,c),
(170,730,l),
(319,603,o),
(434,441,o),
(402,235,cs),
(384,123,o),
(349,55,o),
(242,55,cs),
(149,55,o),
(117,148,o),
(134,256,cs),
(153,380,o),
(214,450,o),
(295,450,cs),
(333,450,o),
(376,436,o),
(422,415,c),
(423,475,l),
(305,593,o),
(78,430,o),
(50,248,cs),
(25,91,o),
(80,-20,o),
(206,-20,cs)
);
},
{
closed = 1;
nodes = (
(401,760,l),
(152,591,l),
(173,555,l),
(422,724,l)
);
}
);
width = 534;
},
{
anchors = (
{
name = bottom;
pos = (267,0);
},
{
name = top;
pos = (267,750);
}
);
background = {
shapes = (
{
closed = 1;
nodes = (
(394,-20,o),
(492,127,o),
(494,255,cs),
(498,470,o),
(328,640,o),
(129,760,c),
(103,730,l),
(269,603,o),
(407,441,o),
(404,235,cs),
(402,123,o),
(376,55,o),
(269,55,cs),
(176,55,o),
(131,148,o),
(133,256,cs),
(135,380,o),
(186,450,o),
(267,450,cs),
(305,450,o),
(350,436,o),
(399,415,c),
(391,475,l),
(257,593,o),
(53,430,o),
(50,248,cs),
(47,91,o),
(118,-20,o),
(244,-20,cs)
);
},
{
closed = 1;
nodes = (
(329,760,l),
(104,591,l),
(130,555,l),
(355,724,l)
);
}
);
};
layerId = m004;
shapes = (
{
closed = 1;
nodes = (
(394,-20,o),
(492,127,o),
(494,255,cs),
(498,470,o),
(328,640,o),
(129,760,c),
(93,710,l),
(259,583,o),
(368,411,o),
(364,235,cs),
(362,153,o),
(346,85,o),
(269,85,cs),
(206,85,o),
(171,178,o),
(173,256,cs),
(175,350,o),
(196,420,o),
(267,420,cs),
(305,420,o),
(350,406,o),
(399,385,c),
(391,475,l),
(257,593,o),
(53,430,o),
(50,248,cs),
(47,91,o),
(118,-20,o),
(244,-20,cs)
);
},
{
closed = 1;
nodes = (
(329,760,l),
(84,571,l),
(120,525,l),
(365,714,l)
);
}
);
width = 534;
},
{
anchors = (
{
name = bottom;
pos = (267,0);
},
{
name = top;
pos = (267,750);
}
);
background = {
shapes = (
{
closed = 1;
nodes = (
(394,-20,o),
(492,127,o),
(494,255,cs),
(498,470,o),
(328,640,o),
(129,760,c),
(103,730,l),
(269,603,o),
(407,441,o),
(404,235,cs),
(402,123,o),
(376,55,o),
(269,55,cs),
(176,55,o),
(131,148,o),
(133,256,cs),
(135,380,o),
(186,450,o),
(267,450,cs),
(305,450,o),
(350,436,o),
(399,415,c),
(391,475,l),
(257,593,o),
(53,430,o),
(50,248,cs),
(47,91,o),
(118,-20,o),
(244,-20,cs)
);
},
{
closed = 1;
nodes = (
(329,760,l),
(104,591,l),
(130,555,l),
(355,724,l)
);
}
);
};
layerId = m005;
shapes = (
{
closed = 1;
nodes = (
(356,-20,o),
(475,127,o),
(495,255,cs),
(529,470,o),
(383,640,o),
(201,760,c),
(158,710,l),
(306,583,o),
(391,411,o),
(362,235,cs),
(348,153,o),
(323,85,o),
(246,85,cs),
(183,85,o),
(161,178,o),
(174,256,cs),
(189,350,o),
(220,420,o),
(291,420,cs),
(329,420,o),
(372,406,o),
(418,385,c),
(423,475,l),
(305,593,o),
(78,430,o),
(50,248,cs),
(25,91,o),
(80,-20,o),
(206,-20,cs)
);
},
{
closed = 1;
nodes = (
(401,760,l),
(129,571,l),
(159,525,l),
(430,714,l)
);
}
);
width = 534;
},
{
anchors = (
{
name = bottom;
pos = (267,0);
},
{
name = top;
pos = (267,750);
}
);
layerId = m006;
shapes = (
{
closed = 1;
nodes = (
(394,-20,o),
(481,97,o),
(484,255,cs),
(487,420,o),
(328,640,o),
(129,760,c),
(113,740,l),
(279,613,o),
(450,441,o),
(447,235,cs),
(445,93,o),
(366,10,o),
(269,10,cs),
(146,10,o),
(86,118,o),
(88,256,cs),
(90,392,o),
(162,480,o),
(275,480,cs),
(315,480,o),
(360,469,o),
(409,445,c),
(401,475,l),
(227,593,o),
(53,430,o),
(50,248,cs),
(47,91,o),
(128,-20,o),
(254,-20,cs)
);
},
{
closed = 1;
nodes = (
(329,760,l),
(104,591,l),
(123,567,l),
(348,736,l)
);
}
);
width = 524;
},
{
anchors = (
{
name = bottom;
pos = (267,0);
},
{
name = top;
pos = (267,750);
}
);
layerId = m007;
shapes = (
{
closed = 1;
nodes = (
(342,-20,o),
(445,97,o),
(471,255,cs),
(497,420,o),
(369,640,o),
(187,760,c),
(168,740,l),
(316,613,o),
(463,441,o),
(431,235,cs),
(409,93,o),
(318,10,o),
(221,10,cs),
(98,10,o),
(53,118,o),
(75,256,cs),
(96,392,o),
(180,480,o),
(293,480,cs),
(333,480,o),
(377,469,o),
(422,445,c),
(419,475,l),
(261,593,o),
(64,430,o),
(36,248,cs),
(11,91,o),
(76,-20,o),
(202,-20,cs)
);
},
{
closed = 1;
nodes = (
(387,760,l),
(138,591,l),
(153,567,l),
(402,736,l)
);
}
);
width = 524;
}
);
unicode = 240;
}
{
glyphname = oslash;
layers = (
{
layerId = m002;
shapes = (
{
ref = o;
},
{
closed = 1;
nodes = (
(25,-18,l),
(72,-52,l),
(530,518,l),
(483,552,l)
);
}
);
width = 554;
}
);
unicode = 248;
}
{
glyphname = thorn;
layers = (
{
anchors = (
{
name = bottom;
pos = (265,0);
},
{
name = top;
pos = (265,500);
}
);
layerId = m002;
shapes = (
{
closed = 1;
nodes = (
(165,-290,l),
(145,90,l),
(145,440,l),
(155,760,l),
(65,740,l),
(75,550,l),
(75,-310,l)
);
},
{
closed = 1;
nodes = (
(368,-15,o),
(480,116,o),
(480,272,cs),
(480,429,o),
(392,520,o),
(306,520,cs),
(276,520,o),
(219,500,o),
(141,450,c),
(141,400,l),
(185,426,o),
(226,445,o),
(263,445,cs),
(336,445,o),
(397,372,o),
(397,264,cs),
(397,140,o),
(342,55,o),
(271,55,cs),
(233,55,o),
(188,69,o),
(139,100,c),
(78,25,l),
(126,8,o),
(182,-15,o),
(234,-15,cs)
);
}
);
width = 530;
},
{
anchors = (
{
name = bottom;
pos = (265,0);
},
{
name = top;
pos = (265,500);
}
);
layerId = m003;
shapes = (
{
closed = 1;
nodes = (
(89,-290,l),
(123,90,l),
(172,440,l),
(227,760,l),
(134,740,l),
(117,550,l),
(-4,-310,l)
);
},
{
closed = 1;
nodes = (
(326,-14,o),
(462,100,o),
(486,282,cs),
(504,419,o),
(437,520,o),
(341,520,cs),
(291,520,o),
(251,505,o),
(153,431,c),
(146,380,l),
(207,426,o),
(260,449,o),
(297,449,cs),
(380,449,o),
(413,352,o),
(402,274,cs),
(379,110,o),
(291,48,o),
(216,48,cs),
(174,48,o),
(135,61,o),
(103,75,c),
(44,10,l),
(73,-6,o),
(121,-14,o),
(168,-14,cs)
);
}
);
width = 530;
},
{
anchors = (
{
name = bottom;
pos = (275,0);
},
{
name = top;
pos = (275,500);
}
);
layerId = m004;
shapes = (
{
closed = 1;
nodes = (
(215,-290,l),
(195,90,l),
(195,440,l),
(205,760,l),
(65,740,l),
(85,550,l),
(85,-310,l)
);
},
{
closed = 1;
nodes = (
(375,-10,o),
(492,116,o),
(492,292,cs),
(492,429,o),
(399,520,o),
(323,520,cs),
(283,520,o),
(226,500,o),
(148,440,c),
(148,395,l),
(196,404,o),
(235,411,o),
(266,411,cs),
(341,411,o),
(379,342,o),
(379,232,cs),
(379,145,o),
(350,99,o),
(288,99,cs),
(259,99,o),
(225,103,o),
(141,151,c),
(95,30,l),
(133,3,o),
(189,-10,o),
(241,-10,cs)
);
}
);
width = 540;
},
{
anchors = (
{
name = bottom;
pos = (240,0);
},
{
name = top;
pos = (310,500);
}
);
layerId = m005;
shapes = (
{
closed = 1;
nodes = (
(139,-290,l),
(173,90,l),
(222,440,l),
(277,760,l),
(134,740,l),
(127,550,l),
(6,-310,l)
);
},
{
closed = 1;
nodes = (
(338,-10,o),
(473,116,o),
(498,292,cs),
(517,429,o),
(437,520,o),
(361,520,cs),
(321,520,o),
(261,500,o),
(175,440,c),
(168,395,l),
(218,404,o),
(258,411,o),
(289,411,cs),
(364,411,o),
(392,342,o),
(376,232,cs),
(364,145,o),
(329,99,o),
(267,99,cs),
(238,99,o),
(204,103,o),
(127,151,c),
(64,30,l),
(98,3,o),
(152,-10,o),
(204,-10,cs)
);
}
);
width = 540;
},
{
anchors = (
{
name = bottom;
pos = (265,0);
},
{
name = top;
pos = (265,500);
}
);
background = {
shapes = (
{
closed = 1;
nodes = (
(165,-290,l),
(145,90,l),
(145,440,l),
(155,760,l),
(65,740,l),
(75,550,l),
(75,-310,l)
);
},
{
closed = 1;
nodes = (
(368,-15,o),
(480,116,o),
(480,272,cs),
(480,429,o),
(392,520,o),
(306,520,cs),
(276,520,o),
(219,500,o),
(141,450,c),
(141,400,l),
(185,426,o),
(226,445,o),
(263,445,cs),
(336,445,o),
(397,372,o),
(397,264,cs),
(397,140,o),
(342,55,o),
(271,55,cs),
(233,55,o),
(188,69,o),
(139,100,c),
(78,25,l),
(126,8,o),
(182,-15,o),
(234,-15,cs)
);
}
);
};
layerId = m006;
shapes = (
{
closed = 1;
nodes = (
(112,-302,l),
(104,120,l),
(105,440,l),
(105,760,l),
(65,750,l),
(70,550,l),
(75,-310,l)
);
},
{
closed = 1;
nodes = (
(332,-15,o),
(454,96,o),
(454,272,cs),
(454,425,o),
(363,518,o),
(273,518,cs),
(208,518,o),
(147,490,o),
(91,426,c),
(91,391,l),
(140,461,o),
(207,489,o),
(254,489,cs),
(367,489,o),
(414,376,o),
(414,261,cs),
(414,95,o),
(316,14,o),
(198,14,cs),
(166,14,o),
(135,24,o),
(99,40,c),
(86,8,l),
(98,2,o),
(146,-15,o),
(198,-15,cs)
);
}
);
width = 504;
},
{
anchors = (
{
name = bottom;
pos = (247,0);
},
{
name = top;
pos = (247,500);
}
);
background = {
shapes = (
{
closed = 1;
nodes = (
(147,-290,l),
(127,90,l),
(127,440,l),
(137,760,l),
(47,740,l),
(57,550,l),
(57,-310,l)
);
},
{
closed = 1;
nodes = (
(350,-15,o),
(462,116,o),
(462,272,cs),
(462,429,o),
(374,520,o),
(288,520,cs),
(258,520,o),
(201,500,o),
(123,450,c),
(123,400,l),
(167,426,o),
(208,445,o),
(245,445,cs),
(318,445,o),
(379,372,o),
(379,264,cs),
(379,140,o),
(324,55,o),
(253,55,cs),
(215,55,o),
(170,69,o),
(121,100,c),
(60,25,l),
(108,8,o),
(164,-15,o),
(216,-15,cs)
);
}
);
};
layerId = m007;
shapes = (
{
closed = 1;
nodes = (
(20,-302,l),
(71,120,l),
(117,440,l),
(162,760,l),
(121,750,l),
(98,550,l),
(-18,-310,l)
);
},
{
closed = 1;
nodes = (
(280,-15,o),
(418,96,o),
(443,272,cs),
(464,425,o),
(386,518,o),
(296,518,cs),
(231,518,o),
(166,490,o),
(101,426,c),
(96,391,l),
(155,461,o),
(226,489,o),
(273,489,cs),
(386,489,o),
(417,376,o),
(401,261,cs),
(378,95,o),
(268,14,o),
(150,14,cs),
(118,14,o),
(89,24,o),
(55,40,c),
(38,8,l),
(49,2,o),
(94,-15,o),
(146,-15,cs)
);
}
);
width = 504;
},
{
anchors = (
{
name = bottom;
pos = (265,0);
},
{
name = top;
pos = (265,500);
}
);
layerId = m008;
shapes = (
{
closed = 1;
nodes = (
(165,-290,l),
(145,90,l),
(145,440,l),
(155,760,l),
(65,740,l),
(75,550,l),
(75,-310,l)
);
},
{
closed = 1;
nodes = (
(368,-15,o),
(480,116,o),
(480,272,cs),
(480,429,o),
(392,520,o),
(306,520,cs),
(276,520,o),
(219,500,o),
(141,450,c),
(141,400,l),
(185,426,o),
(226,445,o),
(263,445,cs),
(336,445,o),
(397,372,o),
(397,264,cs),
(397,140,o),
(342,55,o),
(271,55,cs),
(233,55,o),
(188,69,o),
(139,100,c),
(78,25,l),
(126,8,o),
(182,-15,o),
(234,-15,cs)
);
}
);
width = 530;
}
);
metricLeft = "=p";
metricRight = "=p";
unicode = 254;
}
{
glyphname = dcroat;
layers = (
{
layerId = m002;
shapes = (
{
ref = d;
},
{
closed = 1;
nodes = (
(386,590,l),
(456,590,l),
(536,585,l),
(536,655,l),
(456,650,l),
(386,650,l),
(286,655,l),
(286,585,l)
);
}
);
width = 535;
}
);
unicode = 273;
}
{
glyphname = Hbar;
layers = (
{
layerId = m002;
shapes = (
{
ref = H;
},
{
closed = 1;
nodes = (
(675,580,l),
(355,575,l),
(35,580,l),
(35,510,l),
(355,515,l),
(675,510,l)
);
}
);
width = 710;
},
{
layerId = m003;
shapes = (
{
ref = H;
},
{
closed = 1;
nodes = (
(706,580,l),
(386,575,l),
(66,580,l),
(57,510,l),
(377,515,l),
(697,510,l)
);
}
);
width = 680;
},
{
layerId = m006;
shapes = (
{
ref = H;
},
{
closed = 1;
nodes = (
(660,580,l),
(340,577,l),
(20,580,l),
(20,550,l),
(340,553,l),
(660,550,l)
);
}
);
width = 680;
},
{
layerId = m007;
shapes = (
{
ref = H;
},
{
closed = 1;
nodes = (
(695,580,l),
(375,577,l),
(55,580,l),
(55,550,l),
(375,553,l),
(695,550,l)
);
}
);
width = 680;
},
{
layerId = m008;
shapes = (
{
ref = H;
},
{
closed = 1;
nodes = (
(715,580,l),
(365,575,l),
(15,580,l),
(15,500,l),
(365,505,l),
(715,500,l)
);
}
);
width = 730;
},
{
layerId = m009;
shapes = (
{
ref = H;
},
{
closed = 1;
nodes = (
(761,580,l),
(411,575,l),
(61,580,l),
(50,500,l),
(401,505,l),
(750,500,l)
);
}
);
width = 730;
}
);
metricWidth = "=H";
unicode = 294;
}
{
glyphname = hbar;
layers = (
{
layerId = m002;
shapes = (
{
ref = h;
},
{
closed = 1;
nodes = (
(250,635,l),
(150,630,l),
(80,630,l),
(0,635,l),
(0,565,l),
(80,570,l),
(150,570,l),
(250,565,l)
);
}
);
width = 530;
}
);
unicode = 295;
}
{
glyphname = idotless;
layers = (
{
anchors = (
{
name = bottom;
pos = (120,0);
},
{
name = ogonek;
pos = (180,0);
},
{
name = top;
pos = (120,500);
}
);
layerId = m002;
shapes = (
{
closed = 1;
nodes = (
(90,250,l),
(85,0,l),
(180,0,l),
(165,250,l),
(165,510,l),
(75,490,l)
);
}
);
width = 240;
}
);
metricWidth = "=i";
unicode = 305;
}
{
glyphname = lslash;
layers = (
{
layerId = m002;
shapes = (
{
ref = l;
},
{
closed = 1;
nodes = (
(230,437,l),
(110,388,l),
(-14,348,l),
(10,283,l),
(130,332,l),
(254,372,l)
);
}
);
width = 225;
}
);
unicode = 322;
}
